%FSLAX34Y34*%
G04 Gerber Fmt 3.4, Leading zero omitted, Abs format*
G04 (created by PCBNEW (2014-06-26 BZR 4956)-product) date 03/07/2014 22:05:42*
%MOIN*%
G01*
G70*
G90*
G04 APERTURE LIST*
%ADD10C,0.003937*%
%ADD11C,0.005000*%
%ADD12C,0.010000*%
%ADD13C,0.007874*%
%ADD14C,0.011811*%
%ADD15C,0.008000*%
%ADD16C,0.003900*%
%ADD17C,0.012000*%
%ADD18C,0.005906*%
%ADD19C,0.005900*%
%ADD20C,0.004300*%
G04 APERTURE END LIST*
G54D10*
G54D11*
X80353Y-54747D02*
X80396Y-54761D01*
X80468Y-54761D01*
X80496Y-54747D01*
X80511Y-54733D01*
X80525Y-54704D01*
X80525Y-54675D01*
X80511Y-54647D01*
X80496Y-54633D01*
X80468Y-54618D01*
X80411Y-54604D01*
X80382Y-54590D01*
X80368Y-54575D01*
X80353Y-54547D01*
X80353Y-54518D01*
X80368Y-54490D01*
X80382Y-54475D01*
X80411Y-54461D01*
X80482Y-54461D01*
X80525Y-54475D01*
X80653Y-54761D02*
X80653Y-54461D01*
X80768Y-54461D01*
X80796Y-54475D01*
X80811Y-54490D01*
X80825Y-54518D01*
X80825Y-54561D01*
X80811Y-54590D01*
X80796Y-54604D01*
X80768Y-54618D01*
X80653Y-54618D01*
X80939Y-54675D02*
X81082Y-54675D01*
X80911Y-54761D02*
X81011Y-54461D01*
X81111Y-54761D01*
X81382Y-54761D02*
X81282Y-54618D01*
X81211Y-54761D02*
X81211Y-54461D01*
X81325Y-54461D01*
X81353Y-54475D01*
X81368Y-54490D01*
X81382Y-54518D01*
X81382Y-54561D01*
X81368Y-54590D01*
X81353Y-54604D01*
X81325Y-54618D01*
X81211Y-54618D01*
X81511Y-54604D02*
X81611Y-54604D01*
X81653Y-54761D02*
X81511Y-54761D01*
X81511Y-54461D01*
X81653Y-54461D01*
X80752Y-51213D02*
X80752Y-51427D01*
X80738Y-51470D01*
X80709Y-51499D01*
X80666Y-51513D01*
X80638Y-51513D01*
X80852Y-51213D02*
X81023Y-51213D01*
X80938Y-51513D02*
X80938Y-51213D01*
X81109Y-51427D02*
X81252Y-51427D01*
X81080Y-51513D02*
X81180Y-51213D01*
X81280Y-51513D01*
X81538Y-51227D02*
X81509Y-51213D01*
X81466Y-51213D01*
X81423Y-51227D01*
X81395Y-51256D01*
X81380Y-51285D01*
X81366Y-51342D01*
X81366Y-51385D01*
X81380Y-51442D01*
X81395Y-51470D01*
X81423Y-51499D01*
X81466Y-51513D01*
X81495Y-51513D01*
X81538Y-51499D01*
X81552Y-51485D01*
X81552Y-51385D01*
X81495Y-51385D01*
G54D12*
X68195Y-43936D02*
X68148Y-43912D01*
X68076Y-43912D01*
X68005Y-43936D01*
X67957Y-43984D01*
X67934Y-44031D01*
X67910Y-44127D01*
X67910Y-44198D01*
X67934Y-44293D01*
X67957Y-44341D01*
X68005Y-44388D01*
X68076Y-44412D01*
X68124Y-44412D01*
X68195Y-44388D01*
X68219Y-44365D01*
X68219Y-44198D01*
X68124Y-44198D01*
X68719Y-44365D02*
X68695Y-44388D01*
X68624Y-44412D01*
X68576Y-44412D01*
X68505Y-44388D01*
X68457Y-44341D01*
X68434Y-44293D01*
X68410Y-44198D01*
X68410Y-44127D01*
X68434Y-44031D01*
X68457Y-43984D01*
X68505Y-43936D01*
X68576Y-43912D01*
X68624Y-43912D01*
X68695Y-43936D01*
X68719Y-43960D01*
X68862Y-43912D02*
X69029Y-44412D01*
X69195Y-43912D01*
X69362Y-44412D02*
X69362Y-44079D01*
X69362Y-43912D02*
X69338Y-43936D01*
X69362Y-43960D01*
X69386Y-43936D01*
X69362Y-43912D01*
X69362Y-43960D01*
X69814Y-44412D02*
X69814Y-43912D01*
X69814Y-44388D02*
X69767Y-44412D01*
X69672Y-44412D01*
X69624Y-44388D01*
X69600Y-44365D01*
X69576Y-44317D01*
X69576Y-44174D01*
X69600Y-44127D01*
X69624Y-44103D01*
X69672Y-44079D01*
X69767Y-44079D01*
X69814Y-44103D01*
X70243Y-44388D02*
X70195Y-44412D01*
X70100Y-44412D01*
X70053Y-44388D01*
X70029Y-44341D01*
X70029Y-44150D01*
X70053Y-44103D01*
X70100Y-44079D01*
X70195Y-44079D01*
X70243Y-44103D01*
X70267Y-44150D01*
X70267Y-44198D01*
X70029Y-44246D01*
X70553Y-44412D02*
X70505Y-44388D01*
X70481Y-44365D01*
X70457Y-44317D01*
X70457Y-44174D01*
X70481Y-44127D01*
X70505Y-44103D01*
X70553Y-44079D01*
X70624Y-44079D01*
X70672Y-44103D01*
X70695Y-44127D01*
X70719Y-44174D01*
X70719Y-44317D01*
X70695Y-44365D01*
X70672Y-44388D01*
X70624Y-44412D01*
X70553Y-44412D01*
X71553Y-44412D02*
X71314Y-44412D01*
X71314Y-43912D01*
X71719Y-44412D02*
X71719Y-44079D01*
X71719Y-43912D02*
X71695Y-43936D01*
X71719Y-43960D01*
X71743Y-43936D01*
X71719Y-43912D01*
X71719Y-43960D01*
X71886Y-44079D02*
X72076Y-44079D01*
X71957Y-43912D02*
X71957Y-44341D01*
X71981Y-44388D01*
X72029Y-44412D01*
X72076Y-44412D01*
X72434Y-44388D02*
X72386Y-44412D01*
X72291Y-44412D01*
X72243Y-44388D01*
X72219Y-44341D01*
X72219Y-44150D01*
X72243Y-44103D01*
X72291Y-44079D01*
X72386Y-44079D01*
X72434Y-44103D01*
X72457Y-44150D01*
X72457Y-44198D01*
X72219Y-44246D01*
X68029Y-44712D02*
X68076Y-44712D01*
X68124Y-44736D01*
X68148Y-44760D01*
X68172Y-44808D01*
X68195Y-44903D01*
X68195Y-45022D01*
X68172Y-45117D01*
X68148Y-45165D01*
X68124Y-45188D01*
X68076Y-45212D01*
X68029Y-45212D01*
X67981Y-45188D01*
X67957Y-45165D01*
X67934Y-45117D01*
X67910Y-45022D01*
X67910Y-44903D01*
X67934Y-44808D01*
X67957Y-44760D01*
X67981Y-44736D01*
X68029Y-44712D01*
X68410Y-45165D02*
X68434Y-45188D01*
X68410Y-45212D01*
X68386Y-45188D01*
X68410Y-45165D01*
X68410Y-45212D01*
X68672Y-45212D02*
X68767Y-45212D01*
X68814Y-45188D01*
X68838Y-45165D01*
X68886Y-45093D01*
X68910Y-44998D01*
X68910Y-44808D01*
X68886Y-44760D01*
X68862Y-44736D01*
X68814Y-44712D01*
X68719Y-44712D01*
X68672Y-44736D01*
X68648Y-44760D01*
X68624Y-44808D01*
X68624Y-44927D01*
X68648Y-44974D01*
X68672Y-44998D01*
X68719Y-45022D01*
X68814Y-45022D01*
X68862Y-44998D01*
X68886Y-44974D01*
X68910Y-44927D01*
G54D11*
X81730Y-44498D02*
X81587Y-44598D01*
X81730Y-44669D02*
X81430Y-44669D01*
X81430Y-44555D01*
X81444Y-44527D01*
X81458Y-44512D01*
X81487Y-44498D01*
X81530Y-44498D01*
X81558Y-44512D01*
X81573Y-44527D01*
X81587Y-44555D01*
X81587Y-44669D01*
X81444Y-44212D02*
X81430Y-44241D01*
X81430Y-44284D01*
X81444Y-44327D01*
X81473Y-44355D01*
X81501Y-44369D01*
X81558Y-44384D01*
X81601Y-44384D01*
X81658Y-44369D01*
X81687Y-44355D01*
X81715Y-44327D01*
X81730Y-44284D01*
X81730Y-44255D01*
X81715Y-44212D01*
X81701Y-44198D01*
X81601Y-44198D01*
X81601Y-44255D01*
X81573Y-43969D02*
X81587Y-43927D01*
X81601Y-43912D01*
X81630Y-43898D01*
X81673Y-43898D01*
X81701Y-43912D01*
X81715Y-43927D01*
X81730Y-43955D01*
X81730Y-44069D01*
X81430Y-44069D01*
X81430Y-43969D01*
X81444Y-43941D01*
X81458Y-43927D01*
X81487Y-43912D01*
X81515Y-43912D01*
X81544Y-43927D01*
X81558Y-43941D01*
X81573Y-43969D01*
X81573Y-44069D01*
G54D13*
X64370Y-49901D02*
X64566Y-50098D01*
X64370Y-49901D02*
X64566Y-49704D01*
X65059Y-49901D02*
X65551Y-50688D01*
X64370Y-49901D02*
X65059Y-49901D01*
G54D11*
X65776Y-50117D02*
X65757Y-50174D01*
X65738Y-50193D01*
X65700Y-50212D01*
X65643Y-50212D01*
X65605Y-50193D01*
X65586Y-50174D01*
X65567Y-50136D01*
X65567Y-49984D01*
X65967Y-49984D01*
X65967Y-50117D01*
X65948Y-50155D01*
X65928Y-50174D01*
X65890Y-50193D01*
X65852Y-50193D01*
X65814Y-50174D01*
X65795Y-50155D01*
X65776Y-50117D01*
X65776Y-49984D01*
X65719Y-50384D02*
X65719Y-50689D01*
X65948Y-51089D02*
X65967Y-51050D01*
X65967Y-50993D01*
X65948Y-50936D01*
X65909Y-50898D01*
X65871Y-50879D01*
X65795Y-50860D01*
X65738Y-50860D01*
X65662Y-50879D01*
X65624Y-50898D01*
X65586Y-50936D01*
X65567Y-50993D01*
X65567Y-51031D01*
X65586Y-51089D01*
X65605Y-51108D01*
X65738Y-51108D01*
X65738Y-51031D01*
X65719Y-51279D02*
X65719Y-51584D01*
X65567Y-52003D02*
X65757Y-51869D01*
X65567Y-51774D02*
X65967Y-51774D01*
X65967Y-51927D01*
X65948Y-51965D01*
X65928Y-51984D01*
X65890Y-52003D01*
X65833Y-52003D01*
X65795Y-51984D01*
X65776Y-51965D01*
X65757Y-51927D01*
X65757Y-51774D01*
G54D14*
X64032Y-45486D02*
X64004Y-45514D01*
X63920Y-45542D01*
X63863Y-45542D01*
X63779Y-45514D01*
X63723Y-45458D01*
X63695Y-45402D01*
X63667Y-45289D01*
X63667Y-45205D01*
X63695Y-45092D01*
X63723Y-45036D01*
X63779Y-44980D01*
X63863Y-44952D01*
X63920Y-44952D01*
X64004Y-44980D01*
X64032Y-45008D01*
X64651Y-44952D02*
X64848Y-45542D01*
X65044Y-44952D01*
X65691Y-45542D02*
X65691Y-44952D01*
X65691Y-45233D02*
X66029Y-45233D01*
X66029Y-45542D02*
X66029Y-44952D01*
X66760Y-45317D02*
X67210Y-45317D01*
G54D15*
X78190Y-45678D02*
G75*
G03X78190Y-45678I-200J0D01*
G74*
G01*
X78340Y-45728D02*
X78090Y-45478D01*
X72840Y-45578D02*
X72940Y-45478D01*
X72840Y-50878D02*
X72940Y-50978D01*
X78240Y-50978D02*
X78340Y-50878D01*
X78090Y-45478D02*
X72940Y-45478D01*
X72840Y-45578D02*
X72840Y-50878D01*
X72940Y-50978D02*
X78240Y-50978D01*
X78340Y-50878D02*
X78340Y-45728D01*
G54D16*
X78160Y-51865D02*
G75*
G03X78160Y-51865I-50J0D01*
G74*
G01*
X77660Y-51865D02*
X78060Y-51865D01*
X78060Y-51865D02*
X78060Y-52465D01*
X78060Y-52465D02*
X77660Y-52465D01*
X77260Y-52465D02*
X76860Y-52465D01*
X76860Y-52465D02*
X76860Y-51865D01*
X76860Y-51865D02*
X77260Y-51865D01*
X79474Y-46692D02*
G75*
G03X79474Y-46692I-50J0D01*
G74*
G01*
X79424Y-47142D02*
X79424Y-46742D01*
X79424Y-46742D02*
X80024Y-46742D01*
X80024Y-46742D02*
X80024Y-47142D01*
X80024Y-47542D02*
X80024Y-47942D01*
X80024Y-47942D02*
X79424Y-47942D01*
X79424Y-47942D02*
X79424Y-47542D01*
X77766Y-43991D02*
G75*
G03X77766Y-43991I-50J0D01*
G74*
G01*
X77266Y-43991D02*
X77666Y-43991D01*
X77666Y-43991D02*
X77666Y-44591D01*
X77666Y-44591D02*
X77266Y-44591D01*
X76866Y-44591D02*
X76466Y-44591D01*
X76466Y-44591D02*
X76466Y-43991D01*
X76466Y-43991D02*
X76866Y-43991D01*
X72451Y-50782D02*
G75*
G03X72451Y-50782I-50J0D01*
G74*
G01*
X71951Y-50782D02*
X72351Y-50782D01*
X72351Y-50782D02*
X72351Y-51382D01*
X72351Y-51382D02*
X71951Y-51382D01*
X71551Y-51382D02*
X71151Y-51382D01*
X71151Y-51382D02*
X71151Y-50782D01*
X71151Y-50782D02*
X71551Y-50782D01*
X73514Y-44591D02*
G75*
G03X73514Y-44591I-50J0D01*
G74*
G01*
X73914Y-44591D02*
X73514Y-44591D01*
X73514Y-44591D02*
X73514Y-43991D01*
X73514Y-43991D02*
X73914Y-43991D01*
X74314Y-43991D02*
X74714Y-43991D01*
X74714Y-43991D02*
X74714Y-44591D01*
X74714Y-44591D02*
X74314Y-44591D01*
X79277Y-49251D02*
G75*
G03X79277Y-49251I-50J0D01*
G74*
G01*
X79227Y-49701D02*
X79227Y-49301D01*
X79227Y-49301D02*
X79827Y-49301D01*
X79827Y-49301D02*
X79827Y-49701D01*
X79827Y-50101D02*
X79827Y-50501D01*
X79827Y-50501D02*
X79227Y-50501D01*
X79227Y-50501D02*
X79227Y-50101D01*
X79090Y-45236D02*
G75*
G03X79090Y-45236I-50J0D01*
G74*
G01*
X79040Y-44786D02*
X79040Y-45186D01*
X79040Y-45186D02*
X78440Y-45186D01*
X78440Y-45186D02*
X78440Y-44786D01*
X78440Y-44386D02*
X78440Y-43986D01*
X78440Y-43986D02*
X79040Y-43986D01*
X79040Y-43986D02*
X79040Y-44386D01*
X66743Y-48715D02*
G75*
G03X66743Y-48715I-50J0D01*
G74*
G01*
X66243Y-48715D02*
X66643Y-48715D01*
X66643Y-48715D02*
X66643Y-49315D01*
X66643Y-49315D02*
X66243Y-49315D01*
X65843Y-49315D02*
X65443Y-49315D01*
X65443Y-49315D02*
X65443Y-48715D01*
X65443Y-48715D02*
X65843Y-48715D01*
X66187Y-49842D02*
G75*
G03X66187Y-49842I-50J0D01*
G74*
G01*
X66137Y-50292D02*
X66137Y-49892D01*
X66137Y-49892D02*
X66737Y-49892D01*
X66737Y-49892D02*
X66737Y-50292D01*
X66737Y-50692D02*
X66737Y-51092D01*
X66737Y-51092D02*
X66137Y-51092D01*
X66137Y-51092D02*
X66137Y-50692D01*
X71216Y-46909D02*
G75*
G03X71216Y-46909I-50J0D01*
G74*
G01*
X71166Y-46459D02*
X71166Y-46859D01*
X71166Y-46859D02*
X70566Y-46859D01*
X70566Y-46859D02*
X70566Y-46459D01*
X70566Y-46059D02*
X70566Y-45659D01*
X70566Y-45659D02*
X71166Y-45659D01*
X71166Y-45659D02*
X71166Y-46059D01*
X66885Y-48386D02*
G75*
G03X66885Y-48386I-50J0D01*
G74*
G01*
X66835Y-47936D02*
X66835Y-48336D01*
X66835Y-48336D02*
X66235Y-48336D01*
X66235Y-48336D02*
X66235Y-47936D01*
X66235Y-47536D02*
X66235Y-47136D01*
X66235Y-47136D02*
X66835Y-47136D01*
X66835Y-47136D02*
X66835Y-47536D01*
X65738Y-54630D02*
G75*
G03X65738Y-54630I-50J0D01*
G74*
G01*
X66138Y-54630D02*
X65738Y-54630D01*
X65738Y-54630D02*
X65738Y-54030D01*
X65738Y-54030D02*
X66138Y-54030D01*
X66538Y-54030D02*
X66938Y-54030D01*
X66938Y-54030D02*
X66938Y-54630D01*
X66938Y-54630D02*
X66538Y-54630D01*
G54D17*
X64181Y-51720D02*
X63181Y-51720D01*
X63181Y-51720D02*
X63181Y-46720D01*
X63181Y-46720D02*
X64181Y-46720D01*
X64181Y-46720D02*
X64181Y-51720D01*
X64181Y-50720D02*
X63181Y-50720D01*
X67452Y-44692D02*
X67452Y-44692D01*
X67452Y-43692D02*
X67452Y-44692D01*
X67452Y-44692D02*
X67452Y-44692D01*
X67452Y-44692D02*
X63452Y-44692D01*
X63452Y-44692D02*
X63452Y-43692D01*
X63452Y-43692D02*
X67452Y-43692D01*
X66452Y-43692D02*
X66452Y-44692D01*
X81405Y-51031D02*
X80405Y-51031D01*
X80405Y-51031D02*
X80405Y-45031D01*
X80405Y-45031D02*
X81405Y-45031D01*
X81405Y-45031D02*
X81405Y-51031D01*
X81405Y-50031D02*
X80405Y-50031D01*
G54D16*
X66998Y-49821D02*
G75*
G03X66998Y-49821I-50J0D01*
G74*
G01*
X66948Y-50271D02*
X66948Y-49871D01*
X66948Y-49871D02*
X67548Y-49871D01*
X67548Y-49871D02*
X67548Y-50271D01*
X67548Y-50671D02*
X67548Y-51071D01*
X67548Y-51071D02*
X66948Y-51071D01*
X66948Y-51071D02*
X66948Y-50671D01*
X65113Y-51437D02*
G75*
G03X65113Y-51437I-50J0D01*
G74*
G01*
X65063Y-50987D02*
X65063Y-51387D01*
X65063Y-51387D02*
X64463Y-51387D01*
X64463Y-51387D02*
X64463Y-50987D01*
X64463Y-50587D02*
X64463Y-50187D01*
X64463Y-50187D02*
X65063Y-50187D01*
X65063Y-50187D02*
X65063Y-50587D01*
X65113Y-49567D02*
G75*
G03X65113Y-49567I-50J0D01*
G74*
G01*
X65063Y-49117D02*
X65063Y-49517D01*
X65063Y-49517D02*
X64463Y-49517D01*
X64463Y-49517D02*
X64463Y-49117D01*
X64463Y-48717D02*
X64463Y-48317D01*
X64463Y-48317D02*
X65063Y-48317D01*
X65063Y-48317D02*
X65063Y-48717D01*
X64513Y-46889D02*
G75*
G03X64513Y-46889I-50J0D01*
G74*
G01*
X64463Y-47339D02*
X64463Y-46939D01*
X64463Y-46939D02*
X65063Y-46939D01*
X65063Y-46939D02*
X65063Y-47339D01*
X65063Y-47739D02*
X65063Y-48139D01*
X65063Y-48139D02*
X64463Y-48139D01*
X64463Y-48139D02*
X64463Y-47739D01*
X80522Y-51353D02*
G75*
G03X80522Y-51353I-50J0D01*
G74*
G01*
X80022Y-51353D02*
X80422Y-51353D01*
X80422Y-51353D02*
X80422Y-51953D01*
X80422Y-51953D02*
X80022Y-51953D01*
X79622Y-51953D02*
X79222Y-51953D01*
X79222Y-51953D02*
X79222Y-51353D01*
X79222Y-51353D02*
X79622Y-51353D01*
G54D18*
X70354Y-49330D02*
X70354Y-49370D01*
X70354Y-49370D02*
X70236Y-49488D01*
X70236Y-49488D02*
X67952Y-49488D01*
X67952Y-49488D02*
X67834Y-49370D01*
X67834Y-49370D02*
X67834Y-47086D01*
X67834Y-47086D02*
X67952Y-46968D01*
X67952Y-46968D02*
X70236Y-46968D01*
X70236Y-46968D02*
X70354Y-47086D01*
X70354Y-47086D02*
X70354Y-49330D01*
G54D19*
X70629Y-49842D02*
X70708Y-49763D01*
X70708Y-49685D02*
X70551Y-49842D01*
X70472Y-49842D02*
X70708Y-49606D01*
X70708Y-49527D02*
X70393Y-49842D01*
X70708Y-49448D02*
X70708Y-49842D01*
X70708Y-49842D02*
X70314Y-49842D01*
X70314Y-49842D02*
X70708Y-49448D01*
X70314Y-46614D02*
X70708Y-46614D01*
X70708Y-46614D02*
X70708Y-47008D01*
X67480Y-47008D02*
X67480Y-46614D01*
X67480Y-46614D02*
X67874Y-46614D01*
X67874Y-49842D02*
X67480Y-49842D01*
X67480Y-49842D02*
X67480Y-49448D01*
G54D11*
X70156Y-49178D02*
G75*
G03X70156Y-49178I-111J0D01*
G74*
G01*
X67188Y-54633D02*
X67188Y-54733D01*
X67188Y-54733D02*
X68088Y-54733D01*
X68088Y-54733D02*
X68088Y-54633D01*
X67188Y-54633D02*
X68088Y-54633D01*
X68088Y-54633D02*
X68088Y-53983D01*
X67188Y-53283D02*
X67188Y-52633D01*
X67188Y-52633D02*
X68088Y-52633D01*
X68088Y-52633D02*
X68088Y-53283D01*
X67188Y-53983D02*
X67188Y-54633D01*
X64629Y-54630D02*
X64629Y-54730D01*
X64629Y-54730D02*
X65529Y-54730D01*
X65529Y-54730D02*
X65529Y-54630D01*
X64629Y-54630D02*
X65529Y-54630D01*
X65529Y-54630D02*
X65529Y-53980D01*
X64629Y-53280D02*
X64629Y-52630D01*
X64629Y-52630D02*
X65529Y-52630D01*
X65529Y-52630D02*
X65529Y-53280D01*
X64629Y-53980D02*
X64629Y-54630D01*
G54D12*
X79610Y-53287D02*
X79610Y-54287D01*
X79610Y-54287D02*
X80610Y-54287D01*
X80610Y-54287D02*
X80610Y-53287D01*
X80610Y-53287D02*
X79610Y-53287D01*
X79610Y-53287D02*
X79610Y-52287D01*
X79610Y-52287D02*
X81610Y-52287D01*
X81610Y-52287D02*
X81610Y-54287D01*
X81610Y-54287D02*
X80610Y-54287D01*
X79328Y-52850D02*
X68328Y-52850D01*
X69328Y-54850D02*
X79328Y-54850D01*
X79328Y-52850D02*
X79328Y-54850D01*
X68328Y-52850D02*
X68328Y-53850D01*
X68328Y-54850D02*
X69328Y-54850D01*
X68328Y-53850D02*
X69328Y-53850D01*
X69328Y-53850D02*
X69328Y-54850D01*
X68328Y-54850D02*
X68328Y-53850D01*
X78336Y-51005D02*
X78336Y-51410D01*
X78356Y-51458D01*
X78375Y-51481D01*
X78413Y-51505D01*
X78489Y-51505D01*
X78527Y-51481D01*
X78546Y-51458D01*
X78565Y-51410D01*
X78565Y-51005D01*
X78965Y-51505D02*
X78736Y-51505D01*
X78851Y-51505D02*
X78851Y-51005D01*
X78813Y-51077D01*
X78775Y-51124D01*
X78736Y-51148D01*
G54D20*
X78313Y-52163D02*
X78304Y-52173D01*
X78276Y-52182D01*
X78257Y-52182D01*
X78229Y-52173D01*
X78210Y-52154D01*
X78201Y-52135D01*
X78191Y-52098D01*
X78191Y-52070D01*
X78201Y-52032D01*
X78210Y-52013D01*
X78229Y-51995D01*
X78257Y-51985D01*
X78276Y-51985D01*
X78304Y-51995D01*
X78313Y-52004D01*
X78379Y-51985D02*
X78510Y-51985D01*
X78426Y-52182D01*
X77549Y-52291D02*
X77549Y-52404D01*
X77549Y-52348D02*
X77352Y-52348D01*
X77380Y-52367D01*
X77399Y-52385D01*
X77409Y-52404D01*
X77352Y-52170D02*
X77352Y-52151D01*
X77362Y-52132D01*
X77371Y-52123D01*
X77390Y-52113D01*
X77427Y-52104D01*
X77474Y-52104D01*
X77512Y-52113D01*
X77530Y-52123D01*
X77540Y-52132D01*
X77549Y-52151D01*
X77549Y-52170D01*
X77540Y-52188D01*
X77530Y-52198D01*
X77512Y-52207D01*
X77474Y-52216D01*
X77427Y-52216D01*
X77390Y-52207D01*
X77371Y-52198D01*
X77362Y-52188D01*
X77352Y-52170D01*
X77418Y-52019D02*
X77549Y-52019D01*
X77437Y-52019D02*
X77427Y-52010D01*
X77418Y-51991D01*
X77418Y-51963D01*
X77427Y-51944D01*
X77446Y-51935D01*
X77549Y-51935D01*
X79329Y-46981D02*
X79338Y-46991D01*
X79347Y-47019D01*
X79347Y-47037D01*
X79338Y-47066D01*
X79319Y-47084D01*
X79301Y-47094D01*
X79263Y-47103D01*
X79235Y-47103D01*
X79197Y-47094D01*
X79179Y-47084D01*
X79160Y-47066D01*
X79150Y-47037D01*
X79150Y-47019D01*
X79160Y-46991D01*
X79169Y-46981D01*
X79235Y-46869D02*
X79226Y-46887D01*
X79216Y-46897D01*
X79197Y-46906D01*
X79188Y-46906D01*
X79169Y-46897D01*
X79160Y-46887D01*
X79150Y-46869D01*
X79150Y-46831D01*
X79160Y-46812D01*
X79169Y-46803D01*
X79188Y-46794D01*
X79197Y-46794D01*
X79216Y-46803D01*
X79226Y-46812D01*
X79235Y-46831D01*
X79235Y-46869D01*
X79244Y-46887D01*
X79254Y-46897D01*
X79272Y-46906D01*
X79310Y-46906D01*
X79329Y-46897D01*
X79338Y-46887D01*
X79347Y-46869D01*
X79347Y-46831D01*
X79338Y-46812D01*
X79329Y-46803D01*
X79310Y-46794D01*
X79272Y-46794D01*
X79254Y-46803D01*
X79244Y-46812D01*
X79235Y-46831D01*
X79597Y-47431D02*
X79485Y-47431D01*
X79541Y-47431D02*
X79541Y-47234D01*
X79522Y-47262D01*
X79503Y-47281D01*
X79485Y-47290D01*
X79719Y-47234D02*
X79738Y-47234D01*
X79757Y-47244D01*
X79766Y-47253D01*
X79776Y-47272D01*
X79785Y-47309D01*
X79785Y-47356D01*
X79776Y-47394D01*
X79766Y-47412D01*
X79757Y-47422D01*
X79738Y-47431D01*
X79719Y-47431D01*
X79700Y-47422D01*
X79691Y-47412D01*
X79682Y-47394D01*
X79672Y-47356D01*
X79672Y-47309D01*
X79682Y-47272D01*
X79691Y-47253D01*
X79700Y-47244D01*
X79719Y-47234D01*
X79869Y-47300D02*
X79869Y-47431D01*
X79869Y-47319D02*
X79879Y-47309D01*
X79897Y-47300D01*
X79926Y-47300D01*
X79944Y-47309D01*
X79954Y-47328D01*
X79954Y-47431D01*
X76054Y-44781D02*
X76045Y-44791D01*
X76016Y-44800D01*
X75998Y-44800D01*
X75970Y-44791D01*
X75951Y-44772D01*
X75941Y-44753D01*
X75932Y-44716D01*
X75932Y-44688D01*
X75941Y-44650D01*
X75951Y-44631D01*
X75970Y-44613D01*
X75998Y-44603D01*
X76016Y-44603D01*
X76045Y-44613D01*
X76054Y-44622D01*
X76242Y-44800D02*
X76129Y-44800D01*
X76185Y-44800D02*
X76185Y-44603D01*
X76167Y-44631D01*
X76148Y-44650D01*
X76129Y-44660D01*
X76364Y-44603D02*
X76382Y-44603D01*
X76401Y-44613D01*
X76410Y-44622D01*
X76420Y-44641D01*
X76429Y-44678D01*
X76429Y-44725D01*
X76420Y-44763D01*
X76410Y-44781D01*
X76401Y-44791D01*
X76382Y-44800D01*
X76364Y-44800D01*
X76345Y-44791D01*
X76335Y-44781D01*
X76326Y-44763D01*
X76317Y-44725D01*
X76317Y-44678D01*
X76326Y-44641D01*
X76335Y-44622D01*
X76345Y-44613D01*
X76364Y-44603D01*
X77156Y-44417D02*
X77156Y-44530D01*
X77156Y-44474D02*
X76959Y-44474D01*
X76987Y-44493D01*
X77005Y-44511D01*
X77015Y-44530D01*
X76959Y-44296D02*
X76959Y-44277D01*
X76968Y-44258D01*
X76977Y-44249D01*
X76996Y-44239D01*
X77034Y-44230D01*
X77081Y-44230D01*
X77118Y-44239D01*
X77137Y-44249D01*
X77146Y-44258D01*
X77156Y-44277D01*
X77156Y-44296D01*
X77146Y-44314D01*
X77137Y-44324D01*
X77118Y-44333D01*
X77081Y-44342D01*
X77034Y-44342D01*
X76996Y-44333D01*
X76977Y-44324D01*
X76968Y-44314D01*
X76959Y-44296D01*
X77024Y-44145D02*
X77156Y-44145D01*
X77043Y-44145D02*
X77034Y-44136D01*
X77024Y-44117D01*
X77024Y-44089D01*
X77034Y-44070D01*
X77052Y-44061D01*
X77156Y-44061D01*
X71920Y-51671D02*
X71911Y-51681D01*
X71883Y-51690D01*
X71864Y-51690D01*
X71836Y-51681D01*
X71817Y-51662D01*
X71808Y-51643D01*
X71798Y-51606D01*
X71798Y-51577D01*
X71808Y-51540D01*
X71817Y-51521D01*
X71836Y-51502D01*
X71864Y-51493D01*
X71883Y-51493D01*
X71911Y-51502D01*
X71920Y-51512D01*
X72108Y-51690D02*
X71995Y-51690D01*
X72051Y-51690D02*
X72051Y-51493D01*
X72033Y-51521D01*
X72014Y-51540D01*
X71995Y-51549D01*
X72295Y-51690D02*
X72183Y-51690D01*
X72239Y-51690D02*
X72239Y-51493D01*
X72220Y-51521D01*
X72202Y-51540D01*
X72183Y-51549D01*
X71841Y-51209D02*
X71841Y-51321D01*
X71841Y-51265D02*
X71644Y-51265D01*
X71672Y-51284D01*
X71690Y-51303D01*
X71700Y-51321D01*
X71644Y-51087D02*
X71644Y-51068D01*
X71653Y-51049D01*
X71662Y-51040D01*
X71681Y-51031D01*
X71719Y-51021D01*
X71766Y-51021D01*
X71803Y-51031D01*
X71822Y-51040D01*
X71831Y-51049D01*
X71841Y-51068D01*
X71841Y-51087D01*
X71831Y-51106D01*
X71822Y-51115D01*
X71803Y-51124D01*
X71766Y-51134D01*
X71719Y-51134D01*
X71681Y-51124D01*
X71662Y-51115D01*
X71653Y-51106D01*
X71644Y-51087D01*
X71709Y-50937D02*
X71841Y-50937D01*
X71728Y-50937D02*
X71719Y-50927D01*
X71709Y-50909D01*
X71709Y-50880D01*
X71719Y-50862D01*
X71737Y-50852D01*
X71841Y-50852D01*
X74873Y-44827D02*
X74863Y-44836D01*
X74835Y-44846D01*
X74817Y-44846D01*
X74788Y-44836D01*
X74770Y-44817D01*
X74760Y-44799D01*
X74751Y-44761D01*
X74751Y-44733D01*
X74760Y-44695D01*
X74770Y-44677D01*
X74788Y-44658D01*
X74817Y-44649D01*
X74835Y-44649D01*
X74863Y-44658D01*
X74873Y-44667D01*
X75060Y-44846D02*
X74948Y-44846D01*
X75004Y-44846D02*
X75004Y-44649D01*
X74985Y-44677D01*
X74967Y-44695D01*
X74948Y-44705D01*
X75136Y-44667D02*
X75145Y-44658D01*
X75164Y-44649D01*
X75211Y-44649D01*
X75229Y-44658D01*
X75239Y-44667D01*
X75248Y-44686D01*
X75248Y-44705D01*
X75239Y-44733D01*
X75126Y-44846D01*
X75248Y-44846D01*
X74203Y-44417D02*
X74203Y-44530D01*
X74203Y-44474D02*
X74006Y-44474D01*
X74034Y-44493D01*
X74053Y-44511D01*
X74062Y-44530D01*
X74006Y-44296D02*
X74006Y-44277D01*
X74015Y-44258D01*
X74025Y-44249D01*
X74043Y-44239D01*
X74081Y-44230D01*
X74128Y-44230D01*
X74165Y-44239D01*
X74184Y-44249D01*
X74193Y-44258D01*
X74203Y-44277D01*
X74203Y-44296D01*
X74193Y-44314D01*
X74184Y-44324D01*
X74165Y-44333D01*
X74128Y-44342D01*
X74081Y-44342D01*
X74043Y-44333D01*
X74025Y-44324D01*
X74015Y-44314D01*
X74006Y-44296D01*
X74071Y-44145D02*
X74203Y-44145D01*
X74090Y-44145D02*
X74081Y-44136D01*
X74071Y-44117D01*
X74071Y-44089D01*
X74081Y-44070D01*
X74100Y-44061D01*
X74203Y-44061D01*
X80116Y-49732D02*
X80125Y-49742D01*
X80135Y-49770D01*
X80135Y-49789D01*
X80125Y-49817D01*
X80107Y-49836D01*
X80088Y-49845D01*
X80050Y-49854D01*
X80022Y-49854D01*
X79985Y-49845D01*
X79966Y-49836D01*
X79947Y-49817D01*
X79938Y-49789D01*
X79938Y-49770D01*
X79947Y-49742D01*
X79957Y-49732D01*
X80135Y-49545D02*
X80135Y-49657D01*
X80135Y-49601D02*
X79938Y-49601D01*
X79966Y-49620D01*
X79985Y-49639D01*
X79994Y-49657D01*
X80004Y-49376D02*
X80135Y-49376D01*
X79928Y-49423D02*
X80069Y-49470D01*
X80069Y-49348D01*
X79400Y-49990D02*
X79288Y-49990D01*
X79344Y-49990D02*
X79344Y-49793D01*
X79325Y-49821D01*
X79307Y-49840D01*
X79288Y-49849D01*
X79522Y-49793D02*
X79541Y-49793D01*
X79560Y-49803D01*
X79569Y-49812D01*
X79579Y-49831D01*
X79588Y-49868D01*
X79588Y-49915D01*
X79579Y-49953D01*
X79569Y-49971D01*
X79560Y-49981D01*
X79541Y-49990D01*
X79522Y-49990D01*
X79504Y-49981D01*
X79494Y-49971D01*
X79485Y-49953D01*
X79475Y-49915D01*
X79475Y-49868D01*
X79485Y-49831D01*
X79494Y-49812D01*
X79504Y-49803D01*
X79522Y-49793D01*
X79672Y-49859D02*
X79672Y-49990D01*
X79672Y-49878D02*
X79682Y-49868D01*
X79701Y-49859D01*
X79729Y-49859D01*
X79748Y-49868D01*
X79757Y-49887D01*
X79757Y-49990D01*
X79374Y-44319D02*
X79383Y-44328D01*
X79393Y-44357D01*
X79393Y-44375D01*
X79383Y-44403D01*
X79365Y-44422D01*
X79346Y-44432D01*
X79308Y-44441D01*
X79280Y-44441D01*
X79243Y-44432D01*
X79224Y-44422D01*
X79205Y-44403D01*
X79196Y-44375D01*
X79196Y-44357D01*
X79205Y-44328D01*
X79215Y-44319D01*
X79393Y-44131D02*
X79393Y-44244D01*
X79393Y-44188D02*
X79196Y-44188D01*
X79224Y-44206D01*
X79243Y-44225D01*
X79252Y-44244D01*
X79196Y-43963D02*
X79196Y-44000D01*
X79205Y-44019D01*
X79215Y-44028D01*
X79243Y-44047D01*
X79280Y-44056D01*
X79355Y-44056D01*
X79374Y-44047D01*
X79383Y-44038D01*
X79393Y-44019D01*
X79393Y-43981D01*
X79383Y-43963D01*
X79374Y-43953D01*
X79355Y-43944D01*
X79308Y-43944D01*
X79290Y-43953D01*
X79280Y-43963D01*
X79271Y-43981D01*
X79271Y-44019D01*
X79280Y-44038D01*
X79290Y-44047D01*
X79308Y-44056D01*
X78613Y-44675D02*
X78500Y-44675D01*
X78557Y-44675D02*
X78557Y-44478D01*
X78538Y-44506D01*
X78519Y-44525D01*
X78500Y-44535D01*
X78735Y-44478D02*
X78754Y-44478D01*
X78772Y-44488D01*
X78782Y-44497D01*
X78791Y-44516D01*
X78801Y-44553D01*
X78801Y-44600D01*
X78791Y-44638D01*
X78782Y-44656D01*
X78772Y-44666D01*
X78754Y-44675D01*
X78735Y-44675D01*
X78716Y-44666D01*
X78707Y-44656D01*
X78697Y-44638D01*
X78688Y-44600D01*
X78688Y-44553D01*
X78697Y-44516D01*
X78707Y-44497D01*
X78716Y-44488D01*
X78735Y-44478D01*
X78885Y-44544D02*
X78885Y-44675D01*
X78885Y-44563D02*
X78894Y-44553D01*
X78913Y-44544D01*
X78941Y-44544D01*
X78960Y-44553D01*
X78969Y-44572D01*
X78969Y-44675D01*
X66211Y-49604D02*
X66202Y-49614D01*
X66174Y-49623D01*
X66155Y-49623D01*
X66127Y-49614D01*
X66108Y-49595D01*
X66099Y-49576D01*
X66089Y-49539D01*
X66089Y-49510D01*
X66099Y-49473D01*
X66108Y-49454D01*
X66127Y-49435D01*
X66155Y-49426D01*
X66174Y-49426D01*
X66202Y-49435D01*
X66211Y-49445D01*
X66399Y-49623D02*
X66286Y-49623D01*
X66343Y-49623D02*
X66343Y-49426D01*
X66324Y-49454D01*
X66305Y-49473D01*
X66286Y-49482D01*
X66465Y-49426D02*
X66596Y-49426D01*
X66512Y-49623D01*
X66132Y-49236D02*
X66132Y-49348D01*
X66132Y-49292D02*
X65935Y-49292D01*
X65963Y-49311D01*
X65982Y-49330D01*
X65991Y-49348D01*
X65935Y-49114D02*
X65935Y-49095D01*
X65944Y-49076D01*
X65954Y-49067D01*
X65972Y-49057D01*
X66010Y-49048D01*
X66057Y-49048D01*
X66094Y-49057D01*
X66113Y-49067D01*
X66123Y-49076D01*
X66132Y-49095D01*
X66132Y-49114D01*
X66123Y-49133D01*
X66113Y-49142D01*
X66094Y-49151D01*
X66057Y-49161D01*
X66010Y-49161D01*
X65972Y-49151D01*
X65954Y-49142D01*
X65944Y-49133D01*
X65935Y-49114D01*
X65935Y-48926D02*
X65935Y-48907D01*
X65944Y-48889D01*
X65954Y-48879D01*
X65972Y-48870D01*
X66010Y-48860D01*
X66057Y-48860D01*
X66094Y-48870D01*
X66113Y-48879D01*
X66123Y-48889D01*
X66132Y-48907D01*
X66132Y-48926D01*
X66123Y-48945D01*
X66113Y-48954D01*
X66094Y-48964D01*
X66057Y-48973D01*
X66010Y-48973D01*
X65972Y-48964D01*
X65954Y-48954D01*
X65944Y-48945D01*
X65935Y-48926D01*
X66001Y-48776D02*
X66132Y-48776D01*
X66019Y-48776D02*
X66010Y-48767D01*
X66001Y-48748D01*
X66001Y-48720D01*
X66010Y-48701D01*
X66029Y-48692D01*
X66132Y-48692D01*
X66310Y-51421D02*
X66300Y-51431D01*
X66272Y-51440D01*
X66254Y-51440D01*
X66225Y-51431D01*
X66207Y-51412D01*
X66197Y-51393D01*
X66188Y-51356D01*
X66188Y-51327D01*
X66197Y-51290D01*
X66207Y-51271D01*
X66225Y-51252D01*
X66254Y-51243D01*
X66272Y-51243D01*
X66300Y-51252D01*
X66310Y-51262D01*
X66497Y-51440D02*
X66385Y-51440D01*
X66441Y-51440D02*
X66441Y-51243D01*
X66422Y-51271D01*
X66404Y-51290D01*
X66385Y-51299D01*
X66610Y-51327D02*
X66591Y-51318D01*
X66582Y-51309D01*
X66573Y-51290D01*
X66573Y-51281D01*
X66582Y-51262D01*
X66591Y-51252D01*
X66610Y-51243D01*
X66648Y-51243D01*
X66666Y-51252D01*
X66676Y-51262D01*
X66685Y-51281D01*
X66685Y-51290D01*
X66676Y-51309D01*
X66666Y-51318D01*
X66648Y-51327D01*
X66610Y-51327D01*
X66591Y-51337D01*
X66582Y-51346D01*
X66573Y-51365D01*
X66573Y-51402D01*
X66582Y-51421D01*
X66591Y-51431D01*
X66610Y-51440D01*
X66648Y-51440D01*
X66666Y-51431D01*
X66676Y-51421D01*
X66685Y-51402D01*
X66685Y-51365D01*
X66676Y-51346D01*
X66666Y-51337D01*
X66648Y-51327D01*
X66216Y-50581D02*
X66103Y-50581D01*
X66160Y-50581D02*
X66160Y-50384D01*
X66141Y-50412D01*
X66122Y-50431D01*
X66103Y-50440D01*
X66338Y-50384D02*
X66357Y-50384D01*
X66376Y-50393D01*
X66385Y-50403D01*
X66394Y-50421D01*
X66404Y-50459D01*
X66404Y-50506D01*
X66394Y-50543D01*
X66385Y-50562D01*
X66376Y-50571D01*
X66357Y-50581D01*
X66338Y-50581D01*
X66319Y-50571D01*
X66310Y-50562D01*
X66300Y-50543D01*
X66291Y-50506D01*
X66291Y-50459D01*
X66300Y-50421D01*
X66310Y-50403D01*
X66319Y-50393D01*
X66338Y-50384D01*
X66526Y-50384D02*
X66544Y-50384D01*
X66563Y-50393D01*
X66573Y-50403D01*
X66582Y-50421D01*
X66591Y-50459D01*
X66591Y-50506D01*
X66582Y-50543D01*
X66573Y-50562D01*
X66563Y-50571D01*
X66544Y-50581D01*
X66526Y-50581D01*
X66507Y-50571D01*
X66497Y-50562D01*
X66488Y-50543D01*
X66479Y-50506D01*
X66479Y-50459D01*
X66488Y-50421D01*
X66497Y-50403D01*
X66507Y-50393D01*
X66526Y-50384D01*
X66676Y-50449D02*
X66676Y-50581D01*
X66676Y-50468D02*
X66685Y-50459D01*
X66704Y-50449D01*
X66732Y-50449D01*
X66751Y-50459D01*
X66760Y-50478D01*
X66760Y-50581D01*
X70739Y-45569D02*
X70730Y-45578D01*
X70701Y-45588D01*
X70683Y-45588D01*
X70655Y-45578D01*
X70636Y-45559D01*
X70626Y-45541D01*
X70617Y-45503D01*
X70617Y-45475D01*
X70626Y-45438D01*
X70636Y-45419D01*
X70655Y-45400D01*
X70683Y-45391D01*
X70701Y-45391D01*
X70730Y-45400D01*
X70739Y-45409D01*
X70927Y-45588D02*
X70814Y-45588D01*
X70870Y-45588D02*
X70870Y-45391D01*
X70852Y-45419D01*
X70833Y-45438D01*
X70814Y-45447D01*
X71020Y-45588D02*
X71058Y-45588D01*
X71077Y-45578D01*
X71086Y-45569D01*
X71105Y-45541D01*
X71114Y-45503D01*
X71114Y-45428D01*
X71105Y-45409D01*
X71095Y-45400D01*
X71077Y-45391D01*
X71039Y-45391D01*
X71020Y-45400D01*
X71011Y-45409D01*
X71002Y-45428D01*
X71002Y-45475D01*
X71011Y-45494D01*
X71020Y-45503D01*
X71039Y-45513D01*
X71077Y-45513D01*
X71095Y-45503D01*
X71105Y-45494D01*
X71114Y-45475D01*
X70739Y-46348D02*
X70626Y-46348D01*
X70683Y-46348D02*
X70683Y-46151D01*
X70664Y-46180D01*
X70645Y-46198D01*
X70626Y-46208D01*
X70861Y-46151D02*
X70880Y-46151D01*
X70898Y-46161D01*
X70908Y-46170D01*
X70917Y-46189D01*
X70927Y-46227D01*
X70927Y-46273D01*
X70917Y-46311D01*
X70908Y-46330D01*
X70898Y-46339D01*
X70880Y-46348D01*
X70861Y-46348D01*
X70842Y-46339D01*
X70833Y-46330D01*
X70823Y-46311D01*
X70814Y-46273D01*
X70814Y-46227D01*
X70823Y-46189D01*
X70833Y-46170D01*
X70842Y-46161D01*
X70861Y-46151D01*
X71011Y-46217D02*
X71011Y-46348D01*
X71011Y-46236D02*
X71020Y-46227D01*
X71039Y-46217D01*
X71067Y-46217D01*
X71086Y-46227D01*
X71095Y-46245D01*
X71095Y-46348D01*
X66087Y-47469D02*
X66096Y-47478D01*
X66105Y-47506D01*
X66105Y-47525D01*
X66096Y-47553D01*
X66077Y-47572D01*
X66058Y-47581D01*
X66021Y-47591D01*
X65993Y-47591D01*
X65955Y-47581D01*
X65936Y-47572D01*
X65918Y-47553D01*
X65908Y-47525D01*
X65908Y-47506D01*
X65918Y-47478D01*
X65927Y-47469D01*
X65927Y-47394D02*
X65918Y-47384D01*
X65908Y-47365D01*
X65908Y-47319D01*
X65918Y-47300D01*
X65927Y-47290D01*
X65946Y-47281D01*
X65965Y-47281D01*
X65993Y-47290D01*
X66105Y-47403D01*
X66105Y-47281D01*
X65908Y-47159D02*
X65908Y-47140D01*
X65918Y-47122D01*
X65927Y-47112D01*
X65946Y-47103D01*
X65983Y-47093D01*
X66030Y-47093D01*
X66068Y-47103D01*
X66087Y-47112D01*
X66096Y-47122D01*
X66105Y-47140D01*
X66105Y-47159D01*
X66096Y-47178D01*
X66087Y-47187D01*
X66068Y-47197D01*
X66030Y-47206D01*
X65983Y-47206D01*
X65946Y-47197D01*
X65927Y-47187D01*
X65918Y-47178D01*
X65908Y-47159D01*
X66314Y-47825D02*
X66202Y-47825D01*
X66258Y-47825D02*
X66258Y-47628D01*
X66239Y-47656D01*
X66221Y-47675D01*
X66202Y-47684D01*
X66436Y-47628D02*
X66455Y-47628D01*
X66474Y-47637D01*
X66483Y-47647D01*
X66493Y-47665D01*
X66502Y-47703D01*
X66502Y-47750D01*
X66493Y-47787D01*
X66483Y-47806D01*
X66474Y-47815D01*
X66455Y-47825D01*
X66436Y-47825D01*
X66418Y-47815D01*
X66408Y-47806D01*
X66399Y-47787D01*
X66390Y-47750D01*
X66390Y-47703D01*
X66399Y-47665D01*
X66408Y-47647D01*
X66418Y-47637D01*
X66436Y-47628D01*
X66624Y-47628D02*
X66643Y-47628D01*
X66662Y-47637D01*
X66671Y-47647D01*
X66680Y-47665D01*
X66690Y-47703D01*
X66690Y-47750D01*
X66680Y-47787D01*
X66671Y-47806D01*
X66662Y-47815D01*
X66643Y-47825D01*
X66624Y-47825D01*
X66605Y-47815D01*
X66596Y-47806D01*
X66587Y-47787D01*
X66577Y-47750D01*
X66577Y-47703D01*
X66587Y-47665D01*
X66596Y-47647D01*
X66605Y-47637D01*
X66624Y-47628D01*
X66774Y-47694D02*
X66774Y-47825D01*
X66774Y-47712D02*
X66784Y-47703D01*
X66802Y-47694D01*
X66830Y-47694D01*
X66849Y-47703D01*
X66859Y-47722D01*
X66859Y-47825D01*
G54D11*
X65894Y-53875D02*
X65752Y-53875D01*
X65752Y-53575D01*
X66152Y-53875D02*
X65980Y-53875D01*
X66066Y-53875D02*
X66066Y-53575D01*
X66037Y-53618D01*
X66009Y-53647D01*
X65980Y-53661D01*
G54D20*
X67367Y-51416D02*
X67302Y-51323D01*
X67255Y-51416D02*
X67255Y-51219D01*
X67330Y-51219D01*
X67349Y-51229D01*
X67358Y-51238D01*
X67367Y-51257D01*
X67367Y-51285D01*
X67358Y-51304D01*
X67349Y-51313D01*
X67330Y-51323D01*
X67255Y-51323D01*
X67555Y-51416D02*
X67443Y-51416D01*
X67499Y-51416D02*
X67499Y-51219D01*
X67480Y-51248D01*
X67461Y-51266D01*
X67443Y-51276D01*
X66971Y-50384D02*
X67093Y-50384D01*
X67027Y-50459D01*
X67055Y-50459D01*
X67074Y-50468D01*
X67083Y-50478D01*
X67093Y-50496D01*
X67093Y-50543D01*
X67083Y-50562D01*
X67074Y-50571D01*
X67055Y-50581D01*
X66999Y-50581D01*
X66980Y-50571D01*
X66971Y-50562D01*
X67261Y-50449D02*
X67261Y-50581D01*
X67215Y-50374D02*
X67168Y-50515D01*
X67290Y-50515D01*
X67393Y-50468D02*
X67374Y-50459D01*
X67365Y-50449D01*
X67355Y-50431D01*
X67355Y-50421D01*
X67365Y-50403D01*
X67374Y-50393D01*
X67393Y-50384D01*
X67430Y-50384D01*
X67449Y-50393D01*
X67458Y-50403D01*
X67468Y-50421D01*
X67468Y-50431D01*
X67458Y-50449D01*
X67449Y-50459D01*
X67430Y-50468D01*
X67393Y-50468D01*
X67374Y-50478D01*
X67365Y-50487D01*
X67355Y-50506D01*
X67355Y-50543D01*
X67365Y-50562D01*
X67374Y-50571D01*
X67393Y-50581D01*
X67430Y-50581D01*
X67449Y-50571D01*
X67458Y-50562D01*
X67468Y-50543D01*
X67468Y-50506D01*
X67458Y-50487D01*
X67449Y-50478D01*
X67430Y-50468D01*
X65371Y-50426D02*
X65277Y-50492D01*
X65371Y-50539D02*
X65174Y-50539D01*
X65174Y-50464D01*
X65183Y-50445D01*
X65193Y-50435D01*
X65212Y-50426D01*
X65240Y-50426D01*
X65259Y-50435D01*
X65268Y-50445D01*
X65277Y-50464D01*
X65277Y-50539D01*
X65193Y-50351D02*
X65183Y-50342D01*
X65174Y-50323D01*
X65174Y-50276D01*
X65183Y-50257D01*
X65193Y-50248D01*
X65212Y-50238D01*
X65230Y-50238D01*
X65259Y-50248D01*
X65371Y-50360D01*
X65371Y-50238D01*
X64604Y-50679D02*
X64735Y-50679D01*
X64651Y-50876D01*
X64904Y-50679D02*
X64810Y-50679D01*
X64801Y-50773D01*
X64810Y-50763D01*
X64829Y-50754D01*
X64876Y-50754D01*
X64895Y-50763D01*
X64904Y-50773D01*
X64913Y-50792D01*
X64913Y-50838D01*
X64904Y-50857D01*
X64895Y-50867D01*
X64876Y-50876D01*
X64829Y-50876D01*
X64810Y-50867D01*
X64801Y-50857D01*
X65416Y-48556D02*
X65323Y-48622D01*
X65416Y-48669D02*
X65219Y-48669D01*
X65219Y-48593D01*
X65229Y-48575D01*
X65238Y-48565D01*
X65257Y-48556D01*
X65285Y-48556D01*
X65304Y-48565D01*
X65313Y-48575D01*
X65323Y-48593D01*
X65323Y-48669D01*
X65219Y-48490D02*
X65219Y-48368D01*
X65294Y-48434D01*
X65294Y-48406D01*
X65304Y-48387D01*
X65313Y-48378D01*
X65332Y-48368D01*
X65379Y-48368D01*
X65398Y-48378D01*
X65407Y-48387D01*
X65416Y-48406D01*
X65416Y-48462D01*
X65407Y-48481D01*
X65398Y-48490D01*
X64604Y-48809D02*
X64735Y-48809D01*
X64651Y-49006D01*
X64904Y-48809D02*
X64810Y-48809D01*
X64801Y-48903D01*
X64810Y-48893D01*
X64829Y-48884D01*
X64876Y-48884D01*
X64895Y-48893D01*
X64904Y-48903D01*
X64913Y-48922D01*
X64913Y-48968D01*
X64904Y-48987D01*
X64895Y-48997D01*
X64876Y-49006D01*
X64829Y-49006D01*
X64810Y-48997D01*
X64801Y-48987D01*
X65371Y-47178D02*
X65277Y-47244D01*
X65371Y-47291D02*
X65174Y-47291D01*
X65174Y-47216D01*
X65183Y-47197D01*
X65193Y-47187D01*
X65212Y-47178D01*
X65240Y-47178D01*
X65259Y-47187D01*
X65268Y-47197D01*
X65277Y-47216D01*
X65277Y-47291D01*
X65240Y-47009D02*
X65371Y-47009D01*
X65165Y-47056D02*
X65305Y-47103D01*
X65305Y-46981D01*
X64604Y-47431D02*
X64735Y-47431D01*
X64651Y-47628D01*
X64904Y-47431D02*
X64810Y-47431D01*
X64801Y-47525D01*
X64810Y-47515D01*
X64829Y-47506D01*
X64876Y-47506D01*
X64895Y-47515D01*
X64904Y-47525D01*
X64913Y-47544D01*
X64913Y-47590D01*
X64904Y-47609D01*
X64895Y-47619D01*
X64876Y-47628D01*
X64829Y-47628D01*
X64810Y-47619D01*
X64801Y-47609D01*
X79691Y-51277D02*
X79625Y-51183D01*
X79579Y-51277D02*
X79579Y-51080D01*
X79654Y-51080D01*
X79672Y-51089D01*
X79682Y-51098D01*
X79691Y-51117D01*
X79691Y-51145D01*
X79682Y-51164D01*
X79672Y-51173D01*
X79654Y-51183D01*
X79579Y-51183D01*
X79869Y-51080D02*
X79776Y-51080D01*
X79766Y-51173D01*
X79776Y-51164D01*
X79794Y-51155D01*
X79841Y-51155D01*
X79860Y-51164D01*
X79869Y-51173D01*
X79879Y-51192D01*
X79879Y-51239D01*
X79869Y-51258D01*
X79860Y-51267D01*
X79841Y-51277D01*
X79794Y-51277D01*
X79776Y-51267D01*
X79766Y-51258D01*
X79714Y-51813D02*
X79714Y-51681D01*
X79911Y-51766D01*
X79714Y-51512D02*
X79714Y-51606D01*
X79808Y-51616D01*
X79799Y-51606D01*
X79790Y-51587D01*
X79790Y-51540D01*
X79799Y-51522D01*
X79808Y-51512D01*
X79827Y-51503D01*
X79874Y-51503D01*
X79893Y-51512D01*
X79902Y-51522D01*
X79911Y-51540D01*
X79911Y-51587D01*
X79902Y-51606D01*
X79893Y-51616D01*
G54D19*
X67294Y-46491D02*
X67294Y-46730D01*
X67308Y-46758D01*
X67323Y-46772D01*
X67351Y-46786D01*
X67407Y-46786D01*
X67435Y-46772D01*
X67449Y-46758D01*
X67463Y-46730D01*
X67463Y-46491D01*
X67589Y-46520D02*
X67603Y-46506D01*
X67632Y-46491D01*
X67702Y-46491D01*
X67730Y-46506D01*
X67744Y-46520D01*
X67758Y-46548D01*
X67758Y-46576D01*
X67744Y-46618D01*
X67575Y-46786D01*
X67758Y-46786D01*
G54D11*
X67568Y-52469D02*
X67553Y-52483D01*
X67510Y-52497D01*
X67482Y-52497D01*
X67439Y-52483D01*
X67410Y-52455D01*
X67396Y-52426D01*
X67382Y-52369D01*
X67382Y-52326D01*
X67396Y-52269D01*
X67410Y-52240D01*
X67439Y-52212D01*
X67482Y-52197D01*
X67510Y-52197D01*
X67553Y-52212D01*
X67568Y-52226D01*
X67825Y-52197D02*
X67768Y-52197D01*
X67739Y-52212D01*
X67725Y-52226D01*
X67696Y-52269D01*
X67682Y-52326D01*
X67682Y-52440D01*
X67696Y-52469D01*
X67710Y-52483D01*
X67739Y-52497D01*
X67796Y-52497D01*
X67825Y-52483D01*
X67839Y-52469D01*
X67853Y-52440D01*
X67853Y-52369D01*
X67839Y-52340D01*
X67825Y-52326D01*
X67796Y-52312D01*
X67739Y-52312D01*
X67710Y-52326D01*
X67696Y-52340D01*
X67682Y-52369D01*
X67416Y-53756D02*
X67245Y-53756D01*
X67331Y-53756D02*
X67331Y-53456D01*
X67302Y-53499D01*
X67274Y-53528D01*
X67245Y-53542D01*
X67602Y-53456D02*
X67631Y-53456D01*
X67659Y-53470D01*
X67674Y-53485D01*
X67688Y-53513D01*
X67702Y-53570D01*
X67702Y-53642D01*
X67688Y-53699D01*
X67674Y-53728D01*
X67659Y-53742D01*
X67631Y-53756D01*
X67602Y-53756D01*
X67574Y-53742D01*
X67559Y-53728D01*
X67545Y-53699D01*
X67531Y-53642D01*
X67531Y-53570D01*
X67545Y-53513D01*
X67559Y-53485D01*
X67574Y-53470D01*
X67602Y-53456D01*
X67959Y-53556D02*
X67959Y-53756D01*
X67831Y-53556D02*
X67831Y-53713D01*
X67845Y-53742D01*
X67874Y-53756D01*
X67916Y-53756D01*
X67945Y-53742D01*
X67959Y-53728D01*
X64866Y-52469D02*
X64851Y-52483D01*
X64809Y-52497D01*
X64780Y-52497D01*
X64737Y-52483D01*
X64709Y-52455D01*
X64694Y-52426D01*
X64680Y-52369D01*
X64680Y-52326D01*
X64694Y-52269D01*
X64709Y-52240D01*
X64737Y-52212D01*
X64780Y-52197D01*
X64809Y-52197D01*
X64851Y-52212D01*
X64866Y-52226D01*
X64980Y-52226D02*
X64994Y-52212D01*
X65023Y-52197D01*
X65094Y-52197D01*
X65123Y-52212D01*
X65137Y-52226D01*
X65151Y-52255D01*
X65151Y-52283D01*
X65137Y-52326D01*
X64966Y-52497D01*
X65151Y-52497D01*
X65266Y-52226D02*
X65280Y-52212D01*
X65309Y-52197D01*
X65380Y-52197D01*
X65409Y-52212D01*
X65423Y-52226D01*
X65437Y-52255D01*
X65437Y-52283D01*
X65423Y-52326D01*
X65251Y-52497D01*
X65437Y-52497D01*
X64854Y-53757D02*
X64683Y-53757D01*
X64769Y-53757D02*
X64769Y-53457D01*
X64740Y-53500D01*
X64711Y-53528D01*
X64683Y-53543D01*
X65040Y-53457D02*
X65069Y-53457D01*
X65097Y-53471D01*
X65111Y-53485D01*
X65126Y-53514D01*
X65140Y-53571D01*
X65140Y-53643D01*
X65126Y-53700D01*
X65111Y-53728D01*
X65097Y-53743D01*
X65069Y-53757D01*
X65040Y-53757D01*
X65011Y-53743D01*
X64997Y-53728D01*
X64983Y-53700D01*
X64969Y-53643D01*
X64969Y-53571D01*
X64983Y-53514D01*
X64997Y-53485D01*
X65011Y-53471D01*
X65040Y-53457D01*
X65397Y-53557D02*
X65397Y-53757D01*
X65269Y-53557D02*
X65269Y-53714D01*
X65283Y-53743D01*
X65311Y-53757D01*
X65354Y-53757D01*
X65383Y-53743D01*
X65397Y-53728D01*
G54D15*
X73459Y-52576D02*
X73459Y-52076D01*
X73650Y-52076D01*
X73697Y-52100D01*
X73721Y-52123D01*
X73745Y-52171D01*
X73745Y-52242D01*
X73721Y-52290D01*
X73697Y-52314D01*
X73650Y-52338D01*
X73459Y-52338D01*
X74221Y-52576D02*
X73935Y-52576D01*
X74078Y-52576D02*
X74078Y-52076D01*
X74031Y-52147D01*
X73983Y-52195D01*
X73935Y-52219D01*
M02*
