%FSLAX34Y34*%
G04 Gerber Fmt 3.4, Leading zero omitted, Abs format*
G04 (created by PCBNEW (2014-06-26 BZR 4956)-product) date 03/07/2014 22:05:42*
%MOIN*%
G01*
G70*
G90*
G04 APERTURE LIST*
%ADD10C,0.003937*%
%ADD11R,0.055000X0.055000*%
%ADD12C,0.055000*%
%ADD13R,0.068000X0.068000*%
%ADD14O,0.068000X0.068000*%
%ADD15C,0.078700*%
%ADD16C,0.050000*%
%ADD17C,0.010000*%
G04 APERTURE END LIST*
G54D10*
G54D11*
X63681Y-51220D03*
G54D12*
X63681Y-50220D03*
X63681Y-49220D03*
X63681Y-48220D03*
X63681Y-47220D03*
G54D11*
X66952Y-44192D03*
G54D12*
X65952Y-44192D03*
X64952Y-44192D03*
X63952Y-44192D03*
G54D11*
X80905Y-50531D03*
G54D12*
X80905Y-49531D03*
X80905Y-48531D03*
X80905Y-47531D03*
X80905Y-46531D03*
X80905Y-45531D03*
G54D13*
X80110Y-53787D03*
G54D14*
X80110Y-52787D03*
X81110Y-53787D03*
X81110Y-52787D03*
G54D15*
X76476Y-47381D03*
X76574Y-50137D03*
X77854Y-50137D03*
X76574Y-49153D03*
G54D13*
X68828Y-54350D03*
G54D14*
X68828Y-53350D03*
X69828Y-54350D03*
X69828Y-53350D03*
X70828Y-54350D03*
X70828Y-53350D03*
X71828Y-54350D03*
X71828Y-53350D03*
X72828Y-54350D03*
X72828Y-53350D03*
X73828Y-54350D03*
X73828Y-53350D03*
X74828Y-54350D03*
X74828Y-53350D03*
X75828Y-54350D03*
X75828Y-53350D03*
X76828Y-54350D03*
X76828Y-53350D03*
X77828Y-54350D03*
X77828Y-53350D03*
X78828Y-54350D03*
X78828Y-53350D03*
G54D16*
X74507Y-50590D03*
X67224Y-51870D03*
X66338Y-53444D03*
X76586Y-52141D03*
X70078Y-49212D03*
X66535Y-46850D03*
X68208Y-50492D03*
X73129Y-49507D03*
X73818Y-46948D03*
X80413Y-48031D03*
X76082Y-44291D03*
X79429Y-45275D03*
X79140Y-50878D03*
X70767Y-51377D03*
X71571Y-45744D03*
X75098Y-44291D03*
X63779Y-53444D03*
X65452Y-49704D03*
X65649Y-48031D03*
X71530Y-46348D03*
X78740Y-51653D03*
X77156Y-50698D03*
X68056Y-47497D03*
X76585Y-45841D03*
X77336Y-46203D03*
X77755Y-46653D03*
X77755Y-47342D03*
X70070Y-48033D03*
X75027Y-45767D03*
X69501Y-48093D03*
X75397Y-46358D03*
X68931Y-48201D03*
X75787Y-45767D03*
X68432Y-47925D03*
X76221Y-46300D03*
X73830Y-46258D03*
X69881Y-45767D03*
X69980Y-47244D03*
X74218Y-45773D03*
X69412Y-47363D03*
X74657Y-46355D03*
X80019Y-45472D03*
X80348Y-47053D03*
X78346Y-52559D03*
X73228Y-45964D03*
X73129Y-44291D03*
X78051Y-44586D03*
X73720Y-50590D03*
X79527Y-48917D03*
X77751Y-49248D03*
X77263Y-48622D03*
X77854Y-48523D03*
X77854Y-47933D03*
G54D17*
G36*
X81600Y-55025D02*
X79430Y-55025D01*
X79430Y-54350D01*
X79385Y-54124D01*
X79257Y-53932D01*
X79133Y-53850D01*
X79257Y-53767D01*
X79385Y-53575D01*
X79430Y-53350D01*
X79385Y-53124D01*
X79257Y-52932D01*
X79066Y-52804D01*
X78840Y-52760D01*
X78817Y-52760D01*
X78803Y-52762D01*
X78846Y-52658D01*
X78846Y-52460D01*
X78770Y-52276D01*
X78648Y-52153D01*
X78839Y-52153D01*
X79023Y-52077D01*
X79163Y-51937D01*
X79240Y-51753D01*
X79240Y-51554D01*
X79164Y-51370D01*
X79023Y-51229D01*
X78840Y-51153D01*
X78641Y-51153D01*
X78551Y-51190D01*
X78551Y-44487D01*
X78475Y-44303D01*
X78334Y-44162D01*
X78151Y-44086D01*
X77952Y-44086D01*
X77768Y-44162D01*
X77627Y-44303D01*
X77551Y-44486D01*
X77551Y-44685D01*
X77627Y-44869D01*
X77767Y-45010D01*
X77951Y-45086D01*
X78150Y-45086D01*
X78334Y-45010D01*
X78474Y-44870D01*
X78551Y-44686D01*
X78551Y-44487D01*
X78551Y-51190D01*
X78497Y-51212D01*
X78497Y-50010D01*
X78400Y-49773D01*
X78219Y-49592D01*
X78145Y-49561D01*
X78175Y-49531D01*
X78251Y-49348D01*
X78251Y-49149D01*
X78175Y-48965D01*
X78147Y-48937D01*
X78277Y-48807D01*
X78354Y-48623D01*
X78354Y-48424D01*
X78278Y-48240D01*
X78266Y-48228D01*
X78277Y-48216D01*
X78354Y-48032D01*
X78354Y-47834D01*
X78278Y-47650D01*
X78201Y-47573D01*
X78255Y-47442D01*
X78255Y-47243D01*
X78180Y-47059D01*
X78118Y-46998D01*
X78179Y-46937D01*
X78255Y-46753D01*
X78255Y-46554D01*
X78180Y-46370D01*
X78039Y-46229D01*
X77855Y-46153D01*
X77836Y-46153D01*
X77836Y-46104D01*
X77761Y-45920D01*
X77620Y-45780D01*
X77436Y-45703D01*
X77237Y-45703D01*
X77085Y-45766D01*
X77086Y-45742D01*
X77010Y-45559D01*
X76869Y-45418D01*
X76685Y-45342D01*
X76486Y-45341D01*
X76303Y-45417D01*
X76218Y-45502D01*
X76211Y-45484D01*
X76070Y-45344D01*
X75887Y-45267D01*
X75688Y-45267D01*
X75504Y-45343D01*
X75407Y-45440D01*
X75310Y-45344D01*
X75127Y-45267D01*
X74928Y-45267D01*
X74744Y-45343D01*
X74619Y-45468D01*
X74502Y-45350D01*
X74318Y-45273D01*
X74119Y-45273D01*
X73935Y-45349D01*
X73794Y-45490D01*
X73718Y-45673D01*
X73718Y-45763D01*
X73691Y-45775D01*
X73652Y-45681D01*
X73511Y-45540D01*
X73328Y-45464D01*
X73129Y-45464D01*
X72945Y-45540D01*
X72804Y-45680D01*
X72728Y-45864D01*
X72728Y-46063D01*
X72804Y-46247D01*
X72944Y-46388D01*
X73128Y-46464D01*
X73327Y-46464D01*
X73367Y-46447D01*
X73406Y-46541D01*
X73547Y-46681D01*
X73730Y-46758D01*
X73929Y-46758D01*
X74113Y-46682D01*
X74211Y-46585D01*
X74233Y-46638D01*
X74373Y-46779D01*
X74557Y-46855D01*
X74756Y-46855D01*
X74940Y-46780D01*
X75026Y-46694D01*
X75113Y-46781D01*
X75297Y-46858D01*
X75496Y-46858D01*
X75680Y-46782D01*
X75820Y-46641D01*
X75831Y-46617D01*
X75938Y-46724D01*
X76121Y-46800D01*
X76198Y-46800D01*
X76112Y-46836D01*
X75931Y-47016D01*
X75832Y-47253D01*
X75832Y-47509D01*
X75930Y-47745D01*
X76111Y-47927D01*
X76347Y-48025D01*
X76603Y-48025D01*
X76840Y-47927D01*
X77021Y-47746D01*
X77119Y-47510D01*
X77119Y-47254D01*
X77022Y-47017D01*
X76841Y-46836D01*
X76604Y-46738D01*
X76471Y-46738D01*
X76504Y-46724D01*
X76645Y-46584D01*
X76721Y-46400D01*
X76721Y-46326D01*
X76836Y-46279D01*
X76836Y-46302D01*
X76912Y-46486D01*
X77053Y-46627D01*
X77237Y-46703D01*
X77255Y-46703D01*
X77255Y-46752D01*
X77331Y-46936D01*
X77393Y-46998D01*
X77332Y-47058D01*
X77255Y-47242D01*
X77255Y-47441D01*
X77331Y-47625D01*
X77408Y-47702D01*
X77354Y-47833D01*
X77354Y-48032D01*
X77397Y-48136D01*
X77363Y-48122D01*
X77164Y-48121D01*
X76980Y-48197D01*
X76840Y-48338D01*
X76763Y-48522D01*
X76763Y-48535D01*
X76703Y-48510D01*
X76447Y-48509D01*
X76210Y-48607D01*
X76029Y-48788D01*
X75931Y-49024D01*
X75931Y-49280D01*
X76028Y-49517D01*
X76156Y-49645D01*
X76029Y-49772D01*
X75931Y-50009D01*
X75931Y-50265D01*
X76028Y-50501D01*
X76209Y-50683D01*
X76446Y-50781D01*
X76656Y-50781D01*
X76656Y-50797D01*
X76732Y-50981D01*
X76872Y-51121D01*
X77056Y-51198D01*
X77255Y-51198D01*
X77438Y-51122D01*
X77579Y-50981D01*
X77656Y-50798D01*
X77656Y-50752D01*
X77725Y-50781D01*
X77981Y-50781D01*
X78218Y-50683D01*
X78399Y-50502D01*
X78497Y-50266D01*
X78497Y-50010D01*
X78497Y-51212D01*
X78457Y-51229D01*
X78316Y-51369D01*
X78240Y-51553D01*
X78240Y-51752D01*
X78316Y-51936D01*
X78438Y-52059D01*
X78247Y-52058D01*
X78063Y-52134D01*
X77922Y-52275D01*
X77846Y-52459D01*
X77846Y-52658D01*
X77908Y-52809D01*
X77878Y-52824D01*
X77878Y-53300D01*
X77886Y-53300D01*
X77886Y-53400D01*
X77878Y-53400D01*
X77878Y-53407D01*
X77778Y-53407D01*
X77778Y-53400D01*
X77770Y-53400D01*
X77770Y-53300D01*
X77778Y-53300D01*
X77778Y-52824D01*
X77687Y-52777D01*
X77478Y-52874D01*
X77328Y-53039D01*
X77257Y-52932D01*
X77066Y-52804D01*
X76840Y-52760D01*
X76817Y-52760D01*
X76591Y-52804D01*
X76399Y-52932D01*
X76328Y-53039D01*
X76257Y-52932D01*
X76066Y-52804D01*
X75840Y-52760D01*
X75817Y-52760D01*
X75591Y-52804D01*
X75399Y-52932D01*
X75328Y-53039D01*
X75178Y-52874D01*
X74970Y-52777D01*
X74878Y-52824D01*
X74878Y-53300D01*
X74886Y-53300D01*
X74886Y-53400D01*
X74878Y-53400D01*
X74878Y-53407D01*
X74778Y-53407D01*
X74778Y-53400D01*
X74770Y-53400D01*
X74770Y-53300D01*
X74778Y-53300D01*
X74778Y-52824D01*
X74687Y-52777D01*
X74478Y-52874D01*
X74328Y-53039D01*
X74257Y-52932D01*
X74220Y-52908D01*
X74220Y-50491D01*
X74144Y-50307D01*
X74004Y-50166D01*
X73820Y-50090D01*
X73621Y-50090D01*
X73437Y-50166D01*
X73296Y-50306D01*
X73220Y-50490D01*
X73220Y-50689D01*
X73296Y-50873D01*
X73436Y-51014D01*
X73620Y-51090D01*
X73819Y-51090D01*
X74003Y-51014D01*
X74144Y-50874D01*
X74220Y-50690D01*
X74220Y-50491D01*
X74220Y-52908D01*
X74066Y-52804D01*
X73840Y-52760D01*
X73817Y-52760D01*
X73591Y-52804D01*
X73399Y-52932D01*
X73328Y-53039D01*
X73257Y-52932D01*
X73066Y-52804D01*
X72840Y-52760D01*
X72817Y-52760D01*
X72591Y-52804D01*
X72399Y-52932D01*
X72328Y-53039D01*
X72178Y-52874D01*
X72030Y-52805D01*
X72030Y-46249D01*
X71954Y-46065D01*
X71814Y-45925D01*
X71630Y-45848D01*
X71431Y-45848D01*
X71247Y-45924D01*
X71106Y-46065D01*
X71030Y-46248D01*
X71030Y-46447D01*
X71106Y-46631D01*
X71246Y-46772D01*
X71430Y-46848D01*
X71629Y-46848D01*
X71813Y-46772D01*
X71954Y-46632D01*
X72030Y-46448D01*
X72030Y-46249D01*
X72030Y-52805D01*
X71970Y-52777D01*
X71878Y-52824D01*
X71878Y-53300D01*
X71886Y-53300D01*
X71886Y-53400D01*
X71878Y-53400D01*
X71878Y-53407D01*
X71778Y-53407D01*
X71778Y-53400D01*
X71770Y-53400D01*
X71770Y-53300D01*
X71778Y-53300D01*
X71778Y-52824D01*
X71687Y-52777D01*
X71478Y-52874D01*
X71328Y-53039D01*
X71257Y-52932D01*
X71066Y-52804D01*
X70840Y-52760D01*
X70817Y-52760D01*
X70591Y-52804D01*
X70570Y-52819D01*
X70570Y-47934D01*
X70494Y-47750D01*
X70353Y-47609D01*
X70331Y-47600D01*
X70403Y-47527D01*
X70480Y-47343D01*
X70480Y-47145D01*
X70404Y-46961D01*
X70381Y-46938D01*
X70381Y-45668D01*
X70306Y-45484D01*
X70165Y-45344D01*
X69981Y-45267D01*
X69782Y-45267D01*
X69599Y-45343D01*
X69458Y-45484D01*
X69381Y-45667D01*
X69381Y-45866D01*
X69457Y-46050D01*
X69598Y-46191D01*
X69781Y-46267D01*
X69980Y-46267D01*
X70164Y-46191D01*
X70305Y-46051D01*
X70381Y-45867D01*
X70381Y-45668D01*
X70381Y-46938D01*
X70263Y-46820D01*
X70080Y-46744D01*
X69881Y-46744D01*
X69697Y-46819D01*
X69612Y-46905D01*
X69512Y-46863D01*
X69313Y-46863D01*
X69129Y-46939D01*
X68989Y-47080D01*
X68912Y-47263D01*
X68912Y-47462D01*
X68988Y-47646D01*
X69052Y-47710D01*
X69031Y-47701D01*
X68880Y-47701D01*
X68856Y-47642D01*
X68715Y-47502D01*
X68556Y-47435D01*
X68556Y-47398D01*
X68480Y-47214D01*
X68340Y-47073D01*
X68156Y-46997D01*
X67957Y-46997D01*
X67773Y-47073D01*
X67632Y-47213D01*
X67556Y-47397D01*
X67556Y-47596D01*
X67632Y-47780D01*
X67772Y-47920D01*
X67932Y-47986D01*
X67932Y-48024D01*
X68008Y-48208D01*
X68148Y-48349D01*
X68332Y-48425D01*
X68482Y-48425D01*
X68507Y-48484D01*
X68647Y-48624D01*
X68831Y-48701D01*
X69030Y-48701D01*
X69214Y-48625D01*
X69291Y-48548D01*
X69401Y-48593D01*
X69600Y-48593D01*
X69784Y-48517D01*
X69828Y-48474D01*
X69970Y-48533D01*
X70169Y-48533D01*
X70352Y-48457D01*
X70493Y-48316D01*
X70569Y-48133D01*
X70570Y-47934D01*
X70570Y-52819D01*
X70399Y-52932D01*
X70328Y-53039D01*
X70178Y-52874D01*
X69970Y-52777D01*
X69878Y-52824D01*
X69878Y-53300D01*
X69886Y-53300D01*
X69886Y-53400D01*
X69878Y-53400D01*
X69878Y-53407D01*
X69778Y-53407D01*
X69778Y-53400D01*
X69770Y-53400D01*
X69770Y-53300D01*
X69778Y-53300D01*
X69778Y-52824D01*
X69687Y-52777D01*
X69478Y-52874D01*
X69328Y-53039D01*
X69257Y-52932D01*
X69066Y-52804D01*
X68840Y-52760D01*
X68817Y-52760D01*
X68591Y-52804D01*
X68399Y-52932D01*
X68272Y-53124D01*
X68227Y-53350D01*
X68272Y-53575D01*
X68399Y-53767D01*
X68408Y-53772D01*
X68347Y-53798D01*
X68276Y-53868D01*
X68238Y-53960D01*
X68238Y-54059D01*
X68238Y-54739D01*
X68276Y-54831D01*
X68347Y-54901D01*
X68439Y-54940D01*
X68538Y-54940D01*
X69218Y-54940D01*
X69310Y-54901D01*
X69380Y-54831D01*
X69405Y-54771D01*
X69591Y-54895D01*
X69817Y-54940D01*
X69840Y-54940D01*
X70066Y-54895D01*
X70257Y-54767D01*
X70328Y-54660D01*
X70399Y-54767D01*
X70591Y-54895D01*
X70817Y-54940D01*
X70840Y-54940D01*
X71066Y-54895D01*
X71257Y-54767D01*
X71328Y-54660D01*
X71399Y-54767D01*
X71591Y-54895D01*
X71817Y-54940D01*
X71840Y-54940D01*
X72066Y-54895D01*
X72257Y-54767D01*
X72328Y-54660D01*
X72399Y-54767D01*
X72591Y-54895D01*
X72817Y-54940D01*
X72840Y-54940D01*
X73066Y-54895D01*
X73257Y-54767D01*
X73328Y-54660D01*
X73478Y-54825D01*
X73687Y-54922D01*
X73778Y-54875D01*
X73778Y-54400D01*
X73770Y-54400D01*
X73770Y-54300D01*
X73778Y-54300D01*
X73778Y-54292D01*
X73878Y-54292D01*
X73878Y-54300D01*
X73886Y-54300D01*
X73886Y-54400D01*
X73878Y-54400D01*
X73878Y-54875D01*
X73970Y-54922D01*
X74178Y-54825D01*
X74328Y-54660D01*
X74399Y-54767D01*
X74591Y-54895D01*
X74817Y-54940D01*
X74840Y-54940D01*
X75066Y-54895D01*
X75257Y-54767D01*
X75328Y-54660D01*
X75399Y-54767D01*
X75591Y-54895D01*
X75817Y-54940D01*
X75840Y-54940D01*
X76066Y-54895D01*
X76257Y-54767D01*
X76328Y-54660D01*
X76399Y-54767D01*
X76591Y-54895D01*
X76817Y-54940D01*
X76840Y-54940D01*
X77066Y-54895D01*
X77257Y-54767D01*
X77328Y-54660D01*
X77399Y-54767D01*
X77591Y-54895D01*
X77817Y-54940D01*
X77840Y-54940D01*
X78066Y-54895D01*
X78257Y-54767D01*
X78328Y-54660D01*
X78399Y-54767D01*
X78591Y-54895D01*
X78817Y-54940D01*
X78840Y-54940D01*
X79066Y-54895D01*
X79257Y-54767D01*
X79385Y-54575D01*
X79430Y-54350D01*
X79430Y-55025D01*
X67477Y-55025D01*
X67477Y-44517D01*
X67477Y-44418D01*
X67477Y-44305D01*
X67415Y-44242D01*
X67002Y-44242D01*
X67002Y-44655D01*
X67065Y-44717D01*
X67277Y-44717D01*
X67369Y-44679D01*
X67439Y-44609D01*
X67477Y-44517D01*
X67477Y-55025D01*
X66149Y-55025D01*
X66149Y-47932D01*
X66073Y-47748D01*
X65933Y-47607D01*
X65749Y-47531D01*
X65550Y-47531D01*
X65366Y-47607D01*
X65225Y-47747D01*
X65149Y-47931D01*
X65149Y-48130D01*
X65225Y-48314D01*
X65366Y-48455D01*
X65549Y-48531D01*
X65748Y-48531D01*
X65932Y-48455D01*
X66073Y-48315D01*
X66149Y-48131D01*
X66149Y-47932D01*
X66149Y-55025D01*
X65952Y-55025D01*
X65952Y-49605D01*
X65876Y-49421D01*
X65736Y-49281D01*
X65552Y-49204D01*
X65353Y-49204D01*
X65169Y-49280D01*
X65029Y-49421D01*
X64952Y-49604D01*
X64952Y-49803D01*
X65028Y-49987D01*
X65169Y-50128D01*
X65352Y-50204D01*
X65551Y-50204D01*
X65735Y-50128D01*
X65876Y-49988D01*
X65952Y-49804D01*
X65952Y-49605D01*
X65952Y-55025D01*
X64279Y-55025D01*
X64279Y-53345D01*
X64210Y-53179D01*
X64210Y-50296D01*
X64210Y-48296D01*
X64206Y-48207D01*
X64206Y-47116D01*
X64126Y-46923D01*
X63978Y-46775D01*
X63785Y-46695D01*
X63577Y-46695D01*
X63384Y-46775D01*
X63236Y-46922D01*
X63156Y-47115D01*
X63156Y-47324D01*
X63235Y-47517D01*
X63383Y-47665D01*
X63509Y-47717D01*
X63408Y-47759D01*
X63384Y-47852D01*
X63681Y-48149D01*
X63978Y-47852D01*
X63953Y-47759D01*
X63843Y-47721D01*
X63978Y-47665D01*
X64125Y-47518D01*
X64206Y-47325D01*
X64206Y-47116D01*
X64206Y-48207D01*
X64199Y-48087D01*
X64141Y-47947D01*
X64048Y-47923D01*
X63751Y-48220D01*
X64048Y-48517D01*
X64141Y-48493D01*
X64210Y-48296D01*
X64210Y-50296D01*
X64206Y-50207D01*
X64206Y-49116D01*
X64126Y-48923D01*
X63978Y-48775D01*
X63852Y-48723D01*
X63953Y-48681D01*
X63978Y-48588D01*
X63681Y-48291D01*
X63610Y-48361D01*
X63610Y-48220D01*
X63313Y-47923D01*
X63220Y-47947D01*
X63151Y-48144D01*
X63162Y-48353D01*
X63220Y-48493D01*
X63313Y-48517D01*
X63610Y-48220D01*
X63610Y-48361D01*
X63384Y-48588D01*
X63408Y-48681D01*
X63518Y-48719D01*
X63384Y-48775D01*
X63236Y-48922D01*
X63156Y-49115D01*
X63156Y-49324D01*
X63235Y-49517D01*
X63383Y-49665D01*
X63509Y-49717D01*
X63408Y-49759D01*
X63384Y-49852D01*
X63681Y-50149D01*
X63978Y-49852D01*
X63953Y-49759D01*
X63843Y-49721D01*
X63978Y-49665D01*
X64125Y-49518D01*
X64206Y-49325D01*
X64206Y-49116D01*
X64206Y-50207D01*
X64199Y-50087D01*
X64141Y-49947D01*
X64048Y-49923D01*
X63751Y-50220D01*
X64048Y-50517D01*
X64141Y-50493D01*
X64210Y-50296D01*
X64210Y-53179D01*
X64206Y-53167D01*
X64206Y-51545D01*
X64206Y-51445D01*
X64206Y-50895D01*
X64168Y-50803D01*
X64097Y-50733D01*
X64005Y-50695D01*
X63919Y-50695D01*
X63953Y-50681D01*
X63978Y-50588D01*
X63681Y-50291D01*
X63610Y-50361D01*
X63610Y-50220D01*
X63313Y-49923D01*
X63220Y-49947D01*
X63151Y-50144D01*
X63162Y-50353D01*
X63220Y-50493D01*
X63313Y-50517D01*
X63610Y-50220D01*
X63610Y-50361D01*
X63384Y-50588D01*
X63408Y-50681D01*
X63449Y-50695D01*
X63356Y-50695D01*
X63264Y-50733D01*
X63194Y-50803D01*
X63156Y-50895D01*
X63156Y-50995D01*
X63156Y-51545D01*
X63194Y-51637D01*
X63264Y-51707D01*
X63356Y-51745D01*
X63455Y-51745D01*
X64005Y-51745D01*
X64097Y-51707D01*
X64168Y-51637D01*
X64206Y-51545D01*
X64206Y-53167D01*
X64203Y-53162D01*
X64063Y-53021D01*
X63879Y-52944D01*
X63680Y-52944D01*
X63496Y-53020D01*
X63355Y-53161D01*
X63279Y-53344D01*
X63279Y-53543D01*
X63355Y-53727D01*
X63495Y-53868D01*
X63679Y-53944D01*
X63878Y-53944D01*
X64062Y-53869D01*
X64203Y-53728D01*
X64279Y-53544D01*
X64279Y-53345D01*
X64279Y-55025D01*
X62887Y-55025D01*
X62887Y-43793D01*
X63609Y-43793D01*
X63507Y-43895D01*
X63427Y-44088D01*
X63427Y-44296D01*
X63507Y-44489D01*
X63654Y-44637D01*
X63847Y-44717D01*
X64056Y-44718D01*
X64249Y-44638D01*
X64397Y-44490D01*
X64452Y-44357D01*
X64507Y-44489D01*
X64654Y-44637D01*
X64847Y-44717D01*
X65056Y-44718D01*
X65249Y-44638D01*
X65397Y-44490D01*
X65452Y-44357D01*
X65507Y-44489D01*
X65654Y-44637D01*
X65847Y-44717D01*
X66056Y-44718D01*
X66249Y-44638D01*
X66397Y-44490D01*
X66427Y-44417D01*
X66427Y-44418D01*
X66427Y-44517D01*
X66465Y-44609D01*
X66536Y-44679D01*
X66628Y-44717D01*
X66840Y-44717D01*
X66902Y-44655D01*
X66902Y-44242D01*
X66894Y-44242D01*
X66894Y-44142D01*
X66902Y-44142D01*
X66902Y-44135D01*
X67002Y-44135D01*
X67002Y-44142D01*
X67415Y-44142D01*
X67477Y-44080D01*
X67477Y-43967D01*
X67477Y-43868D01*
X67446Y-43793D01*
X73025Y-43793D01*
X72847Y-43867D01*
X72706Y-44007D01*
X72630Y-44191D01*
X72629Y-44390D01*
X72705Y-44574D01*
X72846Y-44714D01*
X73030Y-44791D01*
X73228Y-44791D01*
X73412Y-44715D01*
X73553Y-44574D01*
X73629Y-44391D01*
X73630Y-44192D01*
X73554Y-44008D01*
X73413Y-43867D01*
X73234Y-43793D01*
X81600Y-43793D01*
X81600Y-52462D01*
X81538Y-52370D01*
X81435Y-52300D01*
X81435Y-45607D01*
X81424Y-45398D01*
X81366Y-45258D01*
X81273Y-45234D01*
X81202Y-45305D01*
X81202Y-45163D01*
X81178Y-45070D01*
X80981Y-45001D01*
X80772Y-45012D01*
X80632Y-45070D01*
X80608Y-45163D01*
X80905Y-45460D01*
X81202Y-45163D01*
X81202Y-45305D01*
X80976Y-45531D01*
X81273Y-45828D01*
X81366Y-45804D01*
X81435Y-45607D01*
X81435Y-52300D01*
X81430Y-52297D01*
X81430Y-49427D01*
X81350Y-49234D01*
X81203Y-49086D01*
X81070Y-49031D01*
X81202Y-48976D01*
X81350Y-48829D01*
X81430Y-48636D01*
X81430Y-48427D01*
X81350Y-48234D01*
X81203Y-48086D01*
X81070Y-48031D01*
X81202Y-47976D01*
X81350Y-47829D01*
X81430Y-47636D01*
X81430Y-47427D01*
X81350Y-47234D01*
X81203Y-47086D01*
X81070Y-47031D01*
X81202Y-46976D01*
X81350Y-46829D01*
X81430Y-46636D01*
X81430Y-46427D01*
X81350Y-46234D01*
X81203Y-46086D01*
X81076Y-46034D01*
X81178Y-45992D01*
X81202Y-45899D01*
X80905Y-45602D01*
X80834Y-45672D01*
X80834Y-45531D01*
X80537Y-45234D01*
X80469Y-45252D01*
X80443Y-45189D01*
X80303Y-45048D01*
X80119Y-44972D01*
X79920Y-44972D01*
X79736Y-45048D01*
X79596Y-45188D01*
X79519Y-45372D01*
X79519Y-45571D01*
X79595Y-45755D01*
X79736Y-45896D01*
X79919Y-45972D01*
X80118Y-45972D01*
X80302Y-45896D01*
X80430Y-45768D01*
X80444Y-45804D01*
X80537Y-45828D01*
X80834Y-45531D01*
X80834Y-45672D01*
X80608Y-45899D01*
X80632Y-45992D01*
X80742Y-46030D01*
X80608Y-46086D01*
X80460Y-46233D01*
X80380Y-46426D01*
X80380Y-46635D01*
X80384Y-46645D01*
X80314Y-46645D01*
X80130Y-46721D01*
X79989Y-46862D01*
X79913Y-47045D01*
X79913Y-47244D01*
X79989Y-47428D01*
X80129Y-47569D01*
X80313Y-47645D01*
X80384Y-47645D01*
X80460Y-47828D01*
X80607Y-47976D01*
X80740Y-48031D01*
X80608Y-48086D01*
X80460Y-48233D01*
X80380Y-48426D01*
X80380Y-48635D01*
X80460Y-48828D01*
X80607Y-48976D01*
X80740Y-49031D01*
X80608Y-49086D01*
X80460Y-49233D01*
X80380Y-49426D01*
X80380Y-49635D01*
X80460Y-49828D01*
X80607Y-49976D01*
X80680Y-50006D01*
X80580Y-50006D01*
X80488Y-50044D01*
X80418Y-50114D01*
X80380Y-50206D01*
X80380Y-50306D01*
X80380Y-50856D01*
X80418Y-50948D01*
X80488Y-51018D01*
X80580Y-51056D01*
X80680Y-51056D01*
X81230Y-51056D01*
X81322Y-51018D01*
X81392Y-50948D01*
X81430Y-50856D01*
X81430Y-50756D01*
X81430Y-50206D01*
X81392Y-50114D01*
X81322Y-50044D01*
X81230Y-50006D01*
X81130Y-50006D01*
X81130Y-50006D01*
X81202Y-49976D01*
X81350Y-49829D01*
X81430Y-49636D01*
X81430Y-49427D01*
X81430Y-52297D01*
X81347Y-52242D01*
X81121Y-52197D01*
X81098Y-52197D01*
X80872Y-52242D01*
X80681Y-52370D01*
X80610Y-52476D01*
X80538Y-52370D01*
X80347Y-52242D01*
X80121Y-52197D01*
X80098Y-52197D01*
X80027Y-52211D01*
X80027Y-48818D01*
X79951Y-48634D01*
X79811Y-48493D01*
X79627Y-48417D01*
X79428Y-48417D01*
X79244Y-48493D01*
X79103Y-48633D01*
X79027Y-48817D01*
X79027Y-49016D01*
X79103Y-49200D01*
X79243Y-49340D01*
X79427Y-49417D01*
X79626Y-49417D01*
X79810Y-49341D01*
X79951Y-49200D01*
X80027Y-49017D01*
X80027Y-48818D01*
X80027Y-52211D01*
X79872Y-52242D01*
X79681Y-52370D01*
X79553Y-52561D01*
X79508Y-52787D01*
X79553Y-53013D01*
X79681Y-53204D01*
X79689Y-53210D01*
X79628Y-53235D01*
X79558Y-53305D01*
X79520Y-53397D01*
X79520Y-53497D01*
X79520Y-54177D01*
X79558Y-54269D01*
X79628Y-54339D01*
X79720Y-54377D01*
X79819Y-54377D01*
X80499Y-54377D01*
X80591Y-54339D01*
X80662Y-54269D01*
X80687Y-54208D01*
X80872Y-54332D01*
X81098Y-54377D01*
X81121Y-54377D01*
X81347Y-54332D01*
X81538Y-54204D01*
X81600Y-54112D01*
X81600Y-54724D01*
X81600Y-55025D01*
X81600Y-55025D01*
G37*
X81600Y-55025D02*
X79430Y-55025D01*
X79430Y-54350D01*
X79385Y-54124D01*
X79257Y-53932D01*
X79133Y-53850D01*
X79257Y-53767D01*
X79385Y-53575D01*
X79430Y-53350D01*
X79385Y-53124D01*
X79257Y-52932D01*
X79066Y-52804D01*
X78840Y-52760D01*
X78817Y-52760D01*
X78803Y-52762D01*
X78846Y-52658D01*
X78846Y-52460D01*
X78770Y-52276D01*
X78648Y-52153D01*
X78839Y-52153D01*
X79023Y-52077D01*
X79163Y-51937D01*
X79240Y-51753D01*
X79240Y-51554D01*
X79164Y-51370D01*
X79023Y-51229D01*
X78840Y-51153D01*
X78641Y-51153D01*
X78551Y-51190D01*
X78551Y-44487D01*
X78475Y-44303D01*
X78334Y-44162D01*
X78151Y-44086D01*
X77952Y-44086D01*
X77768Y-44162D01*
X77627Y-44303D01*
X77551Y-44486D01*
X77551Y-44685D01*
X77627Y-44869D01*
X77767Y-45010D01*
X77951Y-45086D01*
X78150Y-45086D01*
X78334Y-45010D01*
X78474Y-44870D01*
X78551Y-44686D01*
X78551Y-44487D01*
X78551Y-51190D01*
X78497Y-51212D01*
X78497Y-50010D01*
X78400Y-49773D01*
X78219Y-49592D01*
X78145Y-49561D01*
X78175Y-49531D01*
X78251Y-49348D01*
X78251Y-49149D01*
X78175Y-48965D01*
X78147Y-48937D01*
X78277Y-48807D01*
X78354Y-48623D01*
X78354Y-48424D01*
X78278Y-48240D01*
X78266Y-48228D01*
X78277Y-48216D01*
X78354Y-48032D01*
X78354Y-47834D01*
X78278Y-47650D01*
X78201Y-47573D01*
X78255Y-47442D01*
X78255Y-47243D01*
X78180Y-47059D01*
X78118Y-46998D01*
X78179Y-46937D01*
X78255Y-46753D01*
X78255Y-46554D01*
X78180Y-46370D01*
X78039Y-46229D01*
X77855Y-46153D01*
X77836Y-46153D01*
X77836Y-46104D01*
X77761Y-45920D01*
X77620Y-45780D01*
X77436Y-45703D01*
X77237Y-45703D01*
X77085Y-45766D01*
X77086Y-45742D01*
X77010Y-45559D01*
X76869Y-45418D01*
X76685Y-45342D01*
X76486Y-45341D01*
X76303Y-45417D01*
X76218Y-45502D01*
X76211Y-45484D01*
X76070Y-45344D01*
X75887Y-45267D01*
X75688Y-45267D01*
X75504Y-45343D01*
X75407Y-45440D01*
X75310Y-45344D01*
X75127Y-45267D01*
X74928Y-45267D01*
X74744Y-45343D01*
X74619Y-45468D01*
X74502Y-45350D01*
X74318Y-45273D01*
X74119Y-45273D01*
X73935Y-45349D01*
X73794Y-45490D01*
X73718Y-45673D01*
X73718Y-45763D01*
X73691Y-45775D01*
X73652Y-45681D01*
X73511Y-45540D01*
X73328Y-45464D01*
X73129Y-45464D01*
X72945Y-45540D01*
X72804Y-45680D01*
X72728Y-45864D01*
X72728Y-46063D01*
X72804Y-46247D01*
X72944Y-46388D01*
X73128Y-46464D01*
X73327Y-46464D01*
X73367Y-46447D01*
X73406Y-46541D01*
X73547Y-46681D01*
X73730Y-46758D01*
X73929Y-46758D01*
X74113Y-46682D01*
X74211Y-46585D01*
X74233Y-46638D01*
X74373Y-46779D01*
X74557Y-46855D01*
X74756Y-46855D01*
X74940Y-46780D01*
X75026Y-46694D01*
X75113Y-46781D01*
X75297Y-46858D01*
X75496Y-46858D01*
X75680Y-46782D01*
X75820Y-46641D01*
X75831Y-46617D01*
X75938Y-46724D01*
X76121Y-46800D01*
X76198Y-46800D01*
X76112Y-46836D01*
X75931Y-47016D01*
X75832Y-47253D01*
X75832Y-47509D01*
X75930Y-47745D01*
X76111Y-47927D01*
X76347Y-48025D01*
X76603Y-48025D01*
X76840Y-47927D01*
X77021Y-47746D01*
X77119Y-47510D01*
X77119Y-47254D01*
X77022Y-47017D01*
X76841Y-46836D01*
X76604Y-46738D01*
X76471Y-46738D01*
X76504Y-46724D01*
X76645Y-46584D01*
X76721Y-46400D01*
X76721Y-46326D01*
X76836Y-46279D01*
X76836Y-46302D01*
X76912Y-46486D01*
X77053Y-46627D01*
X77237Y-46703D01*
X77255Y-46703D01*
X77255Y-46752D01*
X77331Y-46936D01*
X77393Y-46998D01*
X77332Y-47058D01*
X77255Y-47242D01*
X77255Y-47441D01*
X77331Y-47625D01*
X77408Y-47702D01*
X77354Y-47833D01*
X77354Y-48032D01*
X77397Y-48136D01*
X77363Y-48122D01*
X77164Y-48121D01*
X76980Y-48197D01*
X76840Y-48338D01*
X76763Y-48522D01*
X76763Y-48535D01*
X76703Y-48510D01*
X76447Y-48509D01*
X76210Y-48607D01*
X76029Y-48788D01*
X75931Y-49024D01*
X75931Y-49280D01*
X76028Y-49517D01*
X76156Y-49645D01*
X76029Y-49772D01*
X75931Y-50009D01*
X75931Y-50265D01*
X76028Y-50501D01*
X76209Y-50683D01*
X76446Y-50781D01*
X76656Y-50781D01*
X76656Y-50797D01*
X76732Y-50981D01*
X76872Y-51121D01*
X77056Y-51198D01*
X77255Y-51198D01*
X77438Y-51122D01*
X77579Y-50981D01*
X77656Y-50798D01*
X77656Y-50752D01*
X77725Y-50781D01*
X77981Y-50781D01*
X78218Y-50683D01*
X78399Y-50502D01*
X78497Y-50266D01*
X78497Y-50010D01*
X78497Y-51212D01*
X78457Y-51229D01*
X78316Y-51369D01*
X78240Y-51553D01*
X78240Y-51752D01*
X78316Y-51936D01*
X78438Y-52059D01*
X78247Y-52058D01*
X78063Y-52134D01*
X77922Y-52275D01*
X77846Y-52459D01*
X77846Y-52658D01*
X77908Y-52809D01*
X77878Y-52824D01*
X77878Y-53300D01*
X77886Y-53300D01*
X77886Y-53400D01*
X77878Y-53400D01*
X77878Y-53407D01*
X77778Y-53407D01*
X77778Y-53400D01*
X77770Y-53400D01*
X77770Y-53300D01*
X77778Y-53300D01*
X77778Y-52824D01*
X77687Y-52777D01*
X77478Y-52874D01*
X77328Y-53039D01*
X77257Y-52932D01*
X77066Y-52804D01*
X76840Y-52760D01*
X76817Y-52760D01*
X76591Y-52804D01*
X76399Y-52932D01*
X76328Y-53039D01*
X76257Y-52932D01*
X76066Y-52804D01*
X75840Y-52760D01*
X75817Y-52760D01*
X75591Y-52804D01*
X75399Y-52932D01*
X75328Y-53039D01*
X75178Y-52874D01*
X74970Y-52777D01*
X74878Y-52824D01*
X74878Y-53300D01*
X74886Y-53300D01*
X74886Y-53400D01*
X74878Y-53400D01*
X74878Y-53407D01*
X74778Y-53407D01*
X74778Y-53400D01*
X74770Y-53400D01*
X74770Y-53300D01*
X74778Y-53300D01*
X74778Y-52824D01*
X74687Y-52777D01*
X74478Y-52874D01*
X74328Y-53039D01*
X74257Y-52932D01*
X74220Y-52908D01*
X74220Y-50491D01*
X74144Y-50307D01*
X74004Y-50166D01*
X73820Y-50090D01*
X73621Y-50090D01*
X73437Y-50166D01*
X73296Y-50306D01*
X73220Y-50490D01*
X73220Y-50689D01*
X73296Y-50873D01*
X73436Y-51014D01*
X73620Y-51090D01*
X73819Y-51090D01*
X74003Y-51014D01*
X74144Y-50874D01*
X74220Y-50690D01*
X74220Y-50491D01*
X74220Y-52908D01*
X74066Y-52804D01*
X73840Y-52760D01*
X73817Y-52760D01*
X73591Y-52804D01*
X73399Y-52932D01*
X73328Y-53039D01*
X73257Y-52932D01*
X73066Y-52804D01*
X72840Y-52760D01*
X72817Y-52760D01*
X72591Y-52804D01*
X72399Y-52932D01*
X72328Y-53039D01*
X72178Y-52874D01*
X72030Y-52805D01*
X72030Y-46249D01*
X71954Y-46065D01*
X71814Y-45925D01*
X71630Y-45848D01*
X71431Y-45848D01*
X71247Y-45924D01*
X71106Y-46065D01*
X71030Y-46248D01*
X71030Y-46447D01*
X71106Y-46631D01*
X71246Y-46772D01*
X71430Y-46848D01*
X71629Y-46848D01*
X71813Y-46772D01*
X71954Y-46632D01*
X72030Y-46448D01*
X72030Y-46249D01*
X72030Y-52805D01*
X71970Y-52777D01*
X71878Y-52824D01*
X71878Y-53300D01*
X71886Y-53300D01*
X71886Y-53400D01*
X71878Y-53400D01*
X71878Y-53407D01*
X71778Y-53407D01*
X71778Y-53400D01*
X71770Y-53400D01*
X71770Y-53300D01*
X71778Y-53300D01*
X71778Y-52824D01*
X71687Y-52777D01*
X71478Y-52874D01*
X71328Y-53039D01*
X71257Y-52932D01*
X71066Y-52804D01*
X70840Y-52760D01*
X70817Y-52760D01*
X70591Y-52804D01*
X70570Y-52819D01*
X70570Y-47934D01*
X70494Y-47750D01*
X70353Y-47609D01*
X70331Y-47600D01*
X70403Y-47527D01*
X70480Y-47343D01*
X70480Y-47145D01*
X70404Y-46961D01*
X70381Y-46938D01*
X70381Y-45668D01*
X70306Y-45484D01*
X70165Y-45344D01*
X69981Y-45267D01*
X69782Y-45267D01*
X69599Y-45343D01*
X69458Y-45484D01*
X69381Y-45667D01*
X69381Y-45866D01*
X69457Y-46050D01*
X69598Y-46191D01*
X69781Y-46267D01*
X69980Y-46267D01*
X70164Y-46191D01*
X70305Y-46051D01*
X70381Y-45867D01*
X70381Y-45668D01*
X70381Y-46938D01*
X70263Y-46820D01*
X70080Y-46744D01*
X69881Y-46744D01*
X69697Y-46819D01*
X69612Y-46905D01*
X69512Y-46863D01*
X69313Y-46863D01*
X69129Y-46939D01*
X68989Y-47080D01*
X68912Y-47263D01*
X68912Y-47462D01*
X68988Y-47646D01*
X69052Y-47710D01*
X69031Y-47701D01*
X68880Y-47701D01*
X68856Y-47642D01*
X68715Y-47502D01*
X68556Y-47435D01*
X68556Y-47398D01*
X68480Y-47214D01*
X68340Y-47073D01*
X68156Y-46997D01*
X67957Y-46997D01*
X67773Y-47073D01*
X67632Y-47213D01*
X67556Y-47397D01*
X67556Y-47596D01*
X67632Y-47780D01*
X67772Y-47920D01*
X67932Y-47986D01*
X67932Y-48024D01*
X68008Y-48208D01*
X68148Y-48349D01*
X68332Y-48425D01*
X68482Y-48425D01*
X68507Y-48484D01*
X68647Y-48624D01*
X68831Y-48701D01*
X69030Y-48701D01*
X69214Y-48625D01*
X69291Y-48548D01*
X69401Y-48593D01*
X69600Y-48593D01*
X69784Y-48517D01*
X69828Y-48474D01*
X69970Y-48533D01*
X70169Y-48533D01*
X70352Y-48457D01*
X70493Y-48316D01*
X70569Y-48133D01*
X70570Y-47934D01*
X70570Y-52819D01*
X70399Y-52932D01*
X70328Y-53039D01*
X70178Y-52874D01*
X69970Y-52777D01*
X69878Y-52824D01*
X69878Y-53300D01*
X69886Y-53300D01*
X69886Y-53400D01*
X69878Y-53400D01*
X69878Y-53407D01*
X69778Y-53407D01*
X69778Y-53400D01*
X69770Y-53400D01*
X69770Y-53300D01*
X69778Y-53300D01*
X69778Y-52824D01*
X69687Y-52777D01*
X69478Y-52874D01*
X69328Y-53039D01*
X69257Y-52932D01*
X69066Y-52804D01*
X68840Y-52760D01*
X68817Y-52760D01*
X68591Y-52804D01*
X68399Y-52932D01*
X68272Y-53124D01*
X68227Y-53350D01*
X68272Y-53575D01*
X68399Y-53767D01*
X68408Y-53772D01*
X68347Y-53798D01*
X68276Y-53868D01*
X68238Y-53960D01*
X68238Y-54059D01*
X68238Y-54739D01*
X68276Y-54831D01*
X68347Y-54901D01*
X68439Y-54940D01*
X68538Y-54940D01*
X69218Y-54940D01*
X69310Y-54901D01*
X69380Y-54831D01*
X69405Y-54771D01*
X69591Y-54895D01*
X69817Y-54940D01*
X69840Y-54940D01*
X70066Y-54895D01*
X70257Y-54767D01*
X70328Y-54660D01*
X70399Y-54767D01*
X70591Y-54895D01*
X70817Y-54940D01*
X70840Y-54940D01*
X71066Y-54895D01*
X71257Y-54767D01*
X71328Y-54660D01*
X71399Y-54767D01*
X71591Y-54895D01*
X71817Y-54940D01*
X71840Y-54940D01*
X72066Y-54895D01*
X72257Y-54767D01*
X72328Y-54660D01*
X72399Y-54767D01*
X72591Y-54895D01*
X72817Y-54940D01*
X72840Y-54940D01*
X73066Y-54895D01*
X73257Y-54767D01*
X73328Y-54660D01*
X73478Y-54825D01*
X73687Y-54922D01*
X73778Y-54875D01*
X73778Y-54400D01*
X73770Y-54400D01*
X73770Y-54300D01*
X73778Y-54300D01*
X73778Y-54292D01*
X73878Y-54292D01*
X73878Y-54300D01*
X73886Y-54300D01*
X73886Y-54400D01*
X73878Y-54400D01*
X73878Y-54875D01*
X73970Y-54922D01*
X74178Y-54825D01*
X74328Y-54660D01*
X74399Y-54767D01*
X74591Y-54895D01*
X74817Y-54940D01*
X74840Y-54940D01*
X75066Y-54895D01*
X75257Y-54767D01*
X75328Y-54660D01*
X75399Y-54767D01*
X75591Y-54895D01*
X75817Y-54940D01*
X75840Y-54940D01*
X76066Y-54895D01*
X76257Y-54767D01*
X76328Y-54660D01*
X76399Y-54767D01*
X76591Y-54895D01*
X76817Y-54940D01*
X76840Y-54940D01*
X77066Y-54895D01*
X77257Y-54767D01*
X77328Y-54660D01*
X77399Y-54767D01*
X77591Y-54895D01*
X77817Y-54940D01*
X77840Y-54940D01*
X78066Y-54895D01*
X78257Y-54767D01*
X78328Y-54660D01*
X78399Y-54767D01*
X78591Y-54895D01*
X78817Y-54940D01*
X78840Y-54940D01*
X79066Y-54895D01*
X79257Y-54767D01*
X79385Y-54575D01*
X79430Y-54350D01*
X79430Y-55025D01*
X67477Y-55025D01*
X67477Y-44517D01*
X67477Y-44418D01*
X67477Y-44305D01*
X67415Y-44242D01*
X67002Y-44242D01*
X67002Y-44655D01*
X67065Y-44717D01*
X67277Y-44717D01*
X67369Y-44679D01*
X67439Y-44609D01*
X67477Y-44517D01*
X67477Y-55025D01*
X66149Y-55025D01*
X66149Y-47932D01*
X66073Y-47748D01*
X65933Y-47607D01*
X65749Y-47531D01*
X65550Y-47531D01*
X65366Y-47607D01*
X65225Y-47747D01*
X65149Y-47931D01*
X65149Y-48130D01*
X65225Y-48314D01*
X65366Y-48455D01*
X65549Y-48531D01*
X65748Y-48531D01*
X65932Y-48455D01*
X66073Y-48315D01*
X66149Y-48131D01*
X66149Y-47932D01*
X66149Y-55025D01*
X65952Y-55025D01*
X65952Y-49605D01*
X65876Y-49421D01*
X65736Y-49281D01*
X65552Y-49204D01*
X65353Y-49204D01*
X65169Y-49280D01*
X65029Y-49421D01*
X64952Y-49604D01*
X64952Y-49803D01*
X65028Y-49987D01*
X65169Y-50128D01*
X65352Y-50204D01*
X65551Y-50204D01*
X65735Y-50128D01*
X65876Y-49988D01*
X65952Y-49804D01*
X65952Y-49605D01*
X65952Y-55025D01*
X64279Y-55025D01*
X64279Y-53345D01*
X64210Y-53179D01*
X64210Y-50296D01*
X64210Y-48296D01*
X64206Y-48207D01*
X64206Y-47116D01*
X64126Y-46923D01*
X63978Y-46775D01*
X63785Y-46695D01*
X63577Y-46695D01*
X63384Y-46775D01*
X63236Y-46922D01*
X63156Y-47115D01*
X63156Y-47324D01*
X63235Y-47517D01*
X63383Y-47665D01*
X63509Y-47717D01*
X63408Y-47759D01*
X63384Y-47852D01*
X63681Y-48149D01*
X63978Y-47852D01*
X63953Y-47759D01*
X63843Y-47721D01*
X63978Y-47665D01*
X64125Y-47518D01*
X64206Y-47325D01*
X64206Y-47116D01*
X64206Y-48207D01*
X64199Y-48087D01*
X64141Y-47947D01*
X64048Y-47923D01*
X63751Y-48220D01*
X64048Y-48517D01*
X64141Y-48493D01*
X64210Y-48296D01*
X64210Y-50296D01*
X64206Y-50207D01*
X64206Y-49116D01*
X64126Y-48923D01*
X63978Y-48775D01*
X63852Y-48723D01*
X63953Y-48681D01*
X63978Y-48588D01*
X63681Y-48291D01*
X63610Y-48361D01*
X63610Y-48220D01*
X63313Y-47923D01*
X63220Y-47947D01*
X63151Y-48144D01*
X63162Y-48353D01*
X63220Y-48493D01*
X63313Y-48517D01*
X63610Y-48220D01*
X63610Y-48361D01*
X63384Y-48588D01*
X63408Y-48681D01*
X63518Y-48719D01*
X63384Y-48775D01*
X63236Y-48922D01*
X63156Y-49115D01*
X63156Y-49324D01*
X63235Y-49517D01*
X63383Y-49665D01*
X63509Y-49717D01*
X63408Y-49759D01*
X63384Y-49852D01*
X63681Y-50149D01*
X63978Y-49852D01*
X63953Y-49759D01*
X63843Y-49721D01*
X63978Y-49665D01*
X64125Y-49518D01*
X64206Y-49325D01*
X64206Y-49116D01*
X64206Y-50207D01*
X64199Y-50087D01*
X64141Y-49947D01*
X64048Y-49923D01*
X63751Y-50220D01*
X64048Y-50517D01*
X64141Y-50493D01*
X64210Y-50296D01*
X64210Y-53179D01*
X64206Y-53167D01*
X64206Y-51545D01*
X64206Y-51445D01*
X64206Y-50895D01*
X64168Y-50803D01*
X64097Y-50733D01*
X64005Y-50695D01*
X63919Y-50695D01*
X63953Y-50681D01*
X63978Y-50588D01*
X63681Y-50291D01*
X63610Y-50361D01*
X63610Y-50220D01*
X63313Y-49923D01*
X63220Y-49947D01*
X63151Y-50144D01*
X63162Y-50353D01*
X63220Y-50493D01*
X63313Y-50517D01*
X63610Y-50220D01*
X63610Y-50361D01*
X63384Y-50588D01*
X63408Y-50681D01*
X63449Y-50695D01*
X63356Y-50695D01*
X63264Y-50733D01*
X63194Y-50803D01*
X63156Y-50895D01*
X63156Y-50995D01*
X63156Y-51545D01*
X63194Y-51637D01*
X63264Y-51707D01*
X63356Y-51745D01*
X63455Y-51745D01*
X64005Y-51745D01*
X64097Y-51707D01*
X64168Y-51637D01*
X64206Y-51545D01*
X64206Y-53167D01*
X64203Y-53162D01*
X64063Y-53021D01*
X63879Y-52944D01*
X63680Y-52944D01*
X63496Y-53020D01*
X63355Y-53161D01*
X63279Y-53344D01*
X63279Y-53543D01*
X63355Y-53727D01*
X63495Y-53868D01*
X63679Y-53944D01*
X63878Y-53944D01*
X64062Y-53869D01*
X64203Y-53728D01*
X64279Y-53544D01*
X64279Y-53345D01*
X64279Y-55025D01*
X62887Y-55025D01*
X62887Y-43793D01*
X63609Y-43793D01*
X63507Y-43895D01*
X63427Y-44088D01*
X63427Y-44296D01*
X63507Y-44489D01*
X63654Y-44637D01*
X63847Y-44717D01*
X64056Y-44718D01*
X64249Y-44638D01*
X64397Y-44490D01*
X64452Y-44357D01*
X64507Y-44489D01*
X64654Y-44637D01*
X64847Y-44717D01*
X65056Y-44718D01*
X65249Y-44638D01*
X65397Y-44490D01*
X65452Y-44357D01*
X65507Y-44489D01*
X65654Y-44637D01*
X65847Y-44717D01*
X66056Y-44718D01*
X66249Y-44638D01*
X66397Y-44490D01*
X66427Y-44417D01*
X66427Y-44418D01*
X66427Y-44517D01*
X66465Y-44609D01*
X66536Y-44679D01*
X66628Y-44717D01*
X66840Y-44717D01*
X66902Y-44655D01*
X66902Y-44242D01*
X66894Y-44242D01*
X66894Y-44142D01*
X66902Y-44142D01*
X66902Y-44135D01*
X67002Y-44135D01*
X67002Y-44142D01*
X67415Y-44142D01*
X67477Y-44080D01*
X67477Y-43967D01*
X67477Y-43868D01*
X67446Y-43793D01*
X73025Y-43793D01*
X72847Y-43867D01*
X72706Y-44007D01*
X72630Y-44191D01*
X72629Y-44390D01*
X72705Y-44574D01*
X72846Y-44714D01*
X73030Y-44791D01*
X73228Y-44791D01*
X73412Y-44715D01*
X73553Y-44574D01*
X73629Y-44391D01*
X73630Y-44192D01*
X73554Y-44008D01*
X73413Y-43867D01*
X73234Y-43793D01*
X81600Y-43793D01*
X81600Y-52462D01*
X81538Y-52370D01*
X81435Y-52300D01*
X81435Y-45607D01*
X81424Y-45398D01*
X81366Y-45258D01*
X81273Y-45234D01*
X81202Y-45305D01*
X81202Y-45163D01*
X81178Y-45070D01*
X80981Y-45001D01*
X80772Y-45012D01*
X80632Y-45070D01*
X80608Y-45163D01*
X80905Y-45460D01*
X81202Y-45163D01*
X81202Y-45305D01*
X80976Y-45531D01*
X81273Y-45828D01*
X81366Y-45804D01*
X81435Y-45607D01*
X81435Y-52300D01*
X81430Y-52297D01*
X81430Y-49427D01*
X81350Y-49234D01*
X81203Y-49086D01*
X81070Y-49031D01*
X81202Y-48976D01*
X81350Y-48829D01*
X81430Y-48636D01*
X81430Y-48427D01*
X81350Y-48234D01*
X81203Y-48086D01*
X81070Y-48031D01*
X81202Y-47976D01*
X81350Y-47829D01*
X81430Y-47636D01*
X81430Y-47427D01*
X81350Y-47234D01*
X81203Y-47086D01*
X81070Y-47031D01*
X81202Y-46976D01*
X81350Y-46829D01*
X81430Y-46636D01*
X81430Y-46427D01*
X81350Y-46234D01*
X81203Y-46086D01*
X81076Y-46034D01*
X81178Y-45992D01*
X81202Y-45899D01*
X80905Y-45602D01*
X80834Y-45672D01*
X80834Y-45531D01*
X80537Y-45234D01*
X80469Y-45252D01*
X80443Y-45189D01*
X80303Y-45048D01*
X80119Y-44972D01*
X79920Y-44972D01*
X79736Y-45048D01*
X79596Y-45188D01*
X79519Y-45372D01*
X79519Y-45571D01*
X79595Y-45755D01*
X79736Y-45896D01*
X79919Y-45972D01*
X80118Y-45972D01*
X80302Y-45896D01*
X80430Y-45768D01*
X80444Y-45804D01*
X80537Y-45828D01*
X80834Y-45531D01*
X80834Y-45672D01*
X80608Y-45899D01*
X80632Y-45992D01*
X80742Y-46030D01*
X80608Y-46086D01*
X80460Y-46233D01*
X80380Y-46426D01*
X80380Y-46635D01*
X80384Y-46645D01*
X80314Y-46645D01*
X80130Y-46721D01*
X79989Y-46862D01*
X79913Y-47045D01*
X79913Y-47244D01*
X79989Y-47428D01*
X80129Y-47569D01*
X80313Y-47645D01*
X80384Y-47645D01*
X80460Y-47828D01*
X80607Y-47976D01*
X80740Y-48031D01*
X80608Y-48086D01*
X80460Y-48233D01*
X80380Y-48426D01*
X80380Y-48635D01*
X80460Y-48828D01*
X80607Y-48976D01*
X80740Y-49031D01*
X80608Y-49086D01*
X80460Y-49233D01*
X80380Y-49426D01*
X80380Y-49635D01*
X80460Y-49828D01*
X80607Y-49976D01*
X80680Y-50006D01*
X80580Y-50006D01*
X80488Y-50044D01*
X80418Y-50114D01*
X80380Y-50206D01*
X80380Y-50306D01*
X80380Y-50856D01*
X80418Y-50948D01*
X80488Y-51018D01*
X80580Y-51056D01*
X80680Y-51056D01*
X81230Y-51056D01*
X81322Y-51018D01*
X81392Y-50948D01*
X81430Y-50856D01*
X81430Y-50756D01*
X81430Y-50206D01*
X81392Y-50114D01*
X81322Y-50044D01*
X81230Y-50006D01*
X81130Y-50006D01*
X81130Y-50006D01*
X81202Y-49976D01*
X81350Y-49829D01*
X81430Y-49636D01*
X81430Y-49427D01*
X81430Y-52297D01*
X81347Y-52242D01*
X81121Y-52197D01*
X81098Y-52197D01*
X80872Y-52242D01*
X80681Y-52370D01*
X80610Y-52476D01*
X80538Y-52370D01*
X80347Y-52242D01*
X80121Y-52197D01*
X80098Y-52197D01*
X80027Y-52211D01*
X80027Y-48818D01*
X79951Y-48634D01*
X79811Y-48493D01*
X79627Y-48417D01*
X79428Y-48417D01*
X79244Y-48493D01*
X79103Y-48633D01*
X79027Y-48817D01*
X79027Y-49016D01*
X79103Y-49200D01*
X79243Y-49340D01*
X79427Y-49417D01*
X79626Y-49417D01*
X79810Y-49341D01*
X79951Y-49200D01*
X80027Y-49017D01*
X80027Y-48818D01*
X80027Y-52211D01*
X79872Y-52242D01*
X79681Y-52370D01*
X79553Y-52561D01*
X79508Y-52787D01*
X79553Y-53013D01*
X79681Y-53204D01*
X79689Y-53210D01*
X79628Y-53235D01*
X79558Y-53305D01*
X79520Y-53397D01*
X79520Y-53497D01*
X79520Y-54177D01*
X79558Y-54269D01*
X79628Y-54339D01*
X79720Y-54377D01*
X79819Y-54377D01*
X80499Y-54377D01*
X80591Y-54339D01*
X80662Y-54269D01*
X80687Y-54208D01*
X80872Y-54332D01*
X81098Y-54377D01*
X81121Y-54377D01*
X81347Y-54332D01*
X81538Y-54204D01*
X81600Y-54112D01*
X81600Y-54724D01*
X81600Y-55025D01*
M02*
