%FSLAX34Y34*%
G04 Gerber Fmt 3.4, Leading zero omitted, Abs format*
G04 (created by PCBNEW (2014-06-26 BZR 4956)-product) date 03/07/2014 22:05:42*
%MOIN*%
G01*
G70*
G90*
G04 APERTURE LIST*
%ADD10C,0.003937*%
%ADD11C,0.011811*%
%ADD12R,0.040000X0.010000*%
%ADD13R,0.010000X0.040000*%
%ADD14R,0.035000X0.055000*%
%ADD15R,0.055000X0.035000*%
%ADD16R,0.055000X0.055000*%
%ADD17C,0.055000*%
%ADD18R,0.051200X0.011800*%
%ADD19R,0.011800X0.051200*%
%ADD20R,0.078740X0.118110*%
%ADD21R,0.080000X0.060000*%
%ADD22R,0.068000X0.068000*%
%ADD23O,0.068000X0.068000*%
%ADD24C,0.078700*%
%ADD25C,0.050000*%
G04 APERTURE END LIST*
G54D10*
G54D11*
X67781Y-51616D02*
X68231Y-51616D01*
X68512Y-51841D02*
X68512Y-51448D01*
X68512Y-51251D02*
X68484Y-51279D01*
X68512Y-51307D01*
X68540Y-51279D01*
X68512Y-51251D01*
X68512Y-51307D01*
X68793Y-51841D02*
X68793Y-51251D01*
X68849Y-51616D02*
X69018Y-51841D01*
X69018Y-51448D02*
X68793Y-51673D01*
G54D12*
X78640Y-45868D03*
X78640Y-50588D03*
X78640Y-50388D03*
X78640Y-50198D03*
X78640Y-49998D03*
X78640Y-49798D03*
X78640Y-49608D03*
X78640Y-49408D03*
X78640Y-49208D03*
X78640Y-49018D03*
X78640Y-48818D03*
X78640Y-48618D03*
X78640Y-48418D03*
X78640Y-48228D03*
X78640Y-48028D03*
X78640Y-47828D03*
X78640Y-47638D03*
X78640Y-47438D03*
X78640Y-47238D03*
X78640Y-47048D03*
X78640Y-46848D03*
X78640Y-46648D03*
X78640Y-46458D03*
X78640Y-46258D03*
X78640Y-46058D03*
G54D13*
X77950Y-51278D03*
X73230Y-51278D03*
X73430Y-51278D03*
X73620Y-51278D03*
X73820Y-51278D03*
X74020Y-51278D03*
X74210Y-51278D03*
X74410Y-51278D03*
X74610Y-51278D03*
X74800Y-51278D03*
X75000Y-51278D03*
X75200Y-51278D03*
X75400Y-51278D03*
X75590Y-51278D03*
X75790Y-51278D03*
X75990Y-51278D03*
X76180Y-51278D03*
X76380Y-51278D03*
X76580Y-51278D03*
X76770Y-51278D03*
X76970Y-51278D03*
X77170Y-51278D03*
X77360Y-51278D03*
X77560Y-51278D03*
X77760Y-51278D03*
X77950Y-45178D03*
X77750Y-45178D03*
X77560Y-45178D03*
X77360Y-45178D03*
X77160Y-45178D03*
X76970Y-45178D03*
X76770Y-45178D03*
X76570Y-45178D03*
X76380Y-45178D03*
X76180Y-45178D03*
X75980Y-45178D03*
X75780Y-45178D03*
X75590Y-45178D03*
X75390Y-45178D03*
X75190Y-45178D03*
X75000Y-45178D03*
X74800Y-45178D03*
X74600Y-45178D03*
X74410Y-45178D03*
X74210Y-45178D03*
X74010Y-45178D03*
X73820Y-45178D03*
X73620Y-45178D03*
X73420Y-45178D03*
X73230Y-45178D03*
G54D12*
X72540Y-45868D03*
X72540Y-46068D03*
X72540Y-46258D03*
X72540Y-46458D03*
X72540Y-46658D03*
X72540Y-46848D03*
X72540Y-47048D03*
X72540Y-47248D03*
X72540Y-47438D03*
X72540Y-47638D03*
X72540Y-47838D03*
X72540Y-48038D03*
X72540Y-48228D03*
X72540Y-48428D03*
X72540Y-48628D03*
X72540Y-48818D03*
X72540Y-49018D03*
X72540Y-49218D03*
X72540Y-49408D03*
X72540Y-49608D03*
X72540Y-49808D03*
X72540Y-49998D03*
X72540Y-50198D03*
X72540Y-50398D03*
X72540Y-50588D03*
G54D14*
X77835Y-52165D03*
X77085Y-52165D03*
G54D15*
X79724Y-46967D03*
X79724Y-47717D03*
G54D14*
X77441Y-44291D03*
X76691Y-44291D03*
X72126Y-51082D03*
X71376Y-51082D03*
X73739Y-44291D03*
X74489Y-44291D03*
G54D15*
X79527Y-49526D03*
X79527Y-50276D03*
X78740Y-44961D03*
X78740Y-44211D03*
G54D14*
X66418Y-49015D03*
X65668Y-49015D03*
G54D15*
X66437Y-50117D03*
X66437Y-50867D03*
X70866Y-46634D03*
X70866Y-45884D03*
X66535Y-48111D03*
X66535Y-47361D03*
G54D14*
X65963Y-54330D03*
X66713Y-54330D03*
G54D16*
X63681Y-51220D03*
G54D17*
X63681Y-50220D03*
X63681Y-49220D03*
X63681Y-48220D03*
X63681Y-47220D03*
G54D16*
X66952Y-44192D03*
G54D17*
X65952Y-44192D03*
X64952Y-44192D03*
X63952Y-44192D03*
G54D16*
X80905Y-50531D03*
G54D17*
X80905Y-49531D03*
X80905Y-48531D03*
X80905Y-47531D03*
X80905Y-46531D03*
X80905Y-45531D03*
G54D15*
X67248Y-50096D03*
X67248Y-50846D03*
X64763Y-51162D03*
X64763Y-50412D03*
X64763Y-49292D03*
X64763Y-48542D03*
X64763Y-47164D03*
X64763Y-47914D03*
G54D14*
X80197Y-51653D03*
X79447Y-51653D03*
G54D18*
X70708Y-48720D03*
X70708Y-48523D03*
X70708Y-48326D03*
X70708Y-48130D03*
X70708Y-47933D03*
X70708Y-49311D03*
X70708Y-49114D03*
X70708Y-48917D03*
G54D19*
X70177Y-46614D03*
X69980Y-46614D03*
X69783Y-46614D03*
X69586Y-46614D03*
X69389Y-46614D03*
X69192Y-46614D03*
X68996Y-46614D03*
X68799Y-46614D03*
G54D18*
X67480Y-47145D03*
X67480Y-47342D03*
X67480Y-47539D03*
X67480Y-47736D03*
X67480Y-47933D03*
X67480Y-48130D03*
X67480Y-48326D03*
X67480Y-48523D03*
G54D19*
X68011Y-49842D03*
X68208Y-49842D03*
X68405Y-49842D03*
X68602Y-49842D03*
X68799Y-49842D03*
X68996Y-49842D03*
X69192Y-49842D03*
X69389Y-49842D03*
G54D18*
X70708Y-47736D03*
X70708Y-47539D03*
X70708Y-47342D03*
X70708Y-47145D03*
G54D19*
X68602Y-46614D03*
X68405Y-46614D03*
X68208Y-46614D03*
X68011Y-46614D03*
G54D18*
X67480Y-48720D03*
X67480Y-48917D03*
X67480Y-49114D03*
X67480Y-49311D03*
G54D19*
X69586Y-49842D03*
X69783Y-49842D03*
X69980Y-49842D03*
X70177Y-49842D03*
G54D20*
X79921Y-44291D03*
X80905Y-44291D03*
G54D21*
X67638Y-54283D03*
X67638Y-52983D03*
X65079Y-54280D03*
X65079Y-52980D03*
G54D22*
X80110Y-53787D03*
G54D23*
X80110Y-52787D03*
X81110Y-53787D03*
X81110Y-52787D03*
G54D24*
X76476Y-47381D03*
X76574Y-50137D03*
X77854Y-50137D03*
X76574Y-49153D03*
G54D22*
X68828Y-54350D03*
G54D23*
X68828Y-53350D03*
X69828Y-54350D03*
X69828Y-53350D03*
X70828Y-54350D03*
X70828Y-53350D03*
X71828Y-54350D03*
X71828Y-53350D03*
X72828Y-54350D03*
X72828Y-53350D03*
X73828Y-54350D03*
X73828Y-53350D03*
X74828Y-54350D03*
X74828Y-53350D03*
X75828Y-54350D03*
X75828Y-53350D03*
X76828Y-54350D03*
X76828Y-53350D03*
X77828Y-54350D03*
X77828Y-53350D03*
X78828Y-54350D03*
X78828Y-53350D03*
G54D25*
X74507Y-50590D03*
X67224Y-51870D03*
X66338Y-53444D03*
X76586Y-52141D03*
X70078Y-49212D03*
X66535Y-46850D03*
X68208Y-50492D03*
X73129Y-49507D03*
X73818Y-46948D03*
X80413Y-48031D03*
X76082Y-44291D03*
X79429Y-45275D03*
X79140Y-50878D03*
X70767Y-51377D03*
X71571Y-45744D03*
X75098Y-44291D03*
X63779Y-53444D03*
X65452Y-49704D03*
X65649Y-48031D03*
X71530Y-46348D03*
X78740Y-51653D03*
X77156Y-50698D03*
X68056Y-47497D03*
X76585Y-45841D03*
X77336Y-46203D03*
X77755Y-46653D03*
X77755Y-47342D03*
X70070Y-48033D03*
X75027Y-45767D03*
X69501Y-48093D03*
X75397Y-46358D03*
X68931Y-48201D03*
X75787Y-45767D03*
X68432Y-47925D03*
X76221Y-46300D03*
X73830Y-46258D03*
X69881Y-45767D03*
X69980Y-47244D03*
X74218Y-45773D03*
X69412Y-47363D03*
X74657Y-46355D03*
X80019Y-45472D03*
X80348Y-47053D03*
X78346Y-52559D03*
X73228Y-45964D03*
X73129Y-44291D03*
X78051Y-44586D03*
X73720Y-50590D03*
X79527Y-48917D03*
X77751Y-49248D03*
X77263Y-48622D03*
X77854Y-48523D03*
X77854Y-47933D03*
M02*
