%FSLAX34Y34*%
G04 Gerber Fmt 3.4, Leading zero omitted, Abs format*
G04 (created by PCBNEW (2014-06-26 BZR 4956)-product) date 03/07/2014 22:05:42*
%MOIN*%
G01*
G70*
G90*
G04 APERTURE LIST*
%ADD10C,0.003937*%
%ADD11C,0.011811*%
%ADD12R,0.035000X0.055000*%
%ADD13R,0.055000X0.035000*%
%ADD14R,0.055000X0.055000*%
%ADD15C,0.055000*%
%ADD16R,0.023622X0.059055*%
%ADD17R,0.068000X0.068000*%
%ADD18O,0.068000X0.068000*%
%ADD19C,0.078700*%
%ADD20C,0.050000*%
%ADD21C,0.012000*%
%ADD22C,0.010000*%
%ADD23C,0.015000*%
%ADD24C,0.008000*%
G04 APERTURE END LIST*
G54D10*
G54D11*
X69029Y-51616D02*
X68579Y-51616D01*
X68298Y-51841D02*
X68298Y-51448D01*
X68298Y-51251D02*
X68326Y-51279D01*
X68298Y-51307D01*
X68270Y-51279D01*
X68298Y-51251D01*
X68298Y-51307D01*
X68017Y-51841D02*
X68017Y-51251D01*
X67961Y-51616D02*
X67792Y-51841D01*
X67792Y-51448D02*
X68017Y-51673D01*
G54D12*
X73739Y-51279D03*
X74489Y-51279D03*
G54D13*
X72342Y-50276D03*
X72342Y-49526D03*
G54D12*
X77835Y-52165D03*
X77085Y-52165D03*
G54D13*
X79724Y-46967D03*
X79724Y-47717D03*
G54D12*
X73739Y-44291D03*
X74489Y-44291D03*
X72126Y-51082D03*
X71376Y-51082D03*
G54D13*
X73228Y-46475D03*
X73228Y-47225D03*
G54D12*
X73739Y-49803D03*
X74489Y-49803D03*
G54D13*
X70866Y-46634D03*
X70866Y-45884D03*
G54D14*
X63681Y-51220D03*
G54D15*
X63681Y-50220D03*
X63681Y-49220D03*
X63681Y-48220D03*
X63681Y-47220D03*
G54D14*
X66952Y-44192D03*
G54D15*
X65952Y-44192D03*
X64952Y-44192D03*
X63952Y-44192D03*
G54D14*
X80905Y-50531D03*
G54D15*
X80905Y-49531D03*
X80905Y-48531D03*
X80905Y-47531D03*
X80905Y-46531D03*
X80905Y-45531D03*
G54D16*
X63559Y-52283D03*
X64059Y-52283D03*
X64559Y-52283D03*
X65059Y-52283D03*
X65559Y-52283D03*
X66059Y-52283D03*
X66559Y-52283D03*
X66559Y-54409D03*
X66059Y-54409D03*
X65559Y-54409D03*
X65059Y-54409D03*
X64559Y-54409D03*
X64059Y-54409D03*
X63559Y-54409D03*
G54D17*
X80110Y-53787D03*
G54D18*
X80110Y-52787D03*
X81110Y-53787D03*
X81110Y-52787D03*
G54D19*
X76476Y-47381D03*
X76574Y-50137D03*
X77854Y-50137D03*
X76574Y-49153D03*
G54D12*
X63995Y-46023D03*
X64745Y-46023D03*
X78955Y-46220D03*
X79705Y-46220D03*
G54D13*
X78897Y-47717D03*
X78897Y-46967D03*
G54D17*
X68828Y-54350D03*
G54D18*
X68828Y-53350D03*
X69828Y-54350D03*
X69828Y-53350D03*
X70828Y-54350D03*
X70828Y-53350D03*
X71828Y-54350D03*
X71828Y-53350D03*
X72828Y-54350D03*
X72828Y-53350D03*
X73828Y-54350D03*
X73828Y-53350D03*
X74828Y-54350D03*
X74828Y-53350D03*
X75828Y-54350D03*
X75828Y-53350D03*
X76828Y-54350D03*
X76828Y-53350D03*
X77828Y-54350D03*
X77828Y-53350D03*
X78828Y-54350D03*
X78828Y-53350D03*
G54D20*
X74507Y-50590D03*
X67224Y-51870D03*
X66338Y-53444D03*
X76586Y-52141D03*
X70078Y-49212D03*
X66535Y-46850D03*
X68208Y-50492D03*
X73129Y-49507D03*
X73818Y-46948D03*
X80413Y-48031D03*
X76082Y-44291D03*
X79429Y-45275D03*
X79140Y-50878D03*
X70767Y-51377D03*
X71571Y-45744D03*
X75098Y-44291D03*
X63779Y-53444D03*
X65452Y-49704D03*
X65649Y-48031D03*
X71530Y-46348D03*
X78740Y-51653D03*
X77156Y-50698D03*
X68056Y-47497D03*
X76585Y-45841D03*
X77336Y-46203D03*
X77755Y-46653D03*
X77755Y-47342D03*
X70070Y-48033D03*
X75027Y-45767D03*
X69501Y-48093D03*
X75397Y-46358D03*
X68931Y-48201D03*
X75787Y-45767D03*
X68432Y-47925D03*
X76221Y-46300D03*
X73830Y-46258D03*
X69881Y-45767D03*
X69980Y-47244D03*
X74218Y-45773D03*
X69412Y-47363D03*
X74657Y-46355D03*
X80019Y-45472D03*
X80348Y-47053D03*
X78346Y-52559D03*
X73228Y-45964D03*
X73129Y-44291D03*
X78051Y-44586D03*
X73720Y-50590D03*
X79527Y-48917D03*
X77751Y-49248D03*
X77263Y-48622D03*
X77854Y-48523D03*
X77854Y-47933D03*
G54D21*
X74489Y-49803D02*
X74489Y-50571D01*
G54D22*
X74507Y-50590D02*
X74507Y-51260D01*
G54D21*
X74489Y-50571D02*
X74507Y-50590D01*
G54D23*
X77085Y-52165D02*
X76610Y-52165D01*
X76610Y-52165D02*
X76586Y-52141D01*
X66559Y-52283D02*
X66811Y-52283D01*
X66811Y-52283D02*
X67224Y-51870D01*
G54D21*
X66088Y-53694D02*
X66338Y-53444D01*
X65903Y-53838D02*
X65944Y-53838D01*
X65944Y-53838D02*
X66088Y-53694D01*
X65059Y-53838D02*
X65903Y-53838D01*
X65903Y-53838D02*
X66059Y-53994D01*
X66059Y-53994D02*
X66059Y-54409D01*
X64059Y-54409D02*
X64059Y-53994D01*
X64059Y-53994D02*
X64214Y-53838D01*
X64214Y-53838D02*
X65059Y-53838D01*
X65059Y-53838D02*
X65059Y-54409D01*
G54D24*
X79724Y-47717D02*
X79724Y-47440D01*
X79724Y-47440D02*
X79625Y-47342D01*
X79625Y-47342D02*
X79017Y-47342D01*
X79017Y-47342D02*
X78897Y-47222D01*
X78897Y-47222D02*
X78897Y-46967D01*
G54D21*
X72342Y-49526D02*
X73111Y-49526D01*
X73111Y-49526D02*
X73129Y-49507D01*
X73818Y-47145D02*
X73739Y-47225D01*
X73739Y-47225D02*
X73228Y-47225D01*
X73818Y-46948D02*
X73818Y-47145D01*
X80099Y-47717D02*
X80413Y-48031D01*
X79724Y-47717D02*
X80099Y-47717D01*
G54D22*
X74507Y-51260D02*
X74489Y-51279D01*
G54D23*
X71062Y-51082D02*
X70767Y-51377D01*
X71376Y-51082D02*
X71062Y-51082D01*
X71430Y-45884D02*
X71571Y-45744D01*
X70866Y-45884D02*
X71430Y-45884D01*
G54D21*
X74489Y-44291D02*
X75098Y-44291D01*
G54D23*
X70866Y-46634D02*
X71291Y-46634D01*
X71291Y-46634D02*
X71530Y-46395D01*
X71530Y-46395D02*
X71530Y-46348D01*
G54D24*
X78740Y-51653D02*
X75669Y-51653D01*
X75669Y-51653D02*
X74488Y-52834D01*
X74488Y-52834D02*
X69344Y-52834D01*
X69344Y-52834D02*
X68828Y-53350D01*
X78168Y-54010D02*
X77828Y-54350D01*
X78346Y-53832D02*
X78168Y-54010D01*
X79100Y-52338D02*
X78346Y-53091D01*
X78317Y-50698D02*
X79100Y-51480D01*
X77156Y-50698D02*
X78317Y-50698D01*
X79100Y-51480D02*
X79100Y-52338D01*
X78346Y-53091D02*
X78346Y-53832D01*
X66059Y-52283D02*
X66059Y-44299D01*
X66059Y-44299D02*
X65952Y-44192D01*
X65059Y-46653D02*
X65059Y-46456D01*
X65059Y-46456D02*
X65157Y-46358D01*
X65157Y-46358D02*
X65157Y-45669D01*
X65157Y-45669D02*
X65059Y-45570D01*
G54D22*
X65059Y-45570D02*
X65059Y-44688D01*
G54D24*
X65059Y-44688D02*
X64952Y-44581D01*
X64952Y-44581D02*
X64952Y-44192D01*
X65059Y-51021D02*
X65059Y-52283D01*
X65059Y-46653D02*
X65059Y-51021D01*
X65059Y-46825D02*
X65059Y-46653D01*
X64059Y-52283D02*
X64059Y-52106D01*
X64059Y-52106D02*
X64745Y-51420D01*
X64745Y-51420D02*
X64745Y-46023D01*
X80905Y-48531D02*
X79437Y-48531D01*
X79437Y-48531D02*
X78897Y-47992D01*
X78897Y-47992D02*
X78897Y-47717D01*
X76585Y-46445D02*
X76585Y-46195D01*
X74178Y-48852D02*
X76585Y-46445D01*
X68056Y-48059D02*
X68849Y-48852D01*
X68849Y-48852D02*
X74178Y-48852D01*
X68056Y-47497D02*
X68056Y-48059D01*
X76585Y-46195D02*
X76585Y-45841D01*
X77336Y-46203D02*
X77060Y-46480D01*
X77060Y-46480D02*
X77060Y-47546D01*
X77060Y-47546D02*
X76549Y-48056D01*
X76549Y-48056D02*
X76057Y-48056D01*
X76057Y-48056D02*
X74910Y-49203D01*
X74910Y-49203D02*
X74910Y-51506D01*
X74910Y-51506D02*
X74152Y-52263D01*
X74152Y-52263D02*
X67224Y-52263D01*
X67224Y-52263D02*
X66732Y-52755D01*
X66732Y-52755D02*
X65656Y-52755D01*
X65656Y-52755D02*
X65559Y-52658D01*
X65559Y-52658D02*
X65559Y-52283D01*
X76068Y-48340D02*
X75098Y-49311D01*
X76545Y-48340D02*
X76068Y-48340D01*
X77344Y-47541D02*
X76545Y-48340D01*
X77755Y-46653D02*
X77344Y-47064D01*
X75098Y-51530D02*
X74215Y-52413D01*
X75098Y-49311D02*
X75098Y-51530D01*
X77344Y-47064D02*
X77344Y-47541D01*
X74215Y-52413D02*
X67286Y-52413D01*
X64559Y-52460D02*
X64559Y-52283D01*
X65004Y-52905D02*
X64559Y-52460D01*
X66794Y-52905D02*
X65004Y-52905D01*
X67286Y-52413D02*
X66794Y-52905D01*
X63559Y-52460D02*
X63559Y-52283D01*
X64154Y-53055D02*
X63559Y-52460D01*
X66856Y-53055D02*
X64154Y-53055D01*
X74277Y-52563D02*
X67348Y-52563D01*
X75273Y-51567D02*
X74277Y-52563D01*
X75273Y-49471D02*
X75273Y-51567D01*
X76173Y-48571D02*
X75273Y-49471D01*
X76527Y-48571D02*
X76173Y-48571D01*
X77755Y-47342D02*
X76527Y-48571D01*
X67348Y-52563D02*
X66856Y-53055D01*
X70423Y-48033D02*
X70070Y-48033D01*
X75027Y-46740D02*
X73734Y-48033D01*
X73734Y-48033D02*
X70423Y-48033D01*
X75027Y-45767D02*
X75027Y-46740D01*
X75397Y-46711D02*
X73706Y-48402D01*
X69751Y-48343D02*
X69501Y-48093D01*
X73706Y-48402D02*
X69810Y-48402D01*
X69810Y-48402D02*
X69751Y-48343D01*
X75397Y-46358D02*
X75397Y-46711D01*
X75787Y-45767D02*
X75787Y-46819D01*
X75787Y-46819D02*
X74054Y-48552D01*
X74054Y-48552D02*
X69282Y-48552D01*
X69282Y-48552D02*
X69181Y-48451D01*
X69181Y-48451D02*
X68931Y-48201D01*
X68432Y-47925D02*
X68432Y-48214D01*
X68432Y-48214D02*
X68920Y-48702D01*
X68920Y-48702D02*
X74116Y-48702D01*
X74116Y-48702D02*
X75971Y-46847D01*
X75971Y-46847D02*
X75971Y-46550D01*
X75971Y-46550D02*
X76221Y-46300D01*
X73496Y-45570D02*
X73129Y-45570D01*
X73129Y-45570D02*
X72933Y-45374D01*
X73830Y-46258D02*
X73830Y-45904D01*
X73830Y-45904D02*
X73496Y-45570D01*
X69881Y-45767D02*
X70275Y-45374D01*
X72834Y-45374D02*
X72849Y-45374D01*
X70275Y-45374D02*
X72849Y-45374D01*
X72849Y-45374D02*
X72933Y-45374D01*
X73792Y-47523D02*
X74218Y-47096D01*
X74218Y-47096D02*
X74218Y-46127D01*
X69980Y-47244D02*
X70259Y-47523D01*
X70259Y-47523D02*
X73792Y-47523D01*
X74218Y-46127D02*
X74218Y-45773D01*
X74657Y-46884D02*
X74657Y-46709D01*
X69722Y-47673D02*
X73868Y-47673D01*
X74657Y-46709D02*
X74657Y-46355D01*
X69412Y-47363D02*
X69722Y-47673D01*
X73868Y-47673D02*
X74657Y-46884D01*
X79705Y-46220D02*
X79705Y-45865D01*
X79705Y-45865D02*
X80019Y-45551D01*
X80019Y-45551D02*
X80019Y-45472D01*
G54D21*
X79724Y-46967D02*
X80262Y-46967D01*
X80262Y-46967D02*
X80348Y-47053D01*
X73720Y-50590D02*
X73720Y-49821D01*
G54D23*
X77835Y-52540D02*
X77854Y-52559D01*
X77854Y-52559D02*
X78346Y-52559D01*
X77835Y-52165D02*
X77835Y-52540D01*
G54D22*
X63559Y-54409D02*
X63559Y-54799D01*
X63559Y-54799D02*
X63681Y-54921D01*
X63681Y-54921D02*
X67817Y-54921D01*
X67817Y-54921D02*
X68388Y-54350D01*
X68388Y-54350D02*
X68828Y-54350D01*
G54D24*
X78955Y-46220D02*
X78700Y-46220D01*
X78700Y-46220D02*
X78051Y-45570D01*
X78051Y-45570D02*
X78051Y-44940D01*
X78051Y-44940D02*
X78051Y-44586D01*
X79705Y-46948D02*
X79724Y-46967D01*
G54D21*
X72342Y-50276D02*
X72909Y-50276D01*
X72909Y-50276D02*
X73223Y-50590D01*
X73228Y-45964D02*
X73228Y-46475D01*
X73129Y-44291D02*
X73720Y-44291D01*
G54D22*
X73720Y-51260D02*
X73739Y-51279D01*
X73720Y-50590D02*
X73720Y-51260D01*
G54D21*
X73720Y-49821D02*
X73739Y-49803D01*
X72731Y-51082D02*
X72126Y-51082D01*
X73223Y-50590D02*
X72731Y-51082D01*
X73720Y-50590D02*
X73223Y-50590D01*
G54D24*
X80110Y-53787D02*
X79690Y-53787D01*
X79690Y-53787D02*
X79500Y-53597D01*
X79500Y-53597D02*
X79500Y-50643D01*
X79500Y-50643D02*
X78104Y-49248D01*
X78104Y-49248D02*
X77751Y-49248D01*
X77924Y-48888D02*
X77530Y-48888D01*
X77513Y-48872D02*
X77263Y-48622D01*
X80110Y-52787D02*
X79724Y-52401D01*
X77530Y-48888D02*
X77513Y-48872D01*
X79724Y-52401D02*
X79724Y-50451D01*
X79724Y-50451D02*
X78213Y-48940D01*
X78213Y-48940D02*
X77976Y-48940D01*
X77976Y-48940D02*
X77924Y-48888D01*
X81110Y-53787D02*
X80610Y-53287D01*
X80610Y-53287D02*
X80610Y-52362D01*
X80610Y-52362D02*
X79921Y-51673D01*
X79921Y-51673D02*
X79921Y-50335D01*
X79921Y-50335D02*
X78359Y-48773D01*
X78359Y-48773D02*
X78104Y-48773D01*
X78104Y-48773D02*
X77854Y-48523D01*
X78104Y-48183D02*
X77854Y-47933D01*
X81110Y-52787D02*
X81110Y-52306D01*
X81110Y-52306D02*
X80118Y-51314D01*
X80118Y-51314D02*
X80118Y-50196D01*
X80118Y-50196D02*
X78104Y-48183D01*
X63952Y-44192D02*
X63952Y-45981D01*
X63952Y-45981D02*
X63995Y-46023D01*
M02*
