M48
;DRILL file {pcbnew (2014-06-26 BZR 4956)-product} date 03/07/2014 22:05:44
;FORMAT={-:-/ absolute / inch / decimal}
FMAT,2
INCH,TZ
T1C0.025
T2C0.032
T3C0.032
T4C0.040
%
G90
G05
M72
T1
X6.378Y-5.3445
X6.5453Y-4.9705
X6.565Y-4.8031
X6.6339Y-5.3445
X6.6535Y-4.685
X6.7224Y-5.187
X6.8056Y-4.7497
X6.8209Y-5.0492
X6.8432Y-4.7926
X6.8931Y-4.8201
X6.9413Y-4.7364
X6.9501Y-4.8094
X6.9882Y-4.5768
X6.998Y-4.7244
X7.007Y-4.8033
X7.0079Y-4.9213
X7.0768Y-5.1378
X7.1531Y-4.6349
X7.1571Y-4.5744
X7.313Y-4.4291
X7.313Y-4.9508
X7.3228Y-4.5965
X7.372Y-5.0591
X7.3819Y-4.6949
X7.3831Y-4.6258
X7.4218Y-4.5774
X7.4508Y-5.0591
X7.4657Y-4.6356
X7.5027Y-4.5768
X7.5098Y-4.4291
X7.5397Y-4.6358
X7.5787Y-4.5768
X7.6083Y-4.4291
X7.6222Y-4.6301
X7.6586Y-4.5842
X7.6586Y-5.2141
X7.7156Y-5.0698
X7.7264Y-4.8622
X7.7337Y-4.6204
X7.7751Y-4.9248
X7.7756Y-4.6654
X7.7756Y-4.7343
X7.7854Y-4.7933
X7.7854Y-4.8524
X7.8051Y-4.4587
X7.8346Y-5.2559
X7.874Y-5.1654
X7.914Y-5.0878
X7.9429Y-4.5276
X7.9528Y-4.8917
X8.002Y-4.5472
X8.0348Y-4.7053
X8.0413Y-4.8031
T2
X7.6476Y-4.7382
X7.6575Y-4.9154
X7.6575Y-5.0138
X7.7854Y-5.0138
T3
X6.3681Y-4.722
X6.3681Y-4.822
X6.3681Y-4.922
X6.3681Y-5.022
X6.3681Y-5.122
X6.3953Y-4.4193
X6.4953Y-4.4193
X6.5953Y-4.4193
X6.6953Y-4.4193
X8.0906Y-4.5531
X8.0906Y-4.6531
X8.0906Y-4.7531
X8.0906Y-4.8531
X8.0906Y-4.9531
X8.0906Y-5.0531
T4
X6.8829Y-5.335
X6.8829Y-5.435
X6.9829Y-5.335
X6.9829Y-5.435
X7.0829Y-5.335
X7.0829Y-5.435
X7.1829Y-5.335
X7.1829Y-5.435
X7.2829Y-5.335
X7.2829Y-5.435
X7.3829Y-5.335
X7.3829Y-5.435
X7.4829Y-5.335
X7.4829Y-5.435
X7.5829Y-5.335
X7.5829Y-5.435
X7.6829Y-5.335
X7.6829Y-5.435
X7.7829Y-5.335
X7.7829Y-5.435
X7.8829Y-5.335
X7.8829Y-5.435
X8.011Y-5.2787
X8.011Y-5.3787
X8.111Y-5.2787
X8.111Y-5.3787
T0
M30
