%FSLAX34Y34*%
G04 Gerber Fmt 3.4, Leading zero omitted, Abs format*
G04 (created by PCBNEW (2014-06-26 BZR 4956)-product) date 03/07/2014 22:05:42*
%MOIN*%
G01*
G70*
G90*
G04 APERTURE LIST*
%ADD10C,0.003937*%
%ADD11R,0.055000X0.055000*%
%ADD12C,0.055000*%
%ADD13R,0.068000X0.068000*%
%ADD14O,0.068000X0.068000*%
%ADD15C,0.078700*%
%ADD16C,0.050000*%
%ADD17C,0.010000*%
G04 APERTURE END LIST*
G54D10*
G54D11*
X63681Y-51220D03*
G54D12*
X63681Y-50220D03*
X63681Y-49220D03*
X63681Y-48220D03*
X63681Y-47220D03*
G54D11*
X66952Y-44192D03*
G54D12*
X65952Y-44192D03*
X64952Y-44192D03*
X63952Y-44192D03*
G54D11*
X80905Y-50531D03*
G54D12*
X80905Y-49531D03*
X80905Y-48531D03*
X80905Y-47531D03*
X80905Y-46531D03*
X80905Y-45531D03*
G54D13*
X80110Y-53787D03*
G54D14*
X80110Y-52787D03*
X81110Y-53787D03*
X81110Y-52787D03*
G54D15*
X76476Y-47381D03*
X76574Y-50137D03*
X77854Y-50137D03*
X76574Y-49153D03*
G54D13*
X68828Y-54350D03*
G54D14*
X68828Y-53350D03*
X69828Y-54350D03*
X69828Y-53350D03*
X70828Y-54350D03*
X70828Y-53350D03*
X71828Y-54350D03*
X71828Y-53350D03*
X72828Y-54350D03*
X72828Y-53350D03*
X73828Y-54350D03*
X73828Y-53350D03*
X74828Y-54350D03*
X74828Y-53350D03*
X75828Y-54350D03*
X75828Y-53350D03*
X76828Y-54350D03*
X76828Y-53350D03*
X77828Y-54350D03*
X77828Y-53350D03*
X78828Y-54350D03*
X78828Y-53350D03*
G54D16*
X74507Y-50590D03*
X67224Y-51870D03*
X66338Y-53444D03*
X76586Y-52141D03*
X70078Y-49212D03*
X66535Y-46850D03*
X68208Y-50492D03*
X73129Y-49507D03*
X73818Y-46948D03*
X80413Y-48031D03*
X76082Y-44291D03*
X79429Y-45275D03*
X79140Y-50878D03*
X70767Y-51377D03*
X71571Y-45744D03*
X75098Y-44291D03*
X63779Y-53444D03*
X65452Y-49704D03*
X65649Y-48031D03*
X71530Y-46348D03*
X78740Y-51653D03*
X77156Y-50698D03*
X68056Y-47497D03*
X76585Y-45841D03*
X77336Y-46203D03*
X77755Y-46653D03*
X77755Y-47342D03*
X70070Y-48033D03*
X75027Y-45767D03*
X69501Y-48093D03*
X75397Y-46358D03*
X68931Y-48201D03*
X75787Y-45767D03*
X68432Y-47925D03*
X76221Y-46300D03*
X73830Y-46258D03*
X69881Y-45767D03*
X69980Y-47244D03*
X74218Y-45773D03*
X69412Y-47363D03*
X74657Y-46355D03*
X80019Y-45472D03*
X80348Y-47053D03*
X78346Y-52559D03*
X73228Y-45964D03*
X73129Y-44291D03*
X78051Y-44586D03*
X73720Y-50590D03*
X79527Y-48917D03*
X77751Y-49248D03*
X77263Y-48622D03*
X77854Y-48523D03*
X77854Y-47933D03*
G54D17*
G36*
X71800Y-51721D02*
X71131Y-51721D01*
X71191Y-51661D01*
X71267Y-51477D01*
X71267Y-51278D01*
X71191Y-51095D01*
X71051Y-50954D01*
X70867Y-50878D01*
X70668Y-50877D01*
X70578Y-50914D01*
X70578Y-49113D01*
X70570Y-49092D01*
X70570Y-47934D01*
X70494Y-47750D01*
X70353Y-47609D01*
X70331Y-47600D01*
X70403Y-47527D01*
X70480Y-47343D01*
X70480Y-47145D01*
X70404Y-46961D01*
X70381Y-46938D01*
X70381Y-45668D01*
X70306Y-45484D01*
X70165Y-45344D01*
X69981Y-45267D01*
X69782Y-45267D01*
X69599Y-45343D01*
X69458Y-45484D01*
X69381Y-45667D01*
X69381Y-45866D01*
X69457Y-46050D01*
X69598Y-46191D01*
X69781Y-46267D01*
X69980Y-46267D01*
X70164Y-46191D01*
X70305Y-46051D01*
X70381Y-45867D01*
X70381Y-45668D01*
X70381Y-46938D01*
X70263Y-46820D01*
X70080Y-46744D01*
X69881Y-46744D01*
X69697Y-46819D01*
X69612Y-46905D01*
X69512Y-46863D01*
X69313Y-46863D01*
X69129Y-46939D01*
X68989Y-47080D01*
X68912Y-47263D01*
X68912Y-47462D01*
X68988Y-47646D01*
X69052Y-47710D01*
X69031Y-47701D01*
X68880Y-47701D01*
X68856Y-47642D01*
X68715Y-47502D01*
X68556Y-47435D01*
X68556Y-47398D01*
X68480Y-47214D01*
X68340Y-47073D01*
X68156Y-46997D01*
X67957Y-46997D01*
X67773Y-47073D01*
X67632Y-47213D01*
X67556Y-47397D01*
X67556Y-47596D01*
X67632Y-47780D01*
X67772Y-47920D01*
X67932Y-47986D01*
X67932Y-48024D01*
X68008Y-48208D01*
X68148Y-48349D01*
X68332Y-48425D01*
X68482Y-48425D01*
X68507Y-48484D01*
X68647Y-48624D01*
X68831Y-48701D01*
X69030Y-48701D01*
X69214Y-48625D01*
X69291Y-48548D01*
X69401Y-48593D01*
X69600Y-48593D01*
X69784Y-48517D01*
X69828Y-48474D01*
X69970Y-48533D01*
X70169Y-48533D01*
X70352Y-48457D01*
X70493Y-48316D01*
X70569Y-48133D01*
X70570Y-47934D01*
X70570Y-49092D01*
X70502Y-48929D01*
X70362Y-48788D01*
X70178Y-48712D01*
X69979Y-48712D01*
X69795Y-48788D01*
X69655Y-48929D01*
X69578Y-49112D01*
X69578Y-49311D01*
X69654Y-49495D01*
X69795Y-49636D01*
X69978Y-49712D01*
X70177Y-49712D01*
X70361Y-49636D01*
X70502Y-49496D01*
X70578Y-49312D01*
X70578Y-49113D01*
X70578Y-50914D01*
X70484Y-50953D01*
X70344Y-51094D01*
X70267Y-51278D01*
X70267Y-51476D01*
X70343Y-51660D01*
X70404Y-51721D01*
X68708Y-51721D01*
X68708Y-50393D01*
X68632Y-50209D01*
X68492Y-50068D01*
X68308Y-49992D01*
X68109Y-49992D01*
X67925Y-50067D01*
X67785Y-50208D01*
X67708Y-50392D01*
X67708Y-50591D01*
X67784Y-50774D01*
X67925Y-50915D01*
X68108Y-50992D01*
X68307Y-50992D01*
X68491Y-50916D01*
X68632Y-50775D01*
X68708Y-50592D01*
X68708Y-50393D01*
X68708Y-51721D01*
X67704Y-51721D01*
X67648Y-51587D01*
X67508Y-51446D01*
X67324Y-51370D01*
X67125Y-51369D01*
X67035Y-51407D01*
X67035Y-46751D01*
X66959Y-46567D01*
X66819Y-46426D01*
X66635Y-46350D01*
X66436Y-46350D01*
X66252Y-46426D01*
X66111Y-46566D01*
X66035Y-46750D01*
X66035Y-46949D01*
X66111Y-47133D01*
X66251Y-47274D01*
X66435Y-47350D01*
X66634Y-47350D01*
X66818Y-47274D01*
X66959Y-47133D01*
X67035Y-46950D01*
X67035Y-46751D01*
X67035Y-51407D01*
X66941Y-51445D01*
X66800Y-51586D01*
X66724Y-51770D01*
X66724Y-51969D01*
X66800Y-52152D01*
X66940Y-52293D01*
X67124Y-52369D01*
X67323Y-52370D01*
X67507Y-52294D01*
X67648Y-52153D01*
X67666Y-52109D01*
X67666Y-55025D01*
X66838Y-55025D01*
X66838Y-53345D01*
X66762Y-53162D01*
X66622Y-53021D01*
X66438Y-52944D01*
X66239Y-52944D01*
X66055Y-53020D01*
X65914Y-53161D01*
X65838Y-53344D01*
X65838Y-53543D01*
X65914Y-53727D01*
X66054Y-53868D01*
X66238Y-53944D01*
X66437Y-53944D01*
X66621Y-53869D01*
X66762Y-53728D01*
X66838Y-53544D01*
X66838Y-53345D01*
X66838Y-55025D01*
X64206Y-55025D01*
X64206Y-50116D01*
X64126Y-49923D01*
X63978Y-49775D01*
X63845Y-49720D01*
X63978Y-49665D01*
X64125Y-49518D01*
X64206Y-49325D01*
X64206Y-49116D01*
X64126Y-48923D01*
X63978Y-48775D01*
X63845Y-48720D01*
X63978Y-48665D01*
X64125Y-48518D01*
X64206Y-48325D01*
X64206Y-48116D01*
X64126Y-47923D01*
X63978Y-47775D01*
X63845Y-47720D01*
X63978Y-47665D01*
X64125Y-47518D01*
X64206Y-47325D01*
X64206Y-47116D01*
X64126Y-46923D01*
X63978Y-46775D01*
X63785Y-46695D01*
X63577Y-46695D01*
X63384Y-46775D01*
X63236Y-46922D01*
X63156Y-47115D01*
X63156Y-47324D01*
X63235Y-47517D01*
X63383Y-47665D01*
X63516Y-47720D01*
X63384Y-47775D01*
X63236Y-47922D01*
X63156Y-48115D01*
X63156Y-48324D01*
X63235Y-48517D01*
X63383Y-48665D01*
X63516Y-48720D01*
X63384Y-48775D01*
X63236Y-48922D01*
X63156Y-49115D01*
X63156Y-49324D01*
X63235Y-49517D01*
X63383Y-49665D01*
X63516Y-49720D01*
X63384Y-49775D01*
X63236Y-49922D01*
X63156Y-50115D01*
X63156Y-50324D01*
X63235Y-50517D01*
X63383Y-50665D01*
X63456Y-50695D01*
X63356Y-50695D01*
X63264Y-50733D01*
X63194Y-50803D01*
X63156Y-50895D01*
X63156Y-50995D01*
X63156Y-51545D01*
X63194Y-51637D01*
X63264Y-51707D01*
X63356Y-51745D01*
X63455Y-51745D01*
X64005Y-51745D01*
X64097Y-51707D01*
X64168Y-51637D01*
X64206Y-51545D01*
X64206Y-51445D01*
X64206Y-50895D01*
X64168Y-50803D01*
X64097Y-50733D01*
X64005Y-50695D01*
X63906Y-50695D01*
X63906Y-50695D01*
X63978Y-50665D01*
X64125Y-50518D01*
X64206Y-50325D01*
X64206Y-50116D01*
X64206Y-55025D01*
X62887Y-55025D01*
X62887Y-43793D01*
X63609Y-43793D01*
X63507Y-43895D01*
X63427Y-44088D01*
X63427Y-44296D01*
X63507Y-44489D01*
X63654Y-44637D01*
X63847Y-44717D01*
X64056Y-44718D01*
X64249Y-44638D01*
X64397Y-44490D01*
X64452Y-44357D01*
X64507Y-44489D01*
X64654Y-44637D01*
X64847Y-44717D01*
X65056Y-44718D01*
X65249Y-44638D01*
X65397Y-44490D01*
X65452Y-44357D01*
X65507Y-44489D01*
X65654Y-44637D01*
X65847Y-44717D01*
X66056Y-44718D01*
X66249Y-44638D01*
X66397Y-44490D01*
X66427Y-44417D01*
X66427Y-44517D01*
X66465Y-44609D01*
X66536Y-44679D01*
X66628Y-44717D01*
X66727Y-44717D01*
X67277Y-44717D01*
X67369Y-44679D01*
X67439Y-44609D01*
X67477Y-44517D01*
X67477Y-44418D01*
X67477Y-43868D01*
X67446Y-43793D01*
X71800Y-43793D01*
X71800Y-45297D01*
X71671Y-45244D01*
X71472Y-45243D01*
X71288Y-45319D01*
X71147Y-45460D01*
X71071Y-45644D01*
X71071Y-45843D01*
X71147Y-46026D01*
X71287Y-46167D01*
X71471Y-46243D01*
X71670Y-46244D01*
X71800Y-46190D01*
X71800Y-51721D01*
X71800Y-51721D01*
G37*
X71800Y-51721D02*
X71131Y-51721D01*
X71191Y-51661D01*
X71267Y-51477D01*
X71267Y-51278D01*
X71191Y-51095D01*
X71051Y-50954D01*
X70867Y-50878D01*
X70668Y-50877D01*
X70578Y-50914D01*
X70578Y-49113D01*
X70570Y-49092D01*
X70570Y-47934D01*
X70494Y-47750D01*
X70353Y-47609D01*
X70331Y-47600D01*
X70403Y-47527D01*
X70480Y-47343D01*
X70480Y-47145D01*
X70404Y-46961D01*
X70381Y-46938D01*
X70381Y-45668D01*
X70306Y-45484D01*
X70165Y-45344D01*
X69981Y-45267D01*
X69782Y-45267D01*
X69599Y-45343D01*
X69458Y-45484D01*
X69381Y-45667D01*
X69381Y-45866D01*
X69457Y-46050D01*
X69598Y-46191D01*
X69781Y-46267D01*
X69980Y-46267D01*
X70164Y-46191D01*
X70305Y-46051D01*
X70381Y-45867D01*
X70381Y-45668D01*
X70381Y-46938D01*
X70263Y-46820D01*
X70080Y-46744D01*
X69881Y-46744D01*
X69697Y-46819D01*
X69612Y-46905D01*
X69512Y-46863D01*
X69313Y-46863D01*
X69129Y-46939D01*
X68989Y-47080D01*
X68912Y-47263D01*
X68912Y-47462D01*
X68988Y-47646D01*
X69052Y-47710D01*
X69031Y-47701D01*
X68880Y-47701D01*
X68856Y-47642D01*
X68715Y-47502D01*
X68556Y-47435D01*
X68556Y-47398D01*
X68480Y-47214D01*
X68340Y-47073D01*
X68156Y-46997D01*
X67957Y-46997D01*
X67773Y-47073D01*
X67632Y-47213D01*
X67556Y-47397D01*
X67556Y-47596D01*
X67632Y-47780D01*
X67772Y-47920D01*
X67932Y-47986D01*
X67932Y-48024D01*
X68008Y-48208D01*
X68148Y-48349D01*
X68332Y-48425D01*
X68482Y-48425D01*
X68507Y-48484D01*
X68647Y-48624D01*
X68831Y-48701D01*
X69030Y-48701D01*
X69214Y-48625D01*
X69291Y-48548D01*
X69401Y-48593D01*
X69600Y-48593D01*
X69784Y-48517D01*
X69828Y-48474D01*
X69970Y-48533D01*
X70169Y-48533D01*
X70352Y-48457D01*
X70493Y-48316D01*
X70569Y-48133D01*
X70570Y-47934D01*
X70570Y-49092D01*
X70502Y-48929D01*
X70362Y-48788D01*
X70178Y-48712D01*
X69979Y-48712D01*
X69795Y-48788D01*
X69655Y-48929D01*
X69578Y-49112D01*
X69578Y-49311D01*
X69654Y-49495D01*
X69795Y-49636D01*
X69978Y-49712D01*
X70177Y-49712D01*
X70361Y-49636D01*
X70502Y-49496D01*
X70578Y-49312D01*
X70578Y-49113D01*
X70578Y-50914D01*
X70484Y-50953D01*
X70344Y-51094D01*
X70267Y-51278D01*
X70267Y-51476D01*
X70343Y-51660D01*
X70404Y-51721D01*
X68708Y-51721D01*
X68708Y-50393D01*
X68632Y-50209D01*
X68492Y-50068D01*
X68308Y-49992D01*
X68109Y-49992D01*
X67925Y-50067D01*
X67785Y-50208D01*
X67708Y-50392D01*
X67708Y-50591D01*
X67784Y-50774D01*
X67925Y-50915D01*
X68108Y-50992D01*
X68307Y-50992D01*
X68491Y-50916D01*
X68632Y-50775D01*
X68708Y-50592D01*
X68708Y-50393D01*
X68708Y-51721D01*
X67704Y-51721D01*
X67648Y-51587D01*
X67508Y-51446D01*
X67324Y-51370D01*
X67125Y-51369D01*
X67035Y-51407D01*
X67035Y-46751D01*
X66959Y-46567D01*
X66819Y-46426D01*
X66635Y-46350D01*
X66436Y-46350D01*
X66252Y-46426D01*
X66111Y-46566D01*
X66035Y-46750D01*
X66035Y-46949D01*
X66111Y-47133D01*
X66251Y-47274D01*
X66435Y-47350D01*
X66634Y-47350D01*
X66818Y-47274D01*
X66959Y-47133D01*
X67035Y-46950D01*
X67035Y-46751D01*
X67035Y-51407D01*
X66941Y-51445D01*
X66800Y-51586D01*
X66724Y-51770D01*
X66724Y-51969D01*
X66800Y-52152D01*
X66940Y-52293D01*
X67124Y-52369D01*
X67323Y-52370D01*
X67507Y-52294D01*
X67648Y-52153D01*
X67666Y-52109D01*
X67666Y-55025D01*
X66838Y-55025D01*
X66838Y-53345D01*
X66762Y-53162D01*
X66622Y-53021D01*
X66438Y-52944D01*
X66239Y-52944D01*
X66055Y-53020D01*
X65914Y-53161D01*
X65838Y-53344D01*
X65838Y-53543D01*
X65914Y-53727D01*
X66054Y-53868D01*
X66238Y-53944D01*
X66437Y-53944D01*
X66621Y-53869D01*
X66762Y-53728D01*
X66838Y-53544D01*
X66838Y-53345D01*
X66838Y-55025D01*
X64206Y-55025D01*
X64206Y-50116D01*
X64126Y-49923D01*
X63978Y-49775D01*
X63845Y-49720D01*
X63978Y-49665D01*
X64125Y-49518D01*
X64206Y-49325D01*
X64206Y-49116D01*
X64126Y-48923D01*
X63978Y-48775D01*
X63845Y-48720D01*
X63978Y-48665D01*
X64125Y-48518D01*
X64206Y-48325D01*
X64206Y-48116D01*
X64126Y-47923D01*
X63978Y-47775D01*
X63845Y-47720D01*
X63978Y-47665D01*
X64125Y-47518D01*
X64206Y-47325D01*
X64206Y-47116D01*
X64126Y-46923D01*
X63978Y-46775D01*
X63785Y-46695D01*
X63577Y-46695D01*
X63384Y-46775D01*
X63236Y-46922D01*
X63156Y-47115D01*
X63156Y-47324D01*
X63235Y-47517D01*
X63383Y-47665D01*
X63516Y-47720D01*
X63384Y-47775D01*
X63236Y-47922D01*
X63156Y-48115D01*
X63156Y-48324D01*
X63235Y-48517D01*
X63383Y-48665D01*
X63516Y-48720D01*
X63384Y-48775D01*
X63236Y-48922D01*
X63156Y-49115D01*
X63156Y-49324D01*
X63235Y-49517D01*
X63383Y-49665D01*
X63516Y-49720D01*
X63384Y-49775D01*
X63236Y-49922D01*
X63156Y-50115D01*
X63156Y-50324D01*
X63235Y-50517D01*
X63383Y-50665D01*
X63456Y-50695D01*
X63356Y-50695D01*
X63264Y-50733D01*
X63194Y-50803D01*
X63156Y-50895D01*
X63156Y-50995D01*
X63156Y-51545D01*
X63194Y-51637D01*
X63264Y-51707D01*
X63356Y-51745D01*
X63455Y-51745D01*
X64005Y-51745D01*
X64097Y-51707D01*
X64168Y-51637D01*
X64206Y-51545D01*
X64206Y-51445D01*
X64206Y-50895D01*
X64168Y-50803D01*
X64097Y-50733D01*
X64005Y-50695D01*
X63906Y-50695D01*
X63906Y-50695D01*
X63978Y-50665D01*
X64125Y-50518D01*
X64206Y-50325D01*
X64206Y-50116D01*
X64206Y-55025D01*
X62887Y-55025D01*
X62887Y-43793D01*
X63609Y-43793D01*
X63507Y-43895D01*
X63427Y-44088D01*
X63427Y-44296D01*
X63507Y-44489D01*
X63654Y-44637D01*
X63847Y-44717D01*
X64056Y-44718D01*
X64249Y-44638D01*
X64397Y-44490D01*
X64452Y-44357D01*
X64507Y-44489D01*
X64654Y-44637D01*
X64847Y-44717D01*
X65056Y-44718D01*
X65249Y-44638D01*
X65397Y-44490D01*
X65452Y-44357D01*
X65507Y-44489D01*
X65654Y-44637D01*
X65847Y-44717D01*
X66056Y-44718D01*
X66249Y-44638D01*
X66397Y-44490D01*
X66427Y-44417D01*
X66427Y-44517D01*
X66465Y-44609D01*
X66536Y-44679D01*
X66628Y-44717D01*
X66727Y-44717D01*
X67277Y-44717D01*
X67369Y-44679D01*
X67439Y-44609D01*
X67477Y-44517D01*
X67477Y-44418D01*
X67477Y-43868D01*
X67446Y-43793D01*
X71800Y-43793D01*
X71800Y-45297D01*
X71671Y-45244D01*
X71472Y-45243D01*
X71288Y-45319D01*
X71147Y-45460D01*
X71071Y-45644D01*
X71071Y-45843D01*
X71147Y-46026D01*
X71287Y-46167D01*
X71471Y-46243D01*
X71670Y-46244D01*
X71800Y-46190D01*
X71800Y-51721D01*
G36*
X81600Y-55025D02*
X79430Y-55025D01*
X79430Y-54350D01*
X79385Y-54124D01*
X79257Y-53932D01*
X79133Y-53850D01*
X79257Y-53767D01*
X79385Y-53575D01*
X79430Y-53350D01*
X79385Y-53124D01*
X79257Y-52932D01*
X79066Y-52804D01*
X78840Y-52760D01*
X78817Y-52760D01*
X78591Y-52804D01*
X78399Y-52932D01*
X78328Y-53039D01*
X78257Y-52932D01*
X78066Y-52804D01*
X77840Y-52760D01*
X77817Y-52760D01*
X77591Y-52804D01*
X77399Y-52932D01*
X77328Y-53039D01*
X77257Y-52932D01*
X77086Y-52818D01*
X77086Y-52042D01*
X77010Y-51858D01*
X76869Y-51717D01*
X76686Y-51641D01*
X76487Y-51641D01*
X76303Y-51716D01*
X76162Y-51857D01*
X76086Y-52041D01*
X76086Y-52240D01*
X76162Y-52423D01*
X76302Y-52564D01*
X76486Y-52641D01*
X76685Y-52641D01*
X76869Y-52565D01*
X77009Y-52424D01*
X77086Y-52240D01*
X77086Y-52042D01*
X77086Y-52818D01*
X77066Y-52804D01*
X76840Y-52760D01*
X76817Y-52760D01*
X76591Y-52804D01*
X76399Y-52932D01*
X76328Y-53039D01*
X76257Y-52932D01*
X76066Y-52804D01*
X75840Y-52760D01*
X75817Y-52760D01*
X75591Y-52804D01*
X75399Y-52932D01*
X75328Y-53039D01*
X75257Y-52932D01*
X75066Y-52804D01*
X75007Y-52793D01*
X75007Y-50491D01*
X74932Y-50307D01*
X74791Y-50166D01*
X74607Y-50090D01*
X74408Y-50090D01*
X74225Y-50166D01*
X74084Y-50306D01*
X74007Y-50490D01*
X74007Y-50689D01*
X74083Y-50873D01*
X74224Y-51014D01*
X74407Y-51090D01*
X74606Y-51090D01*
X74790Y-51014D01*
X74931Y-50874D01*
X75007Y-50690D01*
X75007Y-50491D01*
X75007Y-52793D01*
X74840Y-52760D01*
X74817Y-52760D01*
X74591Y-52804D01*
X74399Y-52932D01*
X74328Y-53039D01*
X74257Y-52932D01*
X74066Y-52804D01*
X73840Y-52760D01*
X73817Y-52760D01*
X73630Y-52797D01*
X73630Y-49408D01*
X73554Y-49225D01*
X73413Y-49084D01*
X73229Y-49007D01*
X73030Y-49007D01*
X72847Y-49083D01*
X72706Y-49224D01*
X72630Y-49407D01*
X72629Y-49606D01*
X72705Y-49790D01*
X72846Y-49931D01*
X73030Y-50007D01*
X73228Y-50007D01*
X73412Y-49932D01*
X73553Y-49791D01*
X73629Y-49607D01*
X73630Y-49408D01*
X73630Y-52797D01*
X73591Y-52804D01*
X73399Y-52932D01*
X73328Y-53039D01*
X73257Y-52932D01*
X73066Y-52804D01*
X72840Y-52760D01*
X72817Y-52760D01*
X72591Y-52804D01*
X72399Y-52932D01*
X72328Y-53039D01*
X72257Y-52932D01*
X72066Y-52804D01*
X71840Y-52760D01*
X71817Y-52760D01*
X71591Y-52804D01*
X71399Y-52932D01*
X71328Y-53039D01*
X71257Y-52932D01*
X71066Y-52804D01*
X70840Y-52760D01*
X70817Y-52760D01*
X70591Y-52804D01*
X70399Y-52932D01*
X70328Y-53039D01*
X70257Y-52932D01*
X70066Y-52804D01*
X69840Y-52760D01*
X69817Y-52760D01*
X69591Y-52804D01*
X69399Y-52932D01*
X69328Y-53039D01*
X69257Y-52932D01*
X69066Y-52804D01*
X68840Y-52760D01*
X68817Y-52760D01*
X68591Y-52804D01*
X68399Y-52932D01*
X68272Y-53124D01*
X68227Y-53350D01*
X68272Y-53575D01*
X68399Y-53767D01*
X68408Y-53772D01*
X68347Y-53798D01*
X68276Y-53868D01*
X68238Y-53960D01*
X68238Y-54059D01*
X68238Y-54237D01*
X68301Y-54300D01*
X68778Y-54300D01*
X68778Y-54292D01*
X68878Y-54292D01*
X68878Y-54300D01*
X68886Y-54300D01*
X68886Y-54400D01*
X68878Y-54400D01*
X68878Y-54877D01*
X68941Y-54940D01*
X69218Y-54940D01*
X69310Y-54901D01*
X69380Y-54831D01*
X69405Y-54771D01*
X69591Y-54895D01*
X69817Y-54940D01*
X69840Y-54940D01*
X70066Y-54895D01*
X70257Y-54767D01*
X70328Y-54660D01*
X70399Y-54767D01*
X70591Y-54895D01*
X70817Y-54940D01*
X70840Y-54940D01*
X71066Y-54895D01*
X71257Y-54767D01*
X71328Y-54660D01*
X71399Y-54767D01*
X71591Y-54895D01*
X71817Y-54940D01*
X71840Y-54940D01*
X72066Y-54895D01*
X72257Y-54767D01*
X72328Y-54660D01*
X72399Y-54767D01*
X72591Y-54895D01*
X72817Y-54940D01*
X72840Y-54940D01*
X73066Y-54895D01*
X73257Y-54767D01*
X73328Y-54660D01*
X73399Y-54767D01*
X73591Y-54895D01*
X73817Y-54940D01*
X73840Y-54940D01*
X74066Y-54895D01*
X74257Y-54767D01*
X74328Y-54660D01*
X74399Y-54767D01*
X74591Y-54895D01*
X74817Y-54940D01*
X74840Y-54940D01*
X75066Y-54895D01*
X75257Y-54767D01*
X75328Y-54660D01*
X75399Y-54767D01*
X75591Y-54895D01*
X75817Y-54940D01*
X75840Y-54940D01*
X76066Y-54895D01*
X76257Y-54767D01*
X76328Y-54660D01*
X76478Y-54825D01*
X76687Y-54922D01*
X76778Y-54875D01*
X76778Y-54400D01*
X76770Y-54400D01*
X76770Y-54300D01*
X76778Y-54300D01*
X76778Y-54292D01*
X76878Y-54292D01*
X76878Y-54300D01*
X76886Y-54300D01*
X76886Y-54400D01*
X76878Y-54400D01*
X76878Y-54875D01*
X76970Y-54922D01*
X77178Y-54825D01*
X77328Y-54660D01*
X77399Y-54767D01*
X77591Y-54895D01*
X77817Y-54940D01*
X77840Y-54940D01*
X78066Y-54895D01*
X78257Y-54767D01*
X78328Y-54660D01*
X78399Y-54767D01*
X78591Y-54895D01*
X78817Y-54940D01*
X78840Y-54940D01*
X79066Y-54895D01*
X79257Y-54767D01*
X79385Y-54575D01*
X79430Y-54350D01*
X79430Y-55025D01*
X68778Y-55025D01*
X68778Y-54877D01*
X68778Y-54400D01*
X68301Y-54400D01*
X68238Y-54462D01*
X68238Y-54640D01*
X68238Y-54739D01*
X68276Y-54831D01*
X68347Y-54901D01*
X68439Y-54940D01*
X68716Y-54940D01*
X68778Y-54877D01*
X68778Y-55025D01*
X68160Y-55025D01*
X68160Y-52215D01*
X72294Y-52215D01*
X72294Y-44881D01*
X72294Y-43793D01*
X74994Y-43793D01*
X74815Y-43867D01*
X74674Y-44007D01*
X74598Y-44191D01*
X74598Y-44390D01*
X74674Y-44574D01*
X74814Y-44714D01*
X74998Y-44791D01*
X75197Y-44791D01*
X75381Y-44715D01*
X75522Y-44574D01*
X75590Y-44409D01*
X75658Y-44574D01*
X75799Y-44714D01*
X75982Y-44791D01*
X76181Y-44791D01*
X76365Y-44715D01*
X76506Y-44574D01*
X76582Y-44391D01*
X76582Y-44192D01*
X76506Y-44008D01*
X76366Y-43867D01*
X76187Y-43793D01*
X81600Y-43793D01*
X81600Y-52462D01*
X81538Y-52370D01*
X81430Y-52297D01*
X81430Y-49427D01*
X81350Y-49234D01*
X81203Y-49086D01*
X81070Y-49031D01*
X81202Y-48976D01*
X81350Y-48829D01*
X81430Y-48636D01*
X81430Y-48427D01*
X81350Y-48234D01*
X81203Y-48086D01*
X81070Y-48031D01*
X81202Y-47976D01*
X81350Y-47829D01*
X81430Y-47636D01*
X81430Y-47427D01*
X81350Y-47234D01*
X81203Y-47086D01*
X81070Y-47031D01*
X81202Y-46976D01*
X81350Y-46829D01*
X81430Y-46636D01*
X81430Y-46427D01*
X81350Y-46234D01*
X81203Y-46086D01*
X81070Y-46031D01*
X81202Y-45976D01*
X81350Y-45829D01*
X81430Y-45636D01*
X81430Y-45427D01*
X81350Y-45234D01*
X81203Y-45086D01*
X81010Y-45006D01*
X80801Y-45006D01*
X80608Y-45086D01*
X80461Y-45232D01*
X80443Y-45189D01*
X80303Y-45048D01*
X80119Y-44972D01*
X79920Y-44972D01*
X79855Y-44999D01*
X79853Y-44992D01*
X79712Y-44851D01*
X79529Y-44775D01*
X79330Y-44775D01*
X79146Y-44851D01*
X79005Y-44991D01*
X78929Y-45175D01*
X78929Y-45374D01*
X79005Y-45558D01*
X79145Y-45699D01*
X79329Y-45775D01*
X79528Y-45775D01*
X79592Y-45748D01*
X79595Y-45755D01*
X79736Y-45896D01*
X79919Y-45972D01*
X80118Y-45972D01*
X80302Y-45896D01*
X80434Y-45765D01*
X80460Y-45828D01*
X80607Y-45976D01*
X80740Y-46031D01*
X80608Y-46086D01*
X80460Y-46233D01*
X80380Y-46426D01*
X80380Y-46635D01*
X80460Y-46828D01*
X80607Y-46976D01*
X80740Y-47031D01*
X80608Y-47086D01*
X80460Y-47233D01*
X80380Y-47426D01*
X80380Y-47531D01*
X80314Y-47531D01*
X80130Y-47607D01*
X79989Y-47747D01*
X79913Y-47931D01*
X79913Y-48130D01*
X79989Y-48314D01*
X80129Y-48455D01*
X80313Y-48531D01*
X80380Y-48531D01*
X80380Y-48635D01*
X80460Y-48828D01*
X80607Y-48976D01*
X80740Y-49031D01*
X80608Y-49086D01*
X80460Y-49233D01*
X80380Y-49426D01*
X80380Y-49635D01*
X80460Y-49828D01*
X80607Y-49976D01*
X80680Y-50006D01*
X80680Y-50006D01*
X80580Y-50006D01*
X80488Y-50044D01*
X80418Y-50114D01*
X80380Y-50206D01*
X80380Y-50418D01*
X80443Y-50481D01*
X80855Y-50481D01*
X80855Y-50473D01*
X80955Y-50473D01*
X80955Y-50481D01*
X81368Y-50481D01*
X81430Y-50418D01*
X81430Y-50206D01*
X81392Y-50114D01*
X81322Y-50044D01*
X81230Y-50006D01*
X81130Y-50006D01*
X81130Y-50006D01*
X81202Y-49976D01*
X81350Y-49829D01*
X81430Y-49636D01*
X81430Y-49427D01*
X81430Y-52297D01*
X81430Y-52297D01*
X81430Y-50856D01*
X81430Y-50643D01*
X81368Y-50581D01*
X80955Y-50581D01*
X80955Y-50993D01*
X81018Y-51056D01*
X81130Y-51056D01*
X81230Y-51056D01*
X81322Y-51018D01*
X81392Y-50948D01*
X81430Y-50856D01*
X81430Y-52297D01*
X81347Y-52242D01*
X81121Y-52197D01*
X81098Y-52197D01*
X80872Y-52242D01*
X80855Y-52253D01*
X80855Y-50993D01*
X80855Y-50581D01*
X80443Y-50581D01*
X80380Y-50643D01*
X80380Y-50856D01*
X80418Y-50948D01*
X80488Y-51018D01*
X80580Y-51056D01*
X80680Y-51056D01*
X80793Y-51056D01*
X80855Y-50993D01*
X80855Y-52253D01*
X80681Y-52370D01*
X80610Y-52476D01*
X80538Y-52370D01*
X80347Y-52242D01*
X80121Y-52197D01*
X80098Y-52197D01*
X79872Y-52242D01*
X79681Y-52370D01*
X79640Y-52431D01*
X79640Y-50779D01*
X79564Y-50595D01*
X79423Y-50454D01*
X79240Y-50378D01*
X79041Y-50378D01*
X78857Y-50454D01*
X78716Y-50594D01*
X78640Y-50778D01*
X78640Y-50977D01*
X78712Y-51153D01*
X78641Y-51153D01*
X78497Y-51212D01*
X78497Y-50010D01*
X78400Y-49773D01*
X78219Y-49592D01*
X78145Y-49561D01*
X78175Y-49531D01*
X78251Y-49348D01*
X78251Y-49149D01*
X78175Y-48965D01*
X78147Y-48937D01*
X78277Y-48807D01*
X78354Y-48623D01*
X78354Y-48424D01*
X78278Y-48240D01*
X78266Y-48228D01*
X78277Y-48216D01*
X78354Y-48032D01*
X78354Y-47834D01*
X78278Y-47650D01*
X78201Y-47573D01*
X78255Y-47442D01*
X78255Y-47243D01*
X78180Y-47059D01*
X78118Y-46998D01*
X78179Y-46937D01*
X78255Y-46753D01*
X78255Y-46554D01*
X78180Y-46370D01*
X78039Y-46229D01*
X77855Y-46153D01*
X77836Y-46153D01*
X77836Y-46104D01*
X77761Y-45920D01*
X77620Y-45780D01*
X77436Y-45703D01*
X77237Y-45703D01*
X77085Y-45766D01*
X77086Y-45742D01*
X77010Y-45559D01*
X76869Y-45418D01*
X76685Y-45342D01*
X76486Y-45341D01*
X76303Y-45417D01*
X76218Y-45502D01*
X76211Y-45484D01*
X76070Y-45344D01*
X75887Y-45267D01*
X75688Y-45267D01*
X75504Y-45343D01*
X75407Y-45440D01*
X75310Y-45344D01*
X75127Y-45267D01*
X74928Y-45267D01*
X74744Y-45343D01*
X74619Y-45468D01*
X74502Y-45350D01*
X74318Y-45273D01*
X74119Y-45273D01*
X73935Y-45349D01*
X73794Y-45490D01*
X73718Y-45673D01*
X73718Y-45763D01*
X73547Y-45834D01*
X73407Y-45974D01*
X73330Y-46158D01*
X73330Y-46357D01*
X73406Y-46541D01*
X73462Y-46597D01*
X73395Y-46665D01*
X73318Y-46848D01*
X73318Y-47047D01*
X73394Y-47231D01*
X73535Y-47372D01*
X73719Y-47448D01*
X73917Y-47448D01*
X74101Y-47372D01*
X74242Y-47232D01*
X74318Y-47048D01*
X74318Y-46849D01*
X74243Y-46665D01*
X74186Y-46609D01*
X74211Y-46585D01*
X74233Y-46638D01*
X74373Y-46779D01*
X74557Y-46855D01*
X74756Y-46855D01*
X74940Y-46780D01*
X75026Y-46694D01*
X75113Y-46781D01*
X75297Y-46858D01*
X75496Y-46858D01*
X75680Y-46782D01*
X75820Y-46641D01*
X75831Y-46617D01*
X75938Y-46724D01*
X76121Y-46800D01*
X76198Y-46800D01*
X76112Y-46836D01*
X75931Y-47016D01*
X75832Y-47253D01*
X75832Y-47509D01*
X75930Y-47745D01*
X76111Y-47927D01*
X76347Y-48025D01*
X76603Y-48025D01*
X76840Y-47927D01*
X77021Y-47746D01*
X77119Y-47510D01*
X77119Y-47254D01*
X77022Y-47017D01*
X76841Y-46836D01*
X76604Y-46738D01*
X76471Y-46738D01*
X76504Y-46724D01*
X76645Y-46584D01*
X76721Y-46400D01*
X76721Y-46326D01*
X76836Y-46279D01*
X76836Y-46302D01*
X76912Y-46486D01*
X77053Y-46627D01*
X77237Y-46703D01*
X77255Y-46703D01*
X77255Y-46752D01*
X77331Y-46936D01*
X77393Y-46998D01*
X77332Y-47058D01*
X77255Y-47242D01*
X77255Y-47441D01*
X77331Y-47625D01*
X77408Y-47702D01*
X77354Y-47833D01*
X77354Y-48032D01*
X77397Y-48136D01*
X77363Y-48122D01*
X77164Y-48121D01*
X76980Y-48197D01*
X76840Y-48338D01*
X76763Y-48522D01*
X76763Y-48535D01*
X76703Y-48510D01*
X76447Y-48509D01*
X76210Y-48607D01*
X76029Y-48788D01*
X75931Y-49024D01*
X75931Y-49280D01*
X76028Y-49517D01*
X76156Y-49645D01*
X76029Y-49772D01*
X75931Y-50009D01*
X75931Y-50265D01*
X76028Y-50501D01*
X76209Y-50683D01*
X76446Y-50781D01*
X76656Y-50781D01*
X76656Y-50797D01*
X76732Y-50981D01*
X76872Y-51121D01*
X77056Y-51198D01*
X77255Y-51198D01*
X77438Y-51122D01*
X77579Y-50981D01*
X77656Y-50798D01*
X77656Y-50752D01*
X77725Y-50781D01*
X77981Y-50781D01*
X78218Y-50683D01*
X78399Y-50502D01*
X78497Y-50266D01*
X78497Y-50010D01*
X78497Y-51212D01*
X78457Y-51229D01*
X78316Y-51369D01*
X78240Y-51553D01*
X78240Y-51752D01*
X78316Y-51936D01*
X78456Y-52077D01*
X78640Y-52153D01*
X78839Y-52153D01*
X79023Y-52077D01*
X79163Y-51937D01*
X79240Y-51753D01*
X79240Y-51554D01*
X79167Y-51378D01*
X79239Y-51378D01*
X79423Y-51302D01*
X79563Y-51162D01*
X79640Y-50978D01*
X79640Y-50779D01*
X79640Y-52431D01*
X79553Y-52561D01*
X79508Y-52787D01*
X79553Y-53013D01*
X79681Y-53204D01*
X79689Y-53210D01*
X79628Y-53235D01*
X79558Y-53305D01*
X79520Y-53397D01*
X79520Y-53497D01*
X79520Y-54177D01*
X79558Y-54269D01*
X79628Y-54339D01*
X79720Y-54377D01*
X79819Y-54377D01*
X80499Y-54377D01*
X80591Y-54339D01*
X80662Y-54269D01*
X80687Y-54208D01*
X80872Y-54332D01*
X81098Y-54377D01*
X81121Y-54377D01*
X81347Y-54332D01*
X81538Y-54204D01*
X81600Y-54112D01*
X81600Y-54724D01*
X81600Y-55025D01*
X81600Y-55025D01*
G37*
X81600Y-55025D02*
X79430Y-55025D01*
X79430Y-54350D01*
X79385Y-54124D01*
X79257Y-53932D01*
X79133Y-53850D01*
X79257Y-53767D01*
X79385Y-53575D01*
X79430Y-53350D01*
X79385Y-53124D01*
X79257Y-52932D01*
X79066Y-52804D01*
X78840Y-52760D01*
X78817Y-52760D01*
X78591Y-52804D01*
X78399Y-52932D01*
X78328Y-53039D01*
X78257Y-52932D01*
X78066Y-52804D01*
X77840Y-52760D01*
X77817Y-52760D01*
X77591Y-52804D01*
X77399Y-52932D01*
X77328Y-53039D01*
X77257Y-52932D01*
X77086Y-52818D01*
X77086Y-52042D01*
X77010Y-51858D01*
X76869Y-51717D01*
X76686Y-51641D01*
X76487Y-51641D01*
X76303Y-51716D01*
X76162Y-51857D01*
X76086Y-52041D01*
X76086Y-52240D01*
X76162Y-52423D01*
X76302Y-52564D01*
X76486Y-52641D01*
X76685Y-52641D01*
X76869Y-52565D01*
X77009Y-52424D01*
X77086Y-52240D01*
X77086Y-52042D01*
X77086Y-52818D01*
X77066Y-52804D01*
X76840Y-52760D01*
X76817Y-52760D01*
X76591Y-52804D01*
X76399Y-52932D01*
X76328Y-53039D01*
X76257Y-52932D01*
X76066Y-52804D01*
X75840Y-52760D01*
X75817Y-52760D01*
X75591Y-52804D01*
X75399Y-52932D01*
X75328Y-53039D01*
X75257Y-52932D01*
X75066Y-52804D01*
X75007Y-52793D01*
X75007Y-50491D01*
X74932Y-50307D01*
X74791Y-50166D01*
X74607Y-50090D01*
X74408Y-50090D01*
X74225Y-50166D01*
X74084Y-50306D01*
X74007Y-50490D01*
X74007Y-50689D01*
X74083Y-50873D01*
X74224Y-51014D01*
X74407Y-51090D01*
X74606Y-51090D01*
X74790Y-51014D01*
X74931Y-50874D01*
X75007Y-50690D01*
X75007Y-50491D01*
X75007Y-52793D01*
X74840Y-52760D01*
X74817Y-52760D01*
X74591Y-52804D01*
X74399Y-52932D01*
X74328Y-53039D01*
X74257Y-52932D01*
X74066Y-52804D01*
X73840Y-52760D01*
X73817Y-52760D01*
X73630Y-52797D01*
X73630Y-49408D01*
X73554Y-49225D01*
X73413Y-49084D01*
X73229Y-49007D01*
X73030Y-49007D01*
X72847Y-49083D01*
X72706Y-49224D01*
X72630Y-49407D01*
X72629Y-49606D01*
X72705Y-49790D01*
X72846Y-49931D01*
X73030Y-50007D01*
X73228Y-50007D01*
X73412Y-49932D01*
X73553Y-49791D01*
X73629Y-49607D01*
X73630Y-49408D01*
X73630Y-52797D01*
X73591Y-52804D01*
X73399Y-52932D01*
X73328Y-53039D01*
X73257Y-52932D01*
X73066Y-52804D01*
X72840Y-52760D01*
X72817Y-52760D01*
X72591Y-52804D01*
X72399Y-52932D01*
X72328Y-53039D01*
X72257Y-52932D01*
X72066Y-52804D01*
X71840Y-52760D01*
X71817Y-52760D01*
X71591Y-52804D01*
X71399Y-52932D01*
X71328Y-53039D01*
X71257Y-52932D01*
X71066Y-52804D01*
X70840Y-52760D01*
X70817Y-52760D01*
X70591Y-52804D01*
X70399Y-52932D01*
X70328Y-53039D01*
X70257Y-52932D01*
X70066Y-52804D01*
X69840Y-52760D01*
X69817Y-52760D01*
X69591Y-52804D01*
X69399Y-52932D01*
X69328Y-53039D01*
X69257Y-52932D01*
X69066Y-52804D01*
X68840Y-52760D01*
X68817Y-52760D01*
X68591Y-52804D01*
X68399Y-52932D01*
X68272Y-53124D01*
X68227Y-53350D01*
X68272Y-53575D01*
X68399Y-53767D01*
X68408Y-53772D01*
X68347Y-53798D01*
X68276Y-53868D01*
X68238Y-53960D01*
X68238Y-54059D01*
X68238Y-54237D01*
X68301Y-54300D01*
X68778Y-54300D01*
X68778Y-54292D01*
X68878Y-54292D01*
X68878Y-54300D01*
X68886Y-54300D01*
X68886Y-54400D01*
X68878Y-54400D01*
X68878Y-54877D01*
X68941Y-54940D01*
X69218Y-54940D01*
X69310Y-54901D01*
X69380Y-54831D01*
X69405Y-54771D01*
X69591Y-54895D01*
X69817Y-54940D01*
X69840Y-54940D01*
X70066Y-54895D01*
X70257Y-54767D01*
X70328Y-54660D01*
X70399Y-54767D01*
X70591Y-54895D01*
X70817Y-54940D01*
X70840Y-54940D01*
X71066Y-54895D01*
X71257Y-54767D01*
X71328Y-54660D01*
X71399Y-54767D01*
X71591Y-54895D01*
X71817Y-54940D01*
X71840Y-54940D01*
X72066Y-54895D01*
X72257Y-54767D01*
X72328Y-54660D01*
X72399Y-54767D01*
X72591Y-54895D01*
X72817Y-54940D01*
X72840Y-54940D01*
X73066Y-54895D01*
X73257Y-54767D01*
X73328Y-54660D01*
X73399Y-54767D01*
X73591Y-54895D01*
X73817Y-54940D01*
X73840Y-54940D01*
X74066Y-54895D01*
X74257Y-54767D01*
X74328Y-54660D01*
X74399Y-54767D01*
X74591Y-54895D01*
X74817Y-54940D01*
X74840Y-54940D01*
X75066Y-54895D01*
X75257Y-54767D01*
X75328Y-54660D01*
X75399Y-54767D01*
X75591Y-54895D01*
X75817Y-54940D01*
X75840Y-54940D01*
X76066Y-54895D01*
X76257Y-54767D01*
X76328Y-54660D01*
X76478Y-54825D01*
X76687Y-54922D01*
X76778Y-54875D01*
X76778Y-54400D01*
X76770Y-54400D01*
X76770Y-54300D01*
X76778Y-54300D01*
X76778Y-54292D01*
X76878Y-54292D01*
X76878Y-54300D01*
X76886Y-54300D01*
X76886Y-54400D01*
X76878Y-54400D01*
X76878Y-54875D01*
X76970Y-54922D01*
X77178Y-54825D01*
X77328Y-54660D01*
X77399Y-54767D01*
X77591Y-54895D01*
X77817Y-54940D01*
X77840Y-54940D01*
X78066Y-54895D01*
X78257Y-54767D01*
X78328Y-54660D01*
X78399Y-54767D01*
X78591Y-54895D01*
X78817Y-54940D01*
X78840Y-54940D01*
X79066Y-54895D01*
X79257Y-54767D01*
X79385Y-54575D01*
X79430Y-54350D01*
X79430Y-55025D01*
X68778Y-55025D01*
X68778Y-54877D01*
X68778Y-54400D01*
X68301Y-54400D01*
X68238Y-54462D01*
X68238Y-54640D01*
X68238Y-54739D01*
X68276Y-54831D01*
X68347Y-54901D01*
X68439Y-54940D01*
X68716Y-54940D01*
X68778Y-54877D01*
X68778Y-55025D01*
X68160Y-55025D01*
X68160Y-52215D01*
X72294Y-52215D01*
X72294Y-44881D01*
X72294Y-43793D01*
X74994Y-43793D01*
X74815Y-43867D01*
X74674Y-44007D01*
X74598Y-44191D01*
X74598Y-44390D01*
X74674Y-44574D01*
X74814Y-44714D01*
X74998Y-44791D01*
X75197Y-44791D01*
X75381Y-44715D01*
X75522Y-44574D01*
X75590Y-44409D01*
X75658Y-44574D01*
X75799Y-44714D01*
X75982Y-44791D01*
X76181Y-44791D01*
X76365Y-44715D01*
X76506Y-44574D01*
X76582Y-44391D01*
X76582Y-44192D01*
X76506Y-44008D01*
X76366Y-43867D01*
X76187Y-43793D01*
X81600Y-43793D01*
X81600Y-52462D01*
X81538Y-52370D01*
X81430Y-52297D01*
X81430Y-49427D01*
X81350Y-49234D01*
X81203Y-49086D01*
X81070Y-49031D01*
X81202Y-48976D01*
X81350Y-48829D01*
X81430Y-48636D01*
X81430Y-48427D01*
X81350Y-48234D01*
X81203Y-48086D01*
X81070Y-48031D01*
X81202Y-47976D01*
X81350Y-47829D01*
X81430Y-47636D01*
X81430Y-47427D01*
X81350Y-47234D01*
X81203Y-47086D01*
X81070Y-47031D01*
X81202Y-46976D01*
X81350Y-46829D01*
X81430Y-46636D01*
X81430Y-46427D01*
X81350Y-46234D01*
X81203Y-46086D01*
X81070Y-46031D01*
X81202Y-45976D01*
X81350Y-45829D01*
X81430Y-45636D01*
X81430Y-45427D01*
X81350Y-45234D01*
X81203Y-45086D01*
X81010Y-45006D01*
X80801Y-45006D01*
X80608Y-45086D01*
X80461Y-45232D01*
X80443Y-45189D01*
X80303Y-45048D01*
X80119Y-44972D01*
X79920Y-44972D01*
X79855Y-44999D01*
X79853Y-44992D01*
X79712Y-44851D01*
X79529Y-44775D01*
X79330Y-44775D01*
X79146Y-44851D01*
X79005Y-44991D01*
X78929Y-45175D01*
X78929Y-45374D01*
X79005Y-45558D01*
X79145Y-45699D01*
X79329Y-45775D01*
X79528Y-45775D01*
X79592Y-45748D01*
X79595Y-45755D01*
X79736Y-45896D01*
X79919Y-45972D01*
X80118Y-45972D01*
X80302Y-45896D01*
X80434Y-45765D01*
X80460Y-45828D01*
X80607Y-45976D01*
X80740Y-46031D01*
X80608Y-46086D01*
X80460Y-46233D01*
X80380Y-46426D01*
X80380Y-46635D01*
X80460Y-46828D01*
X80607Y-46976D01*
X80740Y-47031D01*
X80608Y-47086D01*
X80460Y-47233D01*
X80380Y-47426D01*
X80380Y-47531D01*
X80314Y-47531D01*
X80130Y-47607D01*
X79989Y-47747D01*
X79913Y-47931D01*
X79913Y-48130D01*
X79989Y-48314D01*
X80129Y-48455D01*
X80313Y-48531D01*
X80380Y-48531D01*
X80380Y-48635D01*
X80460Y-48828D01*
X80607Y-48976D01*
X80740Y-49031D01*
X80608Y-49086D01*
X80460Y-49233D01*
X80380Y-49426D01*
X80380Y-49635D01*
X80460Y-49828D01*
X80607Y-49976D01*
X80680Y-50006D01*
X80680Y-50006D01*
X80580Y-50006D01*
X80488Y-50044D01*
X80418Y-50114D01*
X80380Y-50206D01*
X80380Y-50418D01*
X80443Y-50481D01*
X80855Y-50481D01*
X80855Y-50473D01*
X80955Y-50473D01*
X80955Y-50481D01*
X81368Y-50481D01*
X81430Y-50418D01*
X81430Y-50206D01*
X81392Y-50114D01*
X81322Y-50044D01*
X81230Y-50006D01*
X81130Y-50006D01*
X81130Y-50006D01*
X81202Y-49976D01*
X81350Y-49829D01*
X81430Y-49636D01*
X81430Y-49427D01*
X81430Y-52297D01*
X81430Y-52297D01*
X81430Y-50856D01*
X81430Y-50643D01*
X81368Y-50581D01*
X80955Y-50581D01*
X80955Y-50993D01*
X81018Y-51056D01*
X81130Y-51056D01*
X81230Y-51056D01*
X81322Y-51018D01*
X81392Y-50948D01*
X81430Y-50856D01*
X81430Y-52297D01*
X81347Y-52242D01*
X81121Y-52197D01*
X81098Y-52197D01*
X80872Y-52242D01*
X80855Y-52253D01*
X80855Y-50993D01*
X80855Y-50581D01*
X80443Y-50581D01*
X80380Y-50643D01*
X80380Y-50856D01*
X80418Y-50948D01*
X80488Y-51018D01*
X80580Y-51056D01*
X80680Y-51056D01*
X80793Y-51056D01*
X80855Y-50993D01*
X80855Y-52253D01*
X80681Y-52370D01*
X80610Y-52476D01*
X80538Y-52370D01*
X80347Y-52242D01*
X80121Y-52197D01*
X80098Y-52197D01*
X79872Y-52242D01*
X79681Y-52370D01*
X79640Y-52431D01*
X79640Y-50779D01*
X79564Y-50595D01*
X79423Y-50454D01*
X79240Y-50378D01*
X79041Y-50378D01*
X78857Y-50454D01*
X78716Y-50594D01*
X78640Y-50778D01*
X78640Y-50977D01*
X78712Y-51153D01*
X78641Y-51153D01*
X78497Y-51212D01*
X78497Y-50010D01*
X78400Y-49773D01*
X78219Y-49592D01*
X78145Y-49561D01*
X78175Y-49531D01*
X78251Y-49348D01*
X78251Y-49149D01*
X78175Y-48965D01*
X78147Y-48937D01*
X78277Y-48807D01*
X78354Y-48623D01*
X78354Y-48424D01*
X78278Y-48240D01*
X78266Y-48228D01*
X78277Y-48216D01*
X78354Y-48032D01*
X78354Y-47834D01*
X78278Y-47650D01*
X78201Y-47573D01*
X78255Y-47442D01*
X78255Y-47243D01*
X78180Y-47059D01*
X78118Y-46998D01*
X78179Y-46937D01*
X78255Y-46753D01*
X78255Y-46554D01*
X78180Y-46370D01*
X78039Y-46229D01*
X77855Y-46153D01*
X77836Y-46153D01*
X77836Y-46104D01*
X77761Y-45920D01*
X77620Y-45780D01*
X77436Y-45703D01*
X77237Y-45703D01*
X77085Y-45766D01*
X77086Y-45742D01*
X77010Y-45559D01*
X76869Y-45418D01*
X76685Y-45342D01*
X76486Y-45341D01*
X76303Y-45417D01*
X76218Y-45502D01*
X76211Y-45484D01*
X76070Y-45344D01*
X75887Y-45267D01*
X75688Y-45267D01*
X75504Y-45343D01*
X75407Y-45440D01*
X75310Y-45344D01*
X75127Y-45267D01*
X74928Y-45267D01*
X74744Y-45343D01*
X74619Y-45468D01*
X74502Y-45350D01*
X74318Y-45273D01*
X74119Y-45273D01*
X73935Y-45349D01*
X73794Y-45490D01*
X73718Y-45673D01*
X73718Y-45763D01*
X73547Y-45834D01*
X73407Y-45974D01*
X73330Y-46158D01*
X73330Y-46357D01*
X73406Y-46541D01*
X73462Y-46597D01*
X73395Y-46665D01*
X73318Y-46848D01*
X73318Y-47047D01*
X73394Y-47231D01*
X73535Y-47372D01*
X73719Y-47448D01*
X73917Y-47448D01*
X74101Y-47372D01*
X74242Y-47232D01*
X74318Y-47048D01*
X74318Y-46849D01*
X74243Y-46665D01*
X74186Y-46609D01*
X74211Y-46585D01*
X74233Y-46638D01*
X74373Y-46779D01*
X74557Y-46855D01*
X74756Y-46855D01*
X74940Y-46780D01*
X75026Y-46694D01*
X75113Y-46781D01*
X75297Y-46858D01*
X75496Y-46858D01*
X75680Y-46782D01*
X75820Y-46641D01*
X75831Y-46617D01*
X75938Y-46724D01*
X76121Y-46800D01*
X76198Y-46800D01*
X76112Y-46836D01*
X75931Y-47016D01*
X75832Y-47253D01*
X75832Y-47509D01*
X75930Y-47745D01*
X76111Y-47927D01*
X76347Y-48025D01*
X76603Y-48025D01*
X76840Y-47927D01*
X77021Y-47746D01*
X77119Y-47510D01*
X77119Y-47254D01*
X77022Y-47017D01*
X76841Y-46836D01*
X76604Y-46738D01*
X76471Y-46738D01*
X76504Y-46724D01*
X76645Y-46584D01*
X76721Y-46400D01*
X76721Y-46326D01*
X76836Y-46279D01*
X76836Y-46302D01*
X76912Y-46486D01*
X77053Y-46627D01*
X77237Y-46703D01*
X77255Y-46703D01*
X77255Y-46752D01*
X77331Y-46936D01*
X77393Y-46998D01*
X77332Y-47058D01*
X77255Y-47242D01*
X77255Y-47441D01*
X77331Y-47625D01*
X77408Y-47702D01*
X77354Y-47833D01*
X77354Y-48032D01*
X77397Y-48136D01*
X77363Y-48122D01*
X77164Y-48121D01*
X76980Y-48197D01*
X76840Y-48338D01*
X76763Y-48522D01*
X76763Y-48535D01*
X76703Y-48510D01*
X76447Y-48509D01*
X76210Y-48607D01*
X76029Y-48788D01*
X75931Y-49024D01*
X75931Y-49280D01*
X76028Y-49517D01*
X76156Y-49645D01*
X76029Y-49772D01*
X75931Y-50009D01*
X75931Y-50265D01*
X76028Y-50501D01*
X76209Y-50683D01*
X76446Y-50781D01*
X76656Y-50781D01*
X76656Y-50797D01*
X76732Y-50981D01*
X76872Y-51121D01*
X77056Y-51198D01*
X77255Y-51198D01*
X77438Y-51122D01*
X77579Y-50981D01*
X77656Y-50798D01*
X77656Y-50752D01*
X77725Y-50781D01*
X77981Y-50781D01*
X78218Y-50683D01*
X78399Y-50502D01*
X78497Y-50266D01*
X78497Y-50010D01*
X78497Y-51212D01*
X78457Y-51229D01*
X78316Y-51369D01*
X78240Y-51553D01*
X78240Y-51752D01*
X78316Y-51936D01*
X78456Y-52077D01*
X78640Y-52153D01*
X78839Y-52153D01*
X79023Y-52077D01*
X79163Y-51937D01*
X79240Y-51753D01*
X79240Y-51554D01*
X79167Y-51378D01*
X79239Y-51378D01*
X79423Y-51302D01*
X79563Y-51162D01*
X79640Y-50978D01*
X79640Y-50779D01*
X79640Y-52431D01*
X79553Y-52561D01*
X79508Y-52787D01*
X79553Y-53013D01*
X79681Y-53204D01*
X79689Y-53210D01*
X79628Y-53235D01*
X79558Y-53305D01*
X79520Y-53397D01*
X79520Y-53497D01*
X79520Y-54177D01*
X79558Y-54269D01*
X79628Y-54339D01*
X79720Y-54377D01*
X79819Y-54377D01*
X80499Y-54377D01*
X80591Y-54339D01*
X80662Y-54269D01*
X80687Y-54208D01*
X80872Y-54332D01*
X81098Y-54377D01*
X81121Y-54377D01*
X81347Y-54332D01*
X81538Y-54204D01*
X81600Y-54112D01*
X81600Y-54724D01*
X81600Y-55025D01*
M02*
